<svg width="50" height="92" viewBox="0 0 50 92" fill="none" xmlns="http://www.w3.org/2000/svg">
<path fill-rule="evenodd" clip-rule="evenodd" d="M43.8268 0H6.17213C2.77716 0 0 2.77715 0 6.17213V85.0947C0 88.4897 2.77716 91.2668 6.17213 91.2668H43.8268C47.2218 91.2668 50 88.4897 50 85.0947V6.17213C49.999 2.77715 47.2218 0 43.8268 0ZM24.9995 85.9593C22.8769 85.9593 21.1467 84.2281 21.1467 82.1065C21.1467 79.9849 22.8779 78.2538 24.9995 78.2538C27.1211 78.2538 28.8522 79.9849 28.8522 82.1065C28.8522 84.2281 27.1221 85.9593 24.9995 85.9593ZM46.2329 74.3154H3.76608V8.0358H46.2329V74.3154Z" fill="black"/>
</svg>
