<?xml version="1.0" standalone="no"?>
<!DOCTYPE svg PUBLIC "-//W3C//DTD SVG 20010904//EN"
 "http://www.w3.org/TR/2001/REC-SVG-20010904/DTD/svg10.dtd">
<svg version="1.0" xmlns="http://www.w3.org/2000/svg"
 width="1154.000000pt" height="336.000000pt" viewBox="0 0 1154.000000 336.000000"
 preserveAspectRatio="xMidYMid meet">

<g transform="translate(0.000000,336.000000) scale(0.100000,-0.100000)"
fill="#000000" stroke="none">
<path d="M375 3038 c-105 -36 -168 -93 -216 -196 l-29 -64 0 -1103 0 -1103 29
-64 c36 -79 106 -148 185 -182 l58 -26 1101 0 1101 0 60 23 c76 28 157 105
194 184 l27 58 0 1110 0 1110 -22 47 c-13 26 -23 52 -23 57 0 5 -29 36 -64 68
-50 46 -78 63 -133 81 l-69 22 -1070 0 c-1057 -1 -1070 -1 -1129 -22z m1345
-378 c58 -16 80 -60 80 -158 0 -45 -4 -82 -9 -82 -5 0 -45 7 -88 15 -103 21
-222 21 -323 0 -45 -9 -88 -14 -96 -11 -10 4 -14 25 -14 82 0 67 3 81 25 110
14 19 40 38 58 43 43 12 323 13 367 1z m-746 -281 c25 -17 51 -41 58 -52 11
-22 16 -17 -82 -102 -19 -17 -57 -56 -84 -88 -27 -31 -52 -57 -57 -57 -12 0
-61 47 -81 78 -10 16 -18 46 -18 72 0 40 6 52 47 99 77 88 138 102 217 50z
m756 -29 c25 -6 54 -14 65 -19 11 -5 47 -22 80 -36 226 -101 393 -310 443
-552 46 -228 -7 -461 -148 -645 -104 -137 -210 -212 -390 -276 -70 -24 -86
-26 -240 -26 -142 0 -174 3 -227 21 -80 28 -165 69 -222 106 -57 37 -191 173
-211 213 -8 16 -18 31 -21 34 -12 9 -51 95 -77 170 -24 69 -26 88 -27 235 0
141 3 168 24 230 24 74 54 140 87 191 27 43 116 154 123 154 3 0 20 12 36 28
98 89 248 161 380 182 69 10 259 5 325 -10z"/>
<path d="M1425 2111 c-159 -43 -292 -145 -363 -276 -35 -64 -72 -198 -72 -260
0 -63 35 -188 73 -260 40 -76 135 -172 211 -213 76 -41 191 -72 266 -72 76 0
199 33 270 74 63 35 154 121 193 183 15 24 27 45 27 48 0 3 10 27 23 53 20 42
22 62 22 192 l0 145 -43 87 c-33 67 -59 101 -112 152 -39 36 -72 66 -76 66 -3
0 -18 9 -33 19 -54 39 -151 64 -256 67 -55 2 -113 -1 -130 -5z m213 -80 c9 -5
37 -14 61 -21 53 -14 113 -50 165 -99 46 -44 89 -108 83 -125 -3 -7 -83 -52
-178 -100 -96 -48 -179 -92 -186 -98 -7 -5 -21 -7 -33 -3 -19 6 -20 13 -20
224 0 120 3 221 7 224 9 10 80 8 101 -2z"/>
<path d="M5417 3054 c-5 -6 -242 -43 -274 -44 -17 0 -19 -1686 -3 -1771 15
-77 75 -192 125 -238 64 -59 155 -101 254 -117 144 -23 131 -35 131 115 l0
129 -37 7 c-81 15 -145 95 -162 205 -7 42 -11 363 -11 893 0 455 -4 827 -8
827 -5 0 -11 -3 -15 -6z"/>
<path d="M9125 3048 c-26 -7 -244 -38 -267 -38 -12 0 -10 -1671 2 -1752 9 -64
44 -159 72 -194 92 -118 192 -168 381 -190 l57 -6 0 131 c0 116 -2 131 -17
131 -32 0 -104 42 -130 77 -59 76 -58 61 -63 994 l-5 855 -30 -8z"/>
<path d="M9760 2883 c-68 -22 -114 -62 -141 -122 -24 -55 -24 -78 1 -137 21
-48 53 -85 86 -99 76 -31 174 -18 224 30 31 29 60 101 60 144 0 31 -32 103
-57 130 -39 42 -128 69 -173 54z"/>
<path d="M7789 2305 c-242 -62 -409 -232 -476 -485 -24 -92 -24 -349 0 -440
73 -268 263 -451 514 -495 45 -8 93 -17 106 -20 36 -9 244 32 312 62 182 80
294 215 362 438 22 70 25 99 25 230 -1 133 -4 160 -26 234 -30 98 -57 158
-100 221 -95 141 -208 216 -389 259 -112 27 -215 25 -328 -4z m291 -257 c53
-14 158 -112 179 -168 7 -19 20 -53 29 -75 14 -31 17 -74 17 -215 l0 -175 -37
-76 c-37 -76 -104 -153 -143 -165 -11 -4 -23 -11 -26 -16 -3 -5 -36 -14 -73
-20 -178 -30 -327 65 -388 247 -20 60 -23 90 -23 210 0 151 13 214 62 305 78
142 220 194 403 148z"/>
<path d="M9905 2320 c-11 -4 -63 -13 -115 -19 -52 -7 -107 -14 -122 -17 l-28
-6 0 -704 0 -704 160 0 160 0 0 730 c0 689 -1 730 -17 729 -10 0 -27 -4 -38
-9z"/>
<path d="M10545 2304 c-71 -13 -143 -29 -159 -35 -31 -14 -31 -16 -4 -186 l12
-73 40 7 c23 3 46 9 51 13 15 12 169 30 251 30 146 0 224 -35 277 -124 24 -41
30 -65 34 -139 l6 -90 -29 7 c-189 43 -459 22 -589 -46 -174 -91 -244 -250
-204 -463 14 -78 47 -141 103 -199 67 -69 151 -103 316 -128 123 -18 147 -19
265 -8 199 18 356 38 398 50 l37 11 0 474 c0 513 -4 566 -54 678 -92 205 -376
289 -751 221z m458 -794 l47 -12 0 -174 c0 -95 -4 -175 -9 -178 -19 -12 -258
-18 -312 -8 -77 15 -150 59 -173 105 -29 60 -31 107 -7 155 29 57 75 89 162
112 82 22 205 22 292 0z"/>
<path d="M4165 2313 c-210 -26 -301 -51 -298 -80 1 -10 9 -63 17 -118 9 -55
16 -103 16 -106 0 -5 61 7 160 31 25 6 99 12 165 13 113 2 124 0 183 -27 73
-34 116 -82 131 -147 12 -51 14 -179 4 -179 -5 0 -35 7 -68 15 -34 8 -110 14
-177 15 -273 0 -467 -91 -545 -257 -24 -51 -27 -70 -27 -163 0 -143 26 -221
104 -301 110 -112 220 -144 500 -144 179 0 387 20 488 47 l42 11 0 476 c0 450
-1 482 -21 557 -41 158 -102 240 -223 299 -106 51 -303 77 -451 58z m285 -803
c123 -19 110 5 110 -195 l0 -174 -44 -6 c-24 -4 -108 -5 -187 -3 -140 3 -145
4 -193 33 -74 46 -90 72 -90 153 -1 58 3 72 24 99 64 79 220 117 380 93z"/>
<path d="M6355 2300 c-49 -10 -103 -25 -120 -34 -16 -9 -35 -16 -41 -16 -19 0
-147 -91 -187 -133 -128 -136 -172 -275 -172 -542 0 -200 19 -296 78 -409 102
-190 278 -286 530 -286 90 0 173 15 230 40 23 11 53 20 66 20 24 0 24 -1 18
-72 -12 -132 -62 -222 -149 -266 -58 -28 -211 -50 -298 -41 -36 3 -115 9 -176
13 l-111 7 -11 -38 c-13 -46 -35 -193 -30 -199 3 -2 57 -13 122 -24 167 -28
401 -28 523 1 245 58 376 188 425 424 10 45 13 239 13 779 l0 720 -30 7 c-194
44 -379 69 -505 68 -47 0 -125 -9 -175 -19z m378 -258 l27 -12 0 -409 c0 -315
-3 -411 -12 -419 -7 -5 -42 -23 -78 -38 -58 -25 -77 -28 -175 -28 -96 0 -116
3 -155 24 -135 70 -184 183 -184 426 -1 87 3 150 11 165 6 13 16 44 23 69 24
96 123 202 214 230 40 12 293 6 329 -8z"/>
</g>
</svg>
