<?xml version="1.0" encoding="UTF-8"?>
<svg width="210" height="210" viewBox="0 0 210 210" xmlns="http://www.w3.org/2000/svg" xmlns:xlink="http://www.w3.org/1999/xlink">
    <g id="Layer1-2">
        <path id="Path" fill="#5ebf8b" stroke="none" d="M 180.830002 140.450012 C 180.830002 157.482452 167.022461 171.289993 149.990005 171.289993 C 132.957535 171.289993 119.150002 157.482452 119.150002 140.450012 C 119.150002 123.417542 132.957535 109.610001 149.990005 109.610001 C 167.022461 109.610001 180.830002 123.417542 180.830002 140.450012 Z"/>
        <path id="path1" fill="#5ebf8b" stroke="none" d="M 129.610001 85.200005 C 144.243378 79.705612 152.452148 64.132294 148.715073 48.954742 C 144.977997 33.777191 130.47699 23.795578 114.965492 25.723572 C 99.453995 27.651566 87.837791 40.87941 87.93 56.509995 L 87.93 56.509995 C 87.825378 81.552628 72.26812 103.929626 48.830002 112.75 L 48.830002 112.75 C 34.454601 118.483963 26.558298 133.987152 30.373634 148.986267 C 34.188969 163.985382 48.53331 173.831207 63.901283 171.999329 C 79.269257 170.16745 90.897293 157.225693 91.080002 141.75 L 91.080002 141.75 C 90.977249 116.740395 106.30349 94.256073 129.619995 85.209999 Z"/>
    </g>
</svg>
