<svg xmlns="http://www.w3.org/2000/svg" xmlns:xlink="http://www.w3.org/1999/xlink" viewBox="0 0 126 145" fill="#fff" fill-rule="evenodd" stroke="#000" stroke-linecap="round" stroke-linejoin="round"><use xlink:href="#A" x=".5" y=".5"/><symbol id="A" overflow="visible"><g fill-rule="nonzero" stroke-linejoin="miter"><path d="M62.5 0L0 36v72l62.5 36 62.5-36V36zM114 101l-51.5 30L11 101V43l51.5-30L114 43v49.5z" stroke="#0078d1" fill="#0078d1"/><path d="M87.472 72.07c-1.022 0-1.997.093-2.926.28-7.337-9.517-18.157-15.862-30.044-17.541L106 24.905 94.02 18 46.933 45.338a14.67 14.67 0 0 0-8.684-2.846c-8.126 0-14.72 6.625-14.72 14.789s6.594 14.789 14.72 14.789c4.69 0 8.916-2.239 11.609-5.692 9.798.56 18.899 5.318 24.936 12.923-1.3 2.193-2.043 4.759-2.043 7.511 0 .513.046 1.073.093 1.586L19.25 119l12.5 7.25 47.038-27.495a14.67 14.67 0 0 0 8.684 2.846c8.126 0 14.72-6.625 14.72-14.789 0-8.117-6.594-14.742-14.72-14.742z" stroke="#50e6ff" fill="#50e6ff"/></g></symbol></svg>