<?xml version="1.0" standalone="no"?>
<!DOCTYPE svg PUBLIC "-//W3C//DTD SVG 20010904//EN" "http://www.w3.org/TR/2001/REC-SVG-20010904/DTD/svg10.dtd">
<svg version="1.0" xmlns="http://www.w3.org/2000/svg" width="256.000000pt" height="256.000000pt"
viewBox="0 0 256.000000 256.000000" preserveAspectRatio="xMidYMid meet">
<g transform="translate(0.000000,256.000000) scale(0.100000,-0.100000)" fill="#000000" stroke="none">
<path d="M690 1382 l0 -828 184 -102 c101 -56 187 -102 191 -102 5 0 217 120
472 267 l463 267 0 212 0 211 -232 83 c-128 45 -316 111 -417 147 -100 35
-185 63 -186 61 -2 -2 33 -95 78 -207 l83 -204 121 -56 c67 -31 119 -59 115
-63 -4 -3 -116 -69 -249 -146 l-243 -140 0 648 c0 608 -1 648 -17 655 -30 12
-355 125 -359 125 -2 0 -4 -373 -4 -828z" />
</g>
</svg>
