<svg id="svg" version="1.1" xmlns="http://www.w3.org/2000/svg" xmlns:xlink="http://www.w3.org/1999/xlink" width="400" height="400" viewBox="0, 0, 400,400"><g id="svgg"><path id="path0" d="M84.140 38.473 C 83.479 39.497,83.513 274.408,84.175 275.418 C 84.494 275.905,86.160 277.079,87.877 278.027 C 89.595 278.975,91.810 280.197,92.800 280.743 C 93.790 281.290,95.206 282.057,95.948 282.449 C 96.689 282.842,97.589 283.420,97.948 283.734 C 98.306 284.048,99.047 284.442,99.592 284.609 C 100.138 284.776,101.038 285.209,101.592 285.572 C 103.328 286.708,104.150 287.185,105.800 288.011 C 106.680 288.451,108.120 289.255,109.000 289.797 C 109.880 290.339,111.275 291.084,112.100 291.452 C 112.925 291.820,113.600 292.255,113.600 292.417 C 113.600 292.580,114.275 293.005,115.100 293.363 C 115.925 293.720,117.500 294.545,118.600 295.196 C 119.700 295.847,121.140 296.663,121.800 297.008 C 122.460 297.353,123.860 298.123,124.912 298.718 C 125.963 299.313,128.123 300.496,129.712 301.346 C 131.300 302.196,132.870 303.120,133.200 303.399 C 133.530 303.677,134.189 304.024,134.664 304.168 C 135.139 304.313,135.746 304.694,136.013 305.015 C 136.671 305.809,138.204 305.751,139.516 304.884 C 141.443 303.611,142.170 303.195,143.900 302.371 C 144.835 301.927,145.600 301.418,145.600 301.242 C 145.600 301.066,146.275 300.628,147.100 300.270 C 147.925 299.911,149.500 299.073,150.600 298.407 C 151.700 297.742,153.095 297.000,153.700 296.759 C 154.305 296.519,154.800 296.179,154.800 296.004 C 154.800 295.830,155.475 295.383,156.300 295.013 C 158.000 294.249,159.024 293.681,163.023 291.289 C 164.576 290.360,166.061 289.600,166.323 289.600 C 166.585 289.600,166.800 289.456,166.800 289.280 C 166.800 289.104,167.565 288.560,168.500 288.071 C 169.435 287.582,170.920 286.744,171.800 286.208 C 172.680 285.672,174.120 284.864,175.000 284.411 C 175.880 283.959,177.320 283.152,178.200 282.619 C 179.080 282.086,180.372 281.324,181.072 280.925 C 184.888 278.750,189.482 276.093,190.752 275.325 C 193.064 273.928,194.882 272.898,196.600 272.013 C 197.480 271.559,198.920 270.747,199.800 270.208 C 200.680 269.669,201.954 268.962,202.632 268.637 C 203.309 268.312,204.087 267.777,204.359 267.449 C 204.632 267.120,205.364 266.740,205.986 266.603 C 206.608 266.466,207.434 266.005,207.821 265.577 C 208.207 265.150,208.679 264.800,208.868 264.800 C 209.184 264.800,210.456 264.097,215.543 261.110 C 216.565 260.510,217.940 259.739,218.600 259.396 C 219.260 259.053,220.520 258.329,221.400 257.789 C 222.280 257.248,223.573 256.537,224.273 256.209 C 224.973 255.881,225.663 255.422,225.807 255.189 C 225.950 254.957,226.773 254.484,227.634 254.140 C 228.495 253.795,229.200 253.380,229.200 253.217 C 229.200 253.055,229.875 252.625,230.700 252.263 C 231.525 251.901,232.920 251.160,233.800 250.617 C 234.680 250.073,236.030 249.332,236.800 248.969 C 237.570 248.607,238.290 248.172,238.400 248.002 C 238.510 247.833,239.267 247.358,240.082 246.947 C 240.896 246.536,243.353 245.165,245.542 243.900 C 247.730 242.635,249.718 241.600,249.960 241.600 C 250.202 241.600,250.400 241.440,250.400 241.244 C 250.400 241.048,251.165 240.502,252.100 240.031 C 253.035 239.560,254.520 238.741,255.400 238.212 C 258.397 236.410,259.466 235.800,261.033 235.000 C 261.895 234.560,262.696 234.072,262.814 233.916 C 262.932 233.759,263.652 233.344,264.414 232.994 C 265.809 232.352,268.368 230.872,269.738 229.916 C 271.979 228.351,271.789 230.934,271.922 200.132 C 272.066 166.620,272.145 167.888,269.878 167.216 C 268.955 166.942,267.996 166.551,267.746 166.348 C 267.497 166.145,266.417 165.730,265.346 165.426 C 263.087 164.785,260.159 163.782,257.600 162.773 C 255.664 162.010,252.885 161.078,250.000 160.226 C 249.010 159.933,247.660 159.404,247.000 159.049 C 246.340 158.695,245.433 158.404,244.985 158.402 C 244.536 158.401,243.466 158.042,242.607 157.604 C 241.748 157.166,240.408 156.688,239.631 156.542 C 238.853 156.396,237.673 155.945,237.008 155.540 C 236.344 155.135,235.347 154.802,234.794 154.801 C 234.241 154.801,233.161 154.464,232.394 154.053 C 231.627 153.643,230.370 153.175,229.600 153.014 C 228.830 152.853,227.821 152.482,227.358 152.190 C 226.896 151.897,225.816 151.535,224.958 151.385 C 224.101 151.234,222.850 150.798,222.177 150.415 C 221.505 150.032,220.265 149.589,219.423 149.431 C 218.581 149.273,217.244 148.796,216.452 148.372 C 215.660 147.947,214.684 147.600,214.284 147.600 C 213.884 147.600,212.801 147.260,211.878 146.845 C 210.955 146.430,209.573 145.957,208.806 145.793 C 208.039 145.629,207.049 145.271,206.606 144.998 C 206.163 144.724,204.916 144.288,203.837 144.028 C 202.757 143.769,201.502 143.296,201.048 142.978 C 200.594 142.660,199.830 142.400,199.351 142.400 C 198.872 142.400,197.517 141.952,196.340 141.404 C 195.163 140.856,193.878 140.406,193.484 140.404 C 193.090 140.402,192.062 140.040,191.200 139.600 C 190.338 139.160,189.220 138.794,188.716 138.787 C 188.212 138.781,186.900 138.332,185.800 137.791 C 184.700 137.250,183.484 136.806,183.099 136.804 C 182.713 136.802,181.725 136.440,180.904 136.000 C 180.084 135.560,179.042 135.200,178.591 135.200 C 178.139 135.200,177.111 134.864,176.307 134.454 C 175.502 134.044,174.294 133.599,173.622 133.464 C 172.950 133.330,171.600 132.856,170.622 132.410 C 169.644 131.965,168.555 131.600,168.202 131.600 C 167.849 131.600,166.984 131.302,166.280 130.938 C 165.576 130.573,164.190 130.043,163.200 129.759 C 160.256 128.914,157.479 127.983,156.200 127.413 C 153.174 126.063,152.570 126.546,153.958 129.210 C 154.421 130.098,154.800 131.113,154.800 131.465 C 154.800 131.817,155.141 132.667,155.557 133.353 C 155.973 134.039,156.443 135.230,156.601 136.000 C 156.760 136.770,157.122 137.670,157.407 138.000 C 157.692 138.330,158.118 139.320,158.353 140.200 C 158.588 141.080,159.145 142.513,159.590 143.385 C 160.036 144.256,160.400 145.163,160.400 145.400 C 160.400 145.637,160.760 146.537,161.200 147.400 C 161.640 148.263,162.000 149.197,162.000 149.475 C 162.000 149.753,162.359 150.570,162.799 151.290 C 163.238 152.011,163.598 152.911,163.599 153.291 C 163.599 153.671,164.075 155.021,164.656 156.291 C 166.968 161.345,167.200 161.908,167.200 162.450 C 167.200 162.759,167.560 163.684,168.000 164.504 C 168.440 165.325,168.806 166.223,168.813 166.499 C 168.819 166.774,169.268 167.900,169.809 169.000 C 170.350 170.100,170.794 171.249,170.796 171.553 C 170.798 171.857,171.141 172.667,171.557 173.353 C 171.973 174.039,172.443 175.230,172.601 176.000 C 172.760 176.770,173.122 177.670,173.407 178.000 C 173.692 178.330,174.128 179.362,174.376 180.292 C 175.309 183.795,176.270 184.608,183.000 187.588 C 185.437 188.667,189.327 190.490,190.000 190.868 C 190.330 191.053,190.870 191.313,191.200 191.446 C 192.683 192.040,196.498 193.797,199.800 195.406 C 201.780 196.371,203.888 197.277,204.484 197.420 C 205.080 197.562,205.777 197.931,206.033 198.239 C 206.289 198.548,206.719 198.800,206.989 198.800 C 207.662 198.800,211.335 200.778,211.674 201.322 C 212.049 201.926,211.795 202.239,210.292 203.027 C 208.400 204.019,206.397 205.138,204.741 206.128 C 203.939 206.608,201.710 207.900,199.789 209.000 C 197.868 210.100,195.644 211.396,194.848 211.881 C 194.052 212.365,192.950 212.993,192.400 213.277 C 191.850 213.561,190.841 214.165,190.157 214.620 C 189.473 215.075,187.898 215.961,186.657 216.589 C 185.416 217.217,184.400 217.867,184.400 218.034 C 184.400 218.200,183.872 218.452,183.228 218.594 C 182.583 218.736,181.832 219.120,181.559 219.449 C 181.287 219.777,180.509 220.312,179.832 220.637 C 179.154 220.962,177.948 221.627,177.152 222.114 C 176.356 222.601,174.132 223.900,172.211 225.000 C 170.290 226.100,168.061 227.399,167.259 227.886 C 166.456 228.373,165.260 229.055,164.600 229.402 C 163.940 229.749,162.680 230.470,161.800 231.004 C 160.920 231.538,159.459 232.339,158.553 232.783 C 157.647 233.227,156.680 233.863,156.404 234.195 C 156.128 234.528,155.586 234.800,155.200 234.800 C 154.814 234.800,154.265 235.080,153.981 235.423 C 153.696 235.766,152.909 236.315,152.232 236.645 C 150.478 237.496,148.319 238.700,147.493 239.285 C 147.105 239.561,146.260 240.059,145.616 240.393 C 144.972 240.727,143.430 241.595,142.188 242.323 C 140.791 243.142,139.524 243.599,138.865 243.523 L 137.800 243.400 137.699 150.425 L 137.598 57.450 136.751 56.548 C 136.278 56.044,135.024 55.457,133.914 55.219 C 132.819 54.984,131.541 54.524,131.073 54.196 C 130.605 53.868,129.906 53.600,129.519 53.600 C 129.132 53.600,127.687 53.172,126.308 52.649 C 123.237 51.484,121.543 50.883,119.200 50.128 C 118.210 49.809,116.860 49.301,116.200 48.999 C 115.540 48.698,114.370 48.326,113.600 48.172 C 112.830 48.019,111.573 47.557,110.806 47.147 C 110.039 46.736,109.049 46.399,108.606 46.399 C 108.163 46.398,107.214 46.040,106.497 45.603 C 105.781 45.166,104.431 44.687,103.497 44.537 C 102.564 44.388,101.260 43.937,100.600 43.535 C 99.940 43.132,99.033 42.802,98.585 42.801 C 98.136 42.801,97.066 42.442,96.207 42.004 C 95.348 41.566,94.005 41.095,93.222 40.959 C 92.440 40.822,91.440 40.486,91.000 40.212 C 90.560 39.938,89.172 39.415,87.915 39.050 C 86.658 38.685,85.371 38.287,85.055 38.166 C 84.739 38.045,84.328 38.183,84.140 38.473 M291.783 284.570 C 291.227 285.419,291.158 287.416,291.234 300.590 C 291.316 314.866,291.080 318.371,290.218 315.658 C 289.757 314.204,284.614 309.790,282.729 309.231 C 281.778 308.948,280.763 308.524,280.473 308.287 C 279.744 307.693,271.755 307.435,269.800 307.944 C 263.239 309.650,254.400 316.373,254.400 319.657 C 254.400 319.904,254.050 320.672,253.622 321.365 C 253.194 322.057,252.661 323.339,252.438 324.212 C 252.215 325.085,251.756 326.784,251.417 327.987 C 250.989 329.502,250.800 331.965,250.800 336.000 C 250.800 340.035,250.989 342.498,251.417 344.013 C 251.756 345.216,252.212 346.900,252.431 347.755 C 252.650 348.611,253.182 349.760,253.614 350.309 C 254.046 350.858,254.400 351.476,254.400 351.681 C 254.400 352.848,259.363 358.166,261.714 359.519 C 266.605 362.332,274.243 363.296,278.200 361.600 C 279.226 361.160,280.491 360.800,281.010 360.800 C 281.528 360.800,282.066 360.617,282.204 360.394 C 282.341 360.171,283.127 359.646,283.948 359.226 C 285.519 358.425,289.480 354.764,290.253 353.400 C 291.006 352.070,291.390 353.075,291.600 356.931 L 291.800 360.600 293.200 360.704 C 296.007 360.914,295.789 363.983,295.906 322.636 L 296.012 285.242 295.131 284.421 C 293.944 283.315,292.565 283.377,291.783 284.570 M322.000 308.149 C 321.230 308.455,319.970 308.936,319.200 309.219 C 315.348 310.634,311.898 314.476,310.956 318.400 C 309.089 326.182,313.269 332.756,322.400 336.399 C 322.950 336.619,323.670 336.957,324.000 337.152 C 324.330 337.346,325.950 338.152,327.600 338.942 C 336.442 343.179,337.853 351.853,330.424 356.306 C 327.858 357.845,319.257 357.965,316.516 356.500 C 315.590 356.005,314.493 355.600,314.078 355.600 C 313.663 355.600,312.990 355.231,312.583 354.781 C 311.158 353.206,309.819 353.871,309.682 356.221 L 309.564 358.242 311.538 359.521 C 312.623 360.224,313.773 360.800,314.093 360.800 C 314.413 360.800,315.721 361.160,317.000 361.600 C 319.822 362.571,323.738 362.636,326.800 361.763 C 328.010 361.419,329.652 360.999,330.450 360.831 C 331.247 360.663,332.445 360.137,333.112 359.663 C 333.778 359.188,334.449 358.800,334.602 358.800 C 335.056 358.800,337.316 356.333,338.603 354.434 C 340.158 352.140,340.434 343.936,339.028 341.782 C 337.499 339.438,334.117 336.582,331.083 335.071 C 329.393 334.230,327.917 333.389,327.801 333.202 C 327.685 333.015,327.008 332.735,326.295 332.581 C 325.583 332.427,324.550 331.987,324.000 331.603 C 323.450 331.219,322.553 330.766,322.008 330.596 C 314.937 328.396,313.168 318.715,319.020 314.247 C 322.507 311.584,330.808 311.393,335.132 313.876 C 338.174 315.624,339.931 313.953,338.294 310.869 C 336.967 308.368,326.048 306.545,322.000 308.149 M216.000 308.874 C 214.130 309.321,212.261 309.864,211.847 310.080 C 211.433 310.296,210.419 310.711,209.593 311.003 C 206.185 312.205,204.900 313.383,204.711 315.479 C 204.439 318.483,205.479 319.215,207.438 317.400 C 208.031 316.850,208.733 316.400,208.996 316.400 C 209.260 316.400,209.802 316.040,210.200 315.600 C 210.598 315.160,211.213 314.800,211.565 314.800 C 211.918 314.800,213.015 314.374,214.003 313.853 C 216.111 312.742,220.850 312.240,224.641 312.726 C 230.056 313.421,234.017 319.436,234.172 327.200 L 234.200 328.600 230.800 329.295 C 228.930 329.677,226.520 330.172,225.445 330.395 C 224.370 330.618,222.655 330.800,221.633 330.800 C 220.611 330.800,218.790 331.080,217.587 331.423 C 216.384 331.765,214.428 332.222,213.241 332.438 C 212.053 332.653,210.586 333.183,209.979 333.615 C 209.373 334.047,208.663 334.400,208.402 334.400 C 207.533 334.400,203.398 337.897,202.511 339.381 C 199.699 344.085,199.664 351.684,202.435 355.790 C 203.776 357.776,207.286 360.800,208.252 360.800 C 208.571 360.800,209.559 361.171,210.448 361.624 C 215.757 364.333,226.507 361.032,230.747 355.392 C 231.487 354.406,232.323 353.600,232.604 353.600 C 232.885 353.600,233.228 353.304,233.367 352.943 C 233.875 351.618,234.105 352.863,234.031 356.536 C 233.970 359.549,234.085 360.428,234.606 360.949 C 235.534 361.877,237.864 361.801,238.386 360.826 C 238.908 359.851,238.939 327.634,238.423 322.800 C 237.233 311.662,228.092 305.985,216.000 308.874 M280.159 312.792 C 281.019 312.801,284.398 314.963,286.211 316.664 C 295.060 324.967,293.254 350.572,283.502 355.080 C 283.006 355.309,281.571 355.988,280.314 356.589 C 277.154 358.099,269.064 357.982,265.812 356.380 C 262.495 354.745,258.410 349.913,257.569 346.630 C 257.396 345.953,256.980 344.680,256.645 343.800 C 255.781 341.534,255.776 329.289,256.637 327.000 C 256.968 326.120,257.501 324.567,257.821 323.548 C 258.141 322.529,258.672 321.472,259.001 321.199 C 259.331 320.926,259.600 320.525,259.600 320.309 C 259.600 319.939,261.107 317.882,262.023 317.000 C 262.252 316.780,262.823 316.195,263.292 315.700 C 263.761 315.205,264.358 314.800,264.618 314.800 C 264.879 314.800,265.588 314.410,266.195 313.932 C 267.957 312.546,273.911 311.632,276.983 312.277 C 278.312 312.555,279.741 312.787,280.159 312.792 M234.328 335.800 C 234.510 339.194,233.350 344.931,231.863 347.989 C 225.371 361.349,205.438 360.887,205.231 347.373 C 205.101 338.872,209.637 335.932,225.561 334.196 C 228.510 333.874,231.023 333.510,231.147 333.387 C 231.270 333.263,232.008 333.215,232.786 333.281 L 234.200 333.400 234.328 335.800 " stroke="none" fill="#f9fafa" fill-rule="evenodd"></path><path id="path1" d="M0.000 200.000 L 0.000 400.000 200.000 400.000 L 400.000 400.000 400.000 200.000 L 400.000 0.000 200.000 0.000 L 0.000 0.000 0.000 200.000 M87.915 39.050 C 89.172 39.415,90.560 39.938,91.000 40.212 C 91.440 40.486,92.440 40.822,93.222 40.959 C 94.005 41.095,95.348 41.566,96.207 42.004 C 97.066 42.442,98.136 42.801,98.585 42.801 C 99.033 42.802,99.940 43.132,100.600 43.535 C 101.260 43.937,102.564 44.388,103.497 44.537 C 104.431 44.687,105.781 45.166,106.497 45.603 C 107.214 46.040,108.163 46.398,108.606 46.399 C 109.049 46.399,110.039 46.736,110.806 47.147 C 111.573 47.557,112.830 48.019,113.600 48.172 C 114.370 48.326,115.540 48.698,116.200 48.999 C 116.860 49.301,118.210 49.809,119.200 50.128 C 121.543 50.883,123.237 51.484,126.308 52.649 C 127.687 53.172,129.132 53.600,129.519 53.600 C 129.906 53.600,130.605 53.868,131.073 54.196 C 131.541 54.524,132.819 54.984,133.914 55.219 C 135.024 55.457,136.278 56.044,136.751 56.548 L 137.598 57.450 137.699 150.425 L 137.800 243.400 138.865 243.523 C 139.524 243.599,140.791 243.142,142.188 242.323 C 143.430 241.595,144.972 240.727,145.616 240.393 C 146.260 240.059,147.105 239.561,147.493 239.285 C 148.319 238.700,150.478 237.496,152.232 236.645 C 152.909 236.315,153.696 235.766,153.981 235.423 C 154.265 235.080,154.814 234.800,155.200 234.800 C 155.586 234.800,156.128 234.528,156.404 234.195 C 156.680 233.863,157.647 233.227,158.553 232.783 C 159.459 232.339,160.920 231.538,161.800 231.004 C 162.680 230.470,163.940 229.749,164.600 229.402 C 165.260 229.055,166.456 228.373,167.259 227.886 C 168.061 227.399,170.290 226.100,172.211 225.000 C 174.132 223.900,176.356 222.601,177.152 222.114 C 177.948 221.627,179.154 220.962,179.832 220.637 C 180.509 220.312,181.287 219.777,181.559 219.449 C 181.832 219.120,182.583 218.736,183.228 218.594 C 183.872 218.452,184.400 218.200,184.400 218.034 C 184.400 217.867,185.416 217.217,186.657 216.589 C 187.898 215.961,189.473 215.075,190.157 214.620 C 190.841 214.165,191.850 213.561,192.400 213.277 C 192.950 212.993,194.052 212.365,194.848 211.881 C 195.644 211.396,197.868 210.100,199.789 209.000 C 201.710 207.900,203.939 206.608,204.741 206.128 C 206.397 205.138,208.400 204.019,210.292 203.027 C 211.795 202.239,212.049 201.926,211.674 201.322 C 211.335 200.778,207.662 198.800,206.989 198.800 C 206.719 198.800,206.289 198.548,206.033 198.239 C 205.777 197.931,205.080 197.562,204.484 197.420 C 203.888 197.277,201.780 196.371,199.800 195.406 C 196.498 193.797,192.683 192.040,191.200 191.446 C 190.870 191.313,190.330 191.053,190.000 190.868 C 189.327 190.490,185.437 188.667,183.000 187.588 C 176.270 184.608,175.309 183.795,174.376 180.292 C 174.128 179.362,173.692 178.330,173.407 178.000 C 173.122 177.670,172.760 176.770,172.601 176.000 C 172.443 175.230,171.973 174.039,171.557 173.353 C 171.141 172.667,170.798 171.857,170.796 171.553 C 170.794 171.249,170.350 170.100,169.809 169.000 C 169.268 167.900,168.819 166.774,168.813 166.499 C 168.806 166.223,168.440 165.325,168.000 164.504 C 167.560 163.684,167.200 162.759,167.200 162.450 C 167.200 161.908,166.968 161.345,164.656 156.291 C 164.075 155.021,163.599 153.671,163.599 153.291 C 163.598 152.911,163.238 152.011,162.799 151.290 C 162.359 150.570,162.000 149.753,162.000 149.475 C 162.000 149.197,161.640 148.263,161.200 147.400 C 160.760 146.537,160.400 145.637,160.400 145.400 C 160.400 145.163,160.036 144.256,159.590 143.385 C 159.145 142.513,158.588 141.080,158.353 140.200 C 158.118 139.320,157.692 138.330,157.407 138.000 C 157.122 137.670,156.760 136.770,156.601 136.000 C 156.443 135.230,155.973 134.039,155.557 133.353 C 155.141 132.667,154.800 131.817,154.800 131.465 C 154.800 131.113,154.421 130.098,153.958 129.210 C 152.570 126.546,153.174 126.063,156.200 127.413 C 157.479 127.983,160.256 128.914,163.200 129.759 C 164.190 130.043,165.576 130.573,166.280 130.938 C 166.984 131.302,167.849 131.600,168.202 131.600 C 168.555 131.600,169.644 131.965,170.622 132.410 C 171.600 132.856,172.950 133.330,173.622 133.464 C 174.294 133.599,175.502 134.044,176.307 134.454 C 177.111 134.864,178.139 135.200,178.591 135.200 C 179.042 135.200,180.084 135.560,180.904 136.000 C 181.725 136.440,182.713 136.802,183.099 136.804 C 183.484 136.806,184.700 137.250,185.800 137.791 C 186.900 138.332,188.212 138.781,188.716 138.787 C 189.220 138.794,190.338 139.160,191.200 139.600 C 192.062 140.040,193.090 140.402,193.484 140.404 C 193.878 140.406,195.163 140.856,196.340 141.404 C 197.517 141.952,198.872 142.400,199.351 142.400 C 199.830 142.400,200.594 142.660,201.048 142.978 C 201.502 143.296,202.757 143.769,203.837 144.028 C 204.916 144.288,206.163 144.724,206.606 144.998 C 207.049 145.271,208.039 145.629,208.806 145.793 C 209.573 145.957,210.955 146.430,211.878 146.845 C 212.801 147.260,213.884 147.600,214.284 147.600 C 214.684 147.600,215.660 147.947,216.452 148.372 C 217.244 148.796,218.581 149.273,219.423 149.431 C 220.265 149.589,221.505 150.032,222.177 150.415 C 222.850 150.798,224.101 151.234,224.958 151.385 C 225.816 151.535,226.896 151.897,227.358 152.190 C 227.821 152.482,228.830 152.853,229.600 153.014 C 230.370 153.175,231.627 153.643,232.394 154.053 C 233.161 154.464,234.241 154.801,234.794 154.801 C 235.347 154.802,236.344 155.135,237.008 155.540 C 237.673 155.945,238.853 156.396,239.631 156.542 C 240.408 156.688,241.748 157.166,242.607 157.604 C 243.466 158.042,244.536 158.401,244.985 158.402 C 245.433 158.404,246.340 158.695,247.000 159.049 C 247.660 159.404,249.010 159.933,250.000 160.226 C 252.885 161.078,255.664 162.010,257.600 162.773 C 260.159 163.782,263.087 164.785,265.346 165.426 C 266.417 165.730,267.497 166.145,267.746 166.348 C 267.996 166.551,268.955 166.942,269.878 167.216 C 272.145 167.888,272.066 166.620,271.922 200.132 C 271.789 230.934,271.979 228.351,269.738 229.916 C 268.368 230.872,265.809 232.352,264.414 232.994 C 263.652 233.344,262.932 233.759,262.814 233.916 C 262.696 234.072,261.895 234.560,261.033 235.000 C 259.466 235.800,258.397 236.410,255.400 238.212 C 254.520 238.741,253.035 239.560,252.100 240.031 C 251.165 240.502,250.400 241.048,250.400 241.244 C 250.400 241.440,250.202 241.600,249.960 241.600 C 249.718 241.600,247.730 242.635,245.542 243.900 C 243.353 245.165,240.896 246.536,240.082 246.947 C 239.267 247.358,238.510 247.833,238.400 248.002 C 238.290 248.172,237.570 248.607,236.800 248.969 C 236.030 249.332,234.680 250.073,233.800 250.617 C 232.920 251.160,231.525 251.901,230.700 252.263 C 229.875 252.625,229.200 253.055,229.200 253.217 C 229.200 253.380,228.495 253.795,227.634 254.140 C 226.773 254.484,225.950 254.957,225.807 255.189 C 225.663 255.422,224.973 255.881,224.273 256.209 C 223.573 256.537,222.280 257.248,221.400 257.789 C 220.520 258.329,219.260 259.053,218.600 259.396 C 217.940 259.739,216.565 260.510,215.543 261.110 C 210.456 264.097,209.184 264.800,208.868 264.800 C 208.679 264.800,208.207 265.150,207.821 265.577 C 207.434 266.005,206.608 266.466,205.986 266.603 C 205.364 266.740,204.632 267.120,204.359 267.449 C 204.087 267.777,203.309 268.312,202.632 268.637 C 201.954 268.962,200.680 269.669,199.800 270.208 C 198.920 270.747,197.480 271.559,196.600 272.013 C 194.882 272.898,193.064 273.928,190.752 275.325 C 189.482 276.093,184.888 278.750,181.072 280.925 C 180.372 281.324,179.080 282.086,178.200 282.619 C 177.320 283.152,175.880 283.959,175.000 284.411 C 174.120 284.864,172.680 285.672,171.800 286.208 C 170.920 286.744,169.435 287.582,168.500 288.071 C 167.565 288.560,166.800 289.104,166.800 289.280 C 166.800 289.456,166.585 289.600,166.323 289.600 C 166.061 289.600,164.576 290.360,163.023 291.289 C 159.024 293.681,158.000 294.249,156.300 295.013 C 155.475 295.383,154.800 295.830,154.800 296.004 C 154.800 296.179,154.305 296.519,153.700 296.759 C 153.095 297.000,151.700 297.742,150.600 298.407 C 149.500 299.073,147.925 299.911,147.100 300.270 C 146.275 300.628,145.600 301.066,145.600 301.242 C 145.600 301.418,144.835 301.927,143.900 302.371 C 142.170 303.195,141.443 303.611,139.516 304.884 C 138.204 305.751,136.671 305.809,136.013 305.015 C 135.746 304.694,135.139 304.313,134.664 304.168 C 134.189 304.024,133.530 303.677,133.200 303.399 C 132.870 303.120,131.300 302.196,129.712 301.346 C 128.123 300.496,125.963 299.313,124.912 298.718 C 123.860 298.123,122.460 297.353,121.800 297.008 C 121.140 296.663,119.700 295.847,118.600 295.196 C 117.500 294.545,115.925 293.720,115.100 293.363 C 114.275 293.005,113.600 292.580,113.600 292.417 C 113.600 292.255,112.925 291.820,112.100 291.452 C 111.275 291.084,109.880 290.339,109.000 289.797 C 108.120 289.255,106.680 288.451,105.800 288.011 C 104.150 287.185,103.328 286.708,101.592 285.572 C 101.038 285.209,100.138 284.776,99.592 284.609 C 99.047 284.442,98.306 284.048,97.948 283.734 C 97.589 283.420,96.689 282.842,95.948 282.449 C 95.206 282.057,93.790 281.290,92.800 280.743 C 91.810 280.197,89.595 278.975,87.877 278.027 C 86.160 277.079,84.494 275.905,84.175 275.418 C 83.513 274.408,83.479 39.497,84.140 38.473 C 84.328 38.183,84.739 38.045,85.055 38.166 C 85.371 38.287,86.658 38.685,87.915 39.050 M295.131 284.421 L 296.012 285.242 295.906 322.636 C 295.789 363.983,296.007 360.914,293.200 360.704 L 291.800 360.600 291.600 356.931 C 291.390 353.075,291.006 352.070,290.253 353.400 C 289.480 354.764,285.519 358.425,283.948 359.226 C 283.127 359.646,282.341 360.171,282.204 360.394 C 282.066 360.617,281.528 360.800,281.010 360.800 C 280.491 360.800,279.226 361.160,278.200 361.600 C 274.243 363.296,266.605 362.332,261.714 359.519 C 259.363 358.166,254.400 352.848,254.400 351.681 C 254.400 351.476,254.046 350.858,253.614 350.309 C 253.182 349.760,252.650 348.611,252.431 347.755 C 252.212 346.900,251.756 345.216,251.417 344.013 C 250.989 342.498,250.800 340.035,250.800 336.000 C 250.800 331.965,250.989 329.502,251.417 327.987 C 251.756 326.784,252.215 325.085,252.438 324.212 C 252.661 323.339,253.194 322.057,253.622 321.365 C 254.050 320.672,254.400 319.904,254.400 319.657 C 254.400 316.373,263.239 309.650,269.800 307.944 C 271.755 307.435,279.744 307.693,280.473 308.287 C 280.763 308.524,281.778 308.948,282.729 309.231 C 284.614 309.790,289.757 314.204,290.218 315.658 C 291.080 318.371,291.316 314.866,291.234 300.590 C 291.158 287.416,291.227 285.419,291.783 284.570 C 292.565 283.377,293.944 283.315,295.131 284.421 M335.400 308.914 C 337.987 310.017,338.785 311.000,338.794 313.092 C 338.802 314.915,337.446 315.206,335.132 313.876 C 330.808 311.393,322.507 311.584,319.020 314.247 C 313.168 318.715,314.937 328.396,322.008 330.596 C 322.553 330.766,323.450 331.219,324.000 331.603 C 324.550 331.987,325.583 332.427,326.295 332.581 C 327.008 332.735,327.685 333.015,327.801 333.202 C 327.917 333.389,329.393 334.230,331.083 335.071 C 334.117 336.582,337.499 339.438,339.028 341.782 C 340.434 343.936,340.158 352.140,338.603 354.434 C 337.316 356.333,335.056 358.800,334.602 358.800 C 334.449 358.800,333.778 359.188,333.112 359.663 C 332.445 360.137,331.247 360.663,330.450 360.831 C 329.652 360.999,328.010 361.419,326.800 361.763 C 323.738 362.636,319.822 362.571,317.000 361.600 C 315.721 361.160,314.413 360.800,314.093 360.800 C 313.773 360.800,312.623 360.224,311.538 359.521 L 309.564 358.242 309.682 356.221 C 309.819 353.871,311.158 353.206,312.583 354.781 C 312.990 355.231,313.663 355.600,314.078 355.600 C 314.493 355.600,315.590 356.005,316.516 356.500 C 319.257 357.965,327.858 357.845,330.424 356.306 C 333.311 354.576,334.059 353.541,334.639 350.471 C 335.685 344.944,333.848 341.936,327.600 338.942 C 325.950 338.152,324.330 337.346,324.000 337.152 C 323.670 336.957,322.950 336.619,322.400 336.399 C 313.269 332.756,309.089 326.182,310.956 318.400 C 311.898 314.476,315.348 310.634,319.200 309.219 C 319.970 308.936,321.230 308.455,322.000 308.149 C 324.421 307.190,332.431 307.647,335.400 308.914 M226.909 308.801 C 233.615 310.558,237.638 315.449,238.423 322.800 C 238.939 327.634,238.908 359.851,238.386 360.826 C 237.864 361.801,235.534 361.877,234.606 360.949 C 234.085 360.428,233.970 359.549,234.031 356.536 C 234.105 352.863,233.875 351.618,233.367 352.943 C 233.228 353.304,232.885 353.600,232.604 353.600 C 232.323 353.600,231.487 354.406,230.747 355.392 C 226.507 361.032,215.757 364.333,210.448 361.624 C 209.559 361.171,208.571 360.800,208.252 360.800 C 207.286 360.800,203.776 357.776,202.435 355.790 C 199.664 351.684,199.699 344.085,202.511 339.381 C 203.398 337.897,207.533 334.400,208.402 334.400 C 208.663 334.400,209.373 334.047,209.979 333.615 C 210.586 333.183,212.053 332.653,213.241 332.438 C 214.428 332.222,216.384 331.765,217.587 331.423 C 218.790 331.080,220.611 330.800,221.633 330.800 C 222.655 330.800,224.370 330.618,225.445 330.395 C 226.520 330.172,228.930 329.677,230.800 329.295 L 234.200 328.600 234.172 327.200 C 234.017 319.436,230.056 313.421,224.641 312.726 C 220.850 312.240,216.111 312.742,214.003 313.853 C 213.015 314.374,211.918 314.800,211.565 314.800 C 211.213 314.800,210.598 315.160,210.200 315.600 C 209.802 316.040,209.260 316.400,208.996 316.400 C 208.733 316.400,208.031 316.850,207.438 317.400 C 205.479 319.215,204.439 318.483,204.711 315.479 C 204.900 313.383,206.185 312.205,209.593 311.003 C 210.419 310.711,211.433 310.296,211.847 310.080 C 215.359 308.247,222.483 307.642,226.909 308.801 M270.932 312.417 C 268.571 312.838,266.912 313.369,266.195 313.932 C 265.588 314.410,264.879 314.800,264.618 314.800 C 264.358 314.800,263.761 315.205,263.292 315.700 C 262.823 316.195,262.252 316.780,262.023 317.000 C 261.107 317.882,259.600 319.939,259.600 320.309 C 259.600 320.525,259.331 320.926,259.001 321.199 C 258.672 321.472,258.141 322.529,257.821 323.548 C 257.501 324.567,256.968 326.120,256.637 327.000 C 255.776 329.289,255.781 341.534,256.645 343.800 C 256.980 344.680,257.396 345.953,257.569 346.630 C 258.410 349.913,262.495 354.745,265.812 356.380 C 269.064 357.982,277.154 358.099,280.314 356.589 C 281.571 355.988,283.006 355.309,283.502 355.080 C 291.803 351.243,295.010 328.077,288.467 319.215 C 286.435 316.464,281.708 312.809,280.159 312.792 C 279.741 312.787,278.312 312.555,276.983 312.277 C 274.932 311.847,274.016 311.868,270.932 312.417 M231.147 333.387 C 231.023 333.510,228.510 333.874,225.561 334.196 C 209.637 335.932,205.101 338.872,205.231 347.373 C 205.438 360.887,225.371 361.349,231.863 347.989 C 233.350 344.931,234.510 339.194,234.328 335.800 L 234.200 333.400 232.786 333.281 C 232.008 333.215,231.270 333.263,231.147 333.387 " stroke="none" fill="#048373" fill-rule="evenodd"></path></g></svg>