<svg width="20" height="14" viewBox="0 0 20 14" fill="none" xmlns="http://www.w3.org/2000/svg">
<path d="M15.8333 13.6667H5.00001C2.39532 13.6682 0.225755 11.6699 0.013647 9.07385C-0.198461 6.47781 1.61795 4.15379 4.18834 3.73251C5.37144 1.63492 7.59177 0.336273 10 0.333299C11.5017 0.327623 12.9604 0.834431 14.135 1.77001C15.2884 2.68489 16.1084 3.95416 16.4683 5.38168C18.6216 5.71254 20.1565 7.64628 19.99 9.81843C19.8235 11.9906 18.0119 13.6678 15.8333 13.6667ZM10 2.00001C8.1931 2.00214 6.52724 2.97676 5.64001 4.55085L5.25001 5.25001L4.45918 5.37918C2.75108 5.66535 1.54668 7.21193 1.68769 8.93808C1.82869 10.6642 3.26811 11.9948 5.00001 12H15.8333C17.1405 12.0014 18.228 10.9955 18.3285 9.69224C18.429 8.38896 17.5086 7.22826 16.2167 7.02918L15.12 6.86251L14.8517 5.78585C14.2977 3.55819 12.2955 1.99581 10 2.00001ZM8.77334 10.925L5.85668 8.00835L7.03168 6.83335L8.77334 8.57501L12.6067 4.74168L13.7817 5.91668L8.77418 10.9242L8.77334 10.925Z" fill="white"/>
</svg>
