<svg width="41" height="40" viewBox="0 0 41 40" fill="none" xmlns="http://www.w3.org/2000/svg">
<path d="M40 17C40.1 16.9 40.1999 16.7 40.0999 16.5C38.4999 7.2 30.3 0.0999756 20.5 0.0999756C9.49997 0.0999756 0.499946 9.09998 0.599946 20.1C0.699946 30.8 9.7 39.8 20.4 39.9C29.5 39.9 37.1999 33.8 39.5999 25.5C39.6999 25.2 39.5 24.9 39.2 24.8L38.4 24.5C35.2 23.4 31.7 23.8 28.8 25.6C27.5 26.4 26.5999 27.1 26.5999 27.1C24.9999 28.2 23 28.8 20.9 28.8C15.3 28.8 11.4 24.2 10.7 18.6L10.3 15.5C10.2 14.6 9.49998 13.8 8.69998 13.4L7.59995 13C7.39995 12.9 7.29997 12.7 7.49997 12.5C12.3 6.1 18.2 7.5 18.2 7.5C19.2 7.6 20.1 8 20.8 8.5C21.9 9.2 22.6 10.3 23.2 11.4C25 15.5 29.1 18.4 34 18.4C33.9 18.6 38.5 18.7 40 17Z" fill="#9121C2"/>
<path d="M12.9 12.2C13.5628 12.2 14.1 11.6627 14.1 11C14.1 10.3373 13.5628 9.79999 12.9 9.79999C12.2373 9.79999 11.7 10.3373 11.7 11C11.7 11.6627 12.2373 12.2 12.9 12.2Z" fill="#9121C2"/>
<path d="M13.1 18.3C13.4 20.1 14.8 25.8 21.2 26.9C21.3 26.9 21.3 26.8 21.3 26.7C19.8 26 16 23.8 13.3 18.2C13.2 18.1 13.1 18.2 13.1 18.3Z" fill="#9121C2"/>
</svg>
