<?xml version="1.0" standalone="no"?>
<!DOCTYPE svg PUBLIC "-//W3C//DTD SVG 20010904//EN"
 "http://www.w3.org/TR/2001/REC-SVG-20010904/DTD/svg10.dtd">
<svg version="1.0" xmlns="http://www.w3.org/2000/svg"
 width="256.000000pt" height="96.000000pt" viewBox="0 0 256.000000 96.000000"
 preserveAspectRatio="xMidYMid meet">

<g transform="translate(0.000000,96.000000) scale(0.100000,-0.100000)"
fill="#000000" stroke="none">
<path d="M1482 940 c-19 -12 -41 -39 -54 -67 -13 -27 -24 -50 -25 -52 -1 -2
-33 6 -69 18 -37 12 -69 20 -72 17 -14 -15 14 -37 67 -53 l60 -18 -57 -133
c-48 -113 -62 -137 -91 -155 -25 -15 -33 -17 -29 -7 60 144 88 215 88 222 0
14 -60 9 -66 -7 -5 -12 -11 -11 -34 7 -58 43 -132 -13 -170 -129 -23 -70 -41
-97 -73 -115 -42 -22 -40 8 7 124 25 62 46 117 46 121 0 5 -15 7 -32 5 -32 -3
-35 -7 -75 -108 -42 -104 -72 -150 -99 -150 -27 0 -14 48 61 228 41 99 75 183
75 186 0 3 -15 6 -33 6 l-33 0 -68 -167 c-73 -178 -94 -210 -157 -239 -55 -24
-93 -11 -97 32 -3 31 -3 31 53 36 64 5 100 32 114 86 27 94 -71 134 -153 62
-18 -16 -41 -47 -51 -70 -28 -62 -44 -52 -37 25 3 38 0 83 -8 110 -15 54 -77
128 -130 155 -93 47 -217 31 -289 -38 -67 -64 -65 -140 5 -202 19 -16 34 -34
34 -39 0 -5 -16 -33 -37 -62 l-36 -53 43 -38 c52 -46 105 -62 187 -55 73 5
139 39 178 91 33 44 60 39 61 -11 2 -79 94 -108 188 -58 25 13 46 20 46 15 0
-17 32 -40 57 -40 14 0 38 8 55 18 28 16 30 16 39 0 15 -27 72 -23 105 6 l28
23 19 -23 c22 -28 53 -31 86 -8 22 16 23 16 12 -4 -6 -11 -37 -35 -68 -53 -32
-18 -74 -48 -95 -67 -31 -28 -38 -41 -38 -72 0 -60 53 -92 112 -67 47 20 63
42 109 148 38 88 57 114 102 140 16 9 17 8 8 -10 -16 -29 -14 -31 23 -31 33 0
34 1 77 106 26 63 53 114 67 125 28 21 67 26 60 7 -53 -144 -62 -178 -53 -205
8 -22 17 -29 43 -31 19 -2 44 4 57 12 20 13 25 13 35 1 17 -21 69 -18 108 5
l33 20 22 -21 c31 -29 123 -23 169 11 21 16 33 19 36 12 14 -44 59 -53 109
-23 30 19 32 19 48 1 39 -43 139 -32 201 22 47 41 64 77 64 135 0 57 -23 99
-74 138 -20 15 -34 30 -32 34 3 4 14 31 25 60 l21 52 -36 -3 c-33 -3 -38 -7
-54 -48 -17 -44 -19 -45 -56 -40 -67 9 -287 3 -348 -9 -33 -6 -61 -9 -63 -7
-2 2 5 27 17 55 l20 52 -36 -3 c-34 -3 -38 -6 -61 -65 -20 -51 -29 -63 -53
-68 -16 -3 -35 -13 -42 -22 -11 -14 -9 -15 20 -11 17 2 32 4 32 2 0 -6 -74
-193 -86 -215 -15 -30 -43 -44 -56 -31 -6 6 5 47 26 100 43 109 45 138 13 153
-18 8 -33 7 -62 -5 -20 -9 -39 -16 -40 -16 -2 0 4 18 13 40 15 34 22 40 57 46
77 13 125 51 125 100 0 23 -8 38 -26 53 -33 26 -70 27 -112 1z m88 -60 c0 -22
-31 -45 -74 -56 -27 -6 -28 -6 -16 17 21 40 42 59 67 59 16 0 23 -6 23 -20z
m-1364 -44 c-18 -18 -45 -61 -61 -95 -16 -33 -33 -61 -36 -61 -16 0 -49 54
-49 80 0 56 67 109 141 110 l36 0 -31 -34z m140 -8 c65 -57 86 -129 62 -209
-11 -38 -11 -39 -52 -33 -23 4 -72 17 -111 29 -64 20 -70 24 -68 47 4 59 91
198 123 198 5 0 26 -15 46 -32z m1754 -68 c30 -6 56 -12 58 -15 3 -3 0 -16 -6
-30 l-12 -25 -20 20 c-55 55 -139 -17 -184 -157 -15 -45 -23 -55 -60 -72 -73
-36 -116 -24 -116 31 0 26 3 28 39 28 57 0 88 15 111 52 24 40 26 100 4 119
-23 19 -85 17 -117 -4 -44 -29 -81 -87 -98 -156 -13 -51 -22 -69 -42 -81 -21
-12 -29 -12 -38 -3 -10 10 -2 40 38 140 50 128 51 128 89 136 123 25 272 33
354 17z m176 -102 c43 -83 -23 -208 -110 -208 -15 0 -29 7 -32 15 -3 8 15 69
42 135 46 117 48 119 67 102 10 -9 25 -29 33 -44z m-1616 -3 c0 -20 -28 -75
-38 -75 -4 0 -17 -3 -29 -6 -31 -8 -30 11 2 59 26 38 65 51 65 22z m536 0 c10
-24 -35 -130 -66 -160 -24 -23 -32 -26 -45 -15 -10 8 -13 21 -9 39 10 40 43
113 61 133 20 22 52 23 59 3z m674 0 c0 -29 -24 -64 -52 -76 -33 -14 -42 -8
-34 19 17 53 86 99 86 57z m244 -2 c10 -25 -32 -124 -65 -155 -59 -57 -75 0
-27 97 37 72 77 98 92 58z m-1859 -74 c38 -10 80 -19 92 -19 45 0 19 -32 -56
-70 -51 -25 -125 -23 -167 5 l-24 15 28 50 c19 34 32 48 42 44 8 -3 46 -14 85
-25z m805 -294 c-21 -37 -40 -57 -56 -61 -37 -9 -51 9 -30 41 21 31 110 97
114 85 2 -6 -11 -35 -28 -65z"/>
<path d="M982 818 c-18 -18 -14 -46 7 -58 25 -13 48 -4 56 21 12 38 -35 65
-63 37z"/>
<path d="M1910 220 c0 -67 4 -110 10 -110 6 0 10 43 10 110 0 67 -4 110 -10
110 -6 0 -10 -43 -10 -110z"/>
<path d="M1302 220 l-2 -106 35 -2 c30 -2 37 1 45 23 24 63 -2 132 -46 121
-20 -5 -23 -2 -27 31 -2 21 -4 -9 -5 -67z m62 14 c3 -9 6 -36 6 -60 0 -48 -18
-66 -45 -44 -18 15 -20 91 -3 108 17 17 35 15 42 -4z"/>
<path d="M1980 286 c0 -13 -6 -27 -12 -30 -10 -5 -10 -7 0 -12 8 -4 12 -28 12
-70 0 -62 1 -64 25 -64 14 0 25 5 25 10 0 6 -7 10 -15 10 -12 0 -15 13 -15 55
0 42 3 55 15 55 8 0 15 5 15 10 0 6 -7 10 -15 10 -9 0 -15 9 -15 25 0 14 -4
25 -10 25 -5 0 -10 -11 -10 -24z"/>
<path d="M2137 303 c-12 -11 -8 -23 8 -23 8 0 15 7 15 15 0 16 -12 20 -23 8z"/>
<path d="M2544 284 c-12 -5 -6 -64 7 -64 5 0 9 16 9 35 0 19 -1 35 -2 34 -2 0
-8 -3 -14 -5z"/>
<path d="M1405 240 c17 -53 35 -126 35 -137 0 -7 -9 -22 -20 -33 -15 -15 -16
-20 -6 -20 8 0 18 5 21 10 11 17 56 193 51 197 -2 3 -12 -24 -22 -58 l-18 -63
-14 54 c-7 30 -18 60 -24 65 -7 7 -8 2 -3 -15z"/>
<path d="M1565 237 c-31 -44 -12 -127 30 -127 24 0 25 -3 25 -55 0 -42 3 -55
15 -55 13 0 15 21 15 128 l0 129 -35 1 c-25 1 -38 -5 -50 -21z m55 -53 c0 -47
-3 -55 -17 -52 -13 2 -19 15 -21 42 -4 47 3 66 23 66 12 0 15 -12 15 -56z"/>
<path d="M1682 188 l3 -73 38 -2 37 -1 0 74 c0 43 -4 74 -10 74 -6 0 -10 -28
-10 -65 0 -58 -2 -65 -20 -65 -18 0 -20 7 -20 65 0 38 -4 65 -10 65 -7 0 -10
-27 -8 -72z"/>
<path d="M1801 241 c-13 -24 -2 -36 14 -14 7 10 19 14 29 10 25 -10 19 -23
-20 -46 -29 -17 -35 -26 -32 -49 3 -25 7 -27 49 -29 l45 -2 -4 62 c-2 34 -9
68 -14 75 -15 18 -56 15 -67 -7z m55 -97 c-7 -18 -46 -18 -46 0 0 8 10 22 23
31 20 14 22 14 25 0 2 -9 1 -23 -2 -31z"/>
<path d="M2050 183 c0 -42 4 -73 10 -73 6 0 10 25 10 55 0 44 4 57 20 67 28
18 25 25 -10 25 l-30 0 0 -74z"/>
<path d="M2130 185 c0 -60 3 -75 15 -75 12 0 15 15 15 75 0 60 -3 75 -15 75
-12 0 -15 -15 -15 -75z"/>
<path d="M2196 238 c-19 -27 -21 -88 -3 -112 8 -11 22 -17 37 -14 25 3 49 32
36 45 -4 4 -12 0 -17 -10 -25 -44 -56 -3 -44 59 6 36 28 45 43 18 7 -12 11
-13 16 -5 10 16 -12 41 -35 41 -10 0 -25 -10 -33 -22z"/>
<path d="M2302 248 c-20 -20 -14 -45 18 -68 17 -12 30 -28 30 -36 0 -20 -30
-18 -47 4 -12 16 -13 15 -11 -8 3 -21 8 -25 38 -25 32 0 35 3 38 33 2 17 -1
32 -5 32 -5 0 -19 10 -32 21 -17 16 -20 24 -11 33 8 8 15 6 26 -8 17 -23 33
-12 18 12 -14 21 -45 27 -62 10z"/>
<path d="M2470 245 c0 -9 -6 -12 -17 -8 -11 4 -14 3 -9 -5 12 -19 36 -14 36 8
0 11 -2 20 -5 20 -3 0 -5 -7 -5 -15z"/>
<path d="M2497 240 c7 -25 27 -21 31 6 3 16 1 16 -7 4 -7 -10 -11 -11 -11 -2
0 6 -4 12 -9 12 -5 0 -7 -9 -4 -20z"/>
</g>
</svg>
