<svg width="12" height="13" viewBox="0 0 12 13" fill="none" xmlns="http://www.w3.org/2000/svg">
<path fill-rule="evenodd" clip-rule="evenodd" d="M2.83325 3.33329C2.83325 1.58439 4.25102 0.166626 5.99992 0.166626C7.74882 0.166626 9.16659 1.58439 9.16659 3.33329V4.23496C9.37397 4.27022 9.56699 4.32545 9.7513 4.4142C10.2616 4.65994 10.6733 5.07165 10.919 5.58192C11.0562 5.86676 11.1133 6.17244 11.1403 6.51975C11.1666 6.85719 11.1666 7.27329 11.1666 7.78912V7.8304C11.1666 8.52349 11.1666 9.07277 11.1321 9.51619C11.0968 9.96948 11.0232 10.3539 10.853 10.7073C10.5417 11.3536 10.0202 11.8751 9.37388 12.1864C9.0205 12.3565 8.63611 12.4301 8.18281 12.4654C7.7394 12.5 7.19012 12.5 6.49703 12.5H5.50281C4.80972 12.5 4.26044 12.5 3.81702 12.4654C3.36373 12.4301 2.97934 12.3565 2.62595 12.1864C1.97961 11.8751 1.45811 11.3536 1.14685 10.7073C0.976668 10.3539 0.903067 9.96948 0.867772 9.51619C0.833247 9.07278 0.833249 8.5235 0.833252 7.83041V7.78912C0.833248 7.27328 0.833245 6.8572 0.859519 6.51975C0.886561 6.17244 0.943658 5.86676 1.08083 5.58192C1.32656 5.07165 1.73827 4.65994 2.24854 4.4142C2.43284 4.32545 2.62587 4.27022 2.83325 4.23496V3.33329ZM8.16659 3.33329V4.16883C7.97707 4.16662 7.77018 4.16662 7.54413 4.16663H4.45575C4.2297 4.16662 4.02276 4.16662 3.83325 4.16883V3.33329C3.83325 2.13668 4.8033 1.16663 5.99992 1.16663C7.19654 1.16663 8.16659 2.13668 8.16659 3.33329ZM7.33325 7.33329C7.33325 7.85596 7.03252 8.30838 6.59465 8.52696L6.79411 9.72369C6.85416 10.084 6.88419 10.2642 6.78434 10.3821C6.68448 10.5 6.50182 10.5 6.13651 10.5H5.86333C5.49801 10.5 5.31536 10.5 5.2155 10.3821C5.11565 10.2642 5.14568 10.084 5.20573 9.72369L5.40519 8.52696C4.96732 8.30838 4.66659 7.85596 4.66659 7.33329C4.66659 6.59691 5.26354 5.99996 5.99992 5.99996C6.7363 5.99996 7.33325 6.59691 7.33325 7.33329Z" fill="#6D0FA7"/>
</svg>
