<svg width="55px" height="56px" viewBox="0 0 55 56" version="1.1" xmlns="http://www.w3.org/2000/svg" xmlns:xlink="http://www.w3.org/1999/xlink">
    <title>Amazon-EventBridge</title>
    <g id="Page-1" stroke="none" stroke-width="1" fill="none" fill-rule="evenodd">
        <g id="Amazon-EventBridge" transform="translate(-216.000000, -232.000000)" fill="#232F3D">
            <path d="M256.885,286 C254.73,286 252.976,284.247 252.976,282.091 C252.976,279.935 254.73,278.182 256.885,278.182 C259.04,278.182 260.794,279.935 260.794,282.091 C260.794,284.247 259.04,286 256.885,286 L256.885,286 Z M248.313,269 L237.92,269 L232.723,260 L237.92,251 L248.313,251 L253.509,260 L248.313,269 Z M230.703,241.818 C228.548,241.818 226.794,240.065 226.794,237.909 C226.794,235.753 228.548,234 230.703,234 C232.859,234 234.613,235.753 234.613,237.909 C234.613,240.065 232.859,241.818 230.703,241.818 L230.703,241.818 Z M256.885,276.182 C256.143,276.182 255.435,276.325 254.78,276.576 L250.533,269.41 L250.309,269.543 L255.53,260.5 C255.708,260.19 255.708,259.81 255.53,259.5 L249.756,249.5 C249.577,249.19 249.247,249 248.89,249 L238.383,249 L238.424,248.976 L234.53,242.404 C235.802,241.32 236.613,239.708 236.613,237.909 C236.613,234.651 233.962,232 230.703,232 C227.445,232 224.794,234.651 224.794,237.909 C224.794,241.167 227.445,243.818 230.703,243.818 C231.446,243.818 232.154,243.675 232.809,243.424 L236.444,249.557 L230.702,259.5 C230.524,259.81 230.524,260.19 230.702,260.5 L236.477,270.5 C236.656,270.81 236.986,271 237.343,271 L248.89,271 C248.973,271 249.054,270.987 249.132,270.968 L253.059,277.596 C251.786,278.68 250.976,280.292 250.976,282.091 C250.976,285.349 253.626,288 256.885,288 C260.144,288 262.794,285.349 262.794,282.091 C262.794,278.833 260.144,276.182 256.885,276.182 L256.885,276.182 Z M262.846,252.104 C260.691,252.104 258.938,250.351 258.938,248.195 C258.938,246.039 260.691,244.286 262.846,244.286 C265.001,244.286 266.755,246.039 266.755,248.195 C266.755,250.351 265.001,252.104 262.846,252.104 L262.846,252.104 Z M270.169,259.5 L266.373,252.925 C267.816,251.846 268.755,250.13 268.755,248.195 C268.755,244.937 266.105,242.286 262.846,242.286 C262.017,242.286 261.227,242.459 260.51,242.77 L257.415,237.409 C257.237,237.1 256.906,236.909 256.549,236.909 L244.152,236.909 L244.152,238.909 L255.972,238.909 L258.835,243.869 C257.671,244.949 256.938,246.486 256.938,248.195 C256.938,251.453 259.588,254.104 262.846,254.104 C263.453,254.104 264.04,254.011 264.592,253.84 L268.149,260 L263.155,268.648 L264.887,269.648 L270.169,260.5 C270.348,260.19 270.348,259.81 270.169,259.5 L270.169,259.5 Z M224.275,275.247 C222.119,275.247 220.365,273.493 220.365,271.338 C220.365,269.182 222.119,267.429 224.275,267.429 C226.43,267.429 228.184,269.182 228.184,271.338 C228.184,273.493 226.43,275.247 224.275,275.247 L224.275,275.247 Z M227.541,276.258 C229.132,275.198 230.184,273.389 230.184,271.338 C230.184,268.08 227.533,265.429 224.275,265.429 C223.331,265.429 222.442,265.657 221.65,266.052 L218.155,260 L223.946,249.971 L222.213,248.971 L216.134,259.5 C215.955,259.81 215.955,260.19 216.134,260.5 L220.027,267.24 C219,268.304 218.365,269.747 218.365,271.338 C218.365,274.596 221.016,277.247 224.275,277.247 C224.766,277.247 225.241,277.18 225.698,277.066 L228.888,282.591 C229.067,282.9 229.397,283.091 229.754,283.091 L242.152,283.091 L242.152,281.091 L230.331,281.091 L227.541,276.258 Z" id="Amazon-EventBridge_Icon_64_Squid"></path>
        </g>
    </g>
</svg>