<?xml version="1.0" encoding="utf-8"?>
<!-- Generator: Adobe Illustrator 16.0.0, SVG Export Plug-In . SVG Version: 6.00 Build 0)  -->
<!DOCTYPE svg PUBLIC "-//W3C//DTD SVG 1.1//EN" "http://www.w3.org/Graphics/SVG/1.1/DTD/svg11.dtd">
<svg version="1.1" id="Isolation_Mode" xmlns="http://www.w3.org/2000/svg" xmlns:xlink="http://www.w3.org/1999/xlink" x="0px"
	 y="0px" width="250px" height="250px" viewBox="0 0 250 250" enable-background="new 0 0 250 250" xml:space="preserve">
<g>
	<g>
		<g>
			<path fill="#5D6C85" d="M98.454,180.771c-0.499,0-0.8-0.011-0.833-0.013l-1.818-0.068l-4.495-23.881h10.72l0.683,0.797
				c0.093,0.109,2.3,2.693,4.541,5.865c4.327,6.129,4.828,8.811,4.828,10.294c0,1.216-0.401,2.968-2.307,4.411
				c-1.022,0.773-2.402,1.383-4.1,1.811C102.965,180.668,99.988,180.771,98.454,180.771
				C98.454,180.771,98.454,180.771,98.454,180.771z"/>
		</g>
		<g>
			<path fill="#4B4F5E" d="M100.977,159.09c0,0,8.82,10.303,8.82,14.675c0,4.393-8.708,4.726-11.343,4.726
				c-0.469,0-0.747-0.012-0.747-0.012l-3.65-19.389H100.977 M103.077,154.527h-2.1h-6.919h-5.501l1.018,5.406l3.649,19.389
				l0.674,3.577l3.636,0.138c0.061,0.004,0.391,0.015,0.92,0.015c1.64,0,4.831-0.11,7.775-0.854
				c2.025-0.511,3.634-1.231,4.919-2.204c2.071-1.566,3.211-3.779,3.211-6.229c0-1.79-0.603-3.776-1.898-6.253
				c-0.825-1.576-1.951-3.379-3.348-5.356c-2.302-3.259-4.576-5.921-4.672-6.033L103.077,154.527L103.077,154.527z"/>
		</g>
	</g>
	<g>
		<path fill="#D4D2C5" d="M45.934,160.609l26.461,57.486c0,0,1.825,5.702,14.371,5.246c0,0,16.653,1.141,15.056-12.09
			c0,0-1.896-27.762-6.843-50.643H45.934z"/>
		<path fill="#4B4F5E" d="M85.366,225.648c-5.167,0-9.22-1.031-12.048-3.065c-2.051-1.476-2.807-3.034-3.031-3.614l-27.914-60.641
			h54.446l0.389,1.8c4.816,22.274,6.783,49.454,6.885,50.909c0.461,3.928-0.427,7.186-2.643,9.684
			c-3.942,4.446-10.904,4.926-13.715,4.926c0,0,0,0,0,0c-0.472,0-0.816-0.013-0.993-0.021
			C86.276,225.641,85.814,225.648,85.366,225.648z M74.565,217.373c0.102,0.207,0.539,0.961,1.764,1.742
			c1.413,0.898,4.128,1.971,9.037,1.971c0.428,0,0.871-0.008,1.317-0.023l0.12-0.005l0.119,0.009l0,0c0,0,0.306,0.019,0.813,0.019
			c1.711,0,7.512-0.244,10.301-3.391c1.342-1.513,1.839-3.531,1.521-6.169l-0.011-0.119c-0.018-0.268-1.841-26.418-6.417-48.516
			H49.495l25.067,54.457L74.565,217.373z"/>
	</g>
	<g>
		<path fill="#4B4F5E" d="M220.134,28.685c-10.267,51.673-103.346,50.646-103.346,50.646H93.522h-64.34L9.334,99.521v19.506v19.506
			l19.848,20.189h64.34h23.265c0,0,93.08-1.026,103.346,50.646h20.532v-90.342V28.685H220.134z"/>
		<path fill="#4B4F5E" d="M240.666,213.703h-20.532c-2.068,0-3.849-1.461-4.251-3.488c-3.779-19.023-20.465-32.691-49.592-40.625
			c-23.317-6.351-46.535-6.534-49.106-6.534c-0.219,0-0.338,0.001-0.352,0.001c-0.015,0-0.031,0-0.046,0H29.183
			c-1.163,0-2.276-0.467-3.091-1.295L6.244,141.572C5.447,140.761,5,139.67,5,138.533V99.521c0-1.136,0.447-2.228,1.244-3.039
			l19.848-20.189c0.814-0.829,1.928-1.296,3.091-1.296h87.605c0.016,0,0.032,0,0.048,0c0.011,0,0.131,0.001,0.35,0.001
			c2.571,0,25.791-0.184,49.109-6.536c29.125-7.934,45.809-21.602,49.588-40.623c0.402-2.028,2.183-3.489,4.251-3.489h20.532
			c2.394,0,4.334,1.94,4.334,4.334v180.684C245,211.764,243.06,213.703,240.666,213.703z M223.559,205.035h12.773V33.02h-12.773
			c-3.027,10.966-9.801,20.384-20.175,28.033c-8.978,6.62-20.69,11.927-34.812,15.774c-10.203,2.779-21.473,4.763-33.497,5.896
			c-9.3,0.876-16.044,0.944-17.89,0.945c-0.22,0-0.36-0.001-0.417-0.001H30.999l-17.33,17.629v35.464l17.33,17.629h85.766
			c0.054,0,0.196-0.002,0.42-0.002c1.845,0,8.586,0.068,17.885,0.944c12.024,1.133,23.295,3.116,33.498,5.896
			c14.122,3.847,25.835,9.153,34.814,15.773C213.756,184.65,220.531,194.068,223.559,205.035z"/>
	</g>
	<g>
		<g>
			<path fill="#D4D2C5" d="M220.134,28.685c-10.267,51.673-103.346,50.646-103.346,50.646H93.522v79.391h23.265
				c0,0,93.08-1.026,103.346,50.646h20.532v-90.342V28.685H220.134z"/>
		</g>
		<g>
			<polygon fill="#5979AD" points="29.183,79.332 9.334,99.521 9.334,119.027 9.334,138.533 29.183,158.723 93.522,158.723 
				93.522,79.332 			"/>
		</g>
	</g>
	<g>
		<rect x="220.134" y="28.685" fill="#FAF9E7" width="20.532" height="180.684"/>
	</g>
	<g>
		<path fill="#ADB1AB" d="M93.522,158.723c0,0-0.035,5.575,0.535,8.797L56.655,178.49c-9.277-19.768-9.277-19.768-9.277-19.768
			H93.522z"/>
	</g>
</g>
</svg>
