<svg width="14" height="18" viewBox="0 0 14 18" fill="none" xmlns="http://www.w3.org/2000/svg">
<path d="M11.9997 17.3334H1.99967C1.0792 17.3334 0.333008 16.5872 0.333008 15.6668V2.33342C0.333008 1.41294 1.0792 0.666748 1.99967 0.666748H7.83301C7.84209 0.667142 7.85107 0.668825 7.85967 0.671748C7.86782 0.674262 7.87619 0.675938 7.88467 0.676748C7.95816 0.681459 8.03072 0.695747 8.10051 0.719248L8.12384 0.726748C8.14273 0.73315 8.16111 0.740949 8.17884 0.750081C8.26963 0.790434 8.35235 0.846902 8.42301 0.916748L13.423 5.91675C13.4929 5.9874 13.5493 6.07013 13.5897 6.16092C13.598 6.17925 13.6038 6.19842 13.6105 6.21758L13.618 6.23925C13.6413 6.30874 13.655 6.38107 13.6588 6.45425C13.6601 6.4619 13.6621 6.46943 13.6647 6.47675C13.6661 6.48443 13.6667 6.49227 13.6665 6.50008V15.6668C13.6665 16.5872 12.9201 17.3334 11.9997 17.3334ZM1.99967 2.33342V15.6668H11.9997V7.33342H7.83301C7.37277 7.33342 6.99967 6.96032 6.99967 6.50008V2.33342H1.99967ZM8.66634 3.51175V5.66675H10.8213L8.66634 3.51175Z" fill="#2E3A59"/>
</svg>
