
<?xml version="1.0" encoding="UTF-8"?>
<svg width="280px" height="55px" viewBox="0 0 280 55" version="1.1" xmlns="http://www.w3.org/2000/svg" xmlns:xlink="http://www.w3.org/1999/xlink">
    <title>C898D0E9-EB4D-447E-8804-7AD2F7AC0BD5</title>
    <desc>Created with sketchtool.</desc>
    <defs>
        <linearGradient x1="-26.4128056%" y1="0.471605339%" x2="115.337059%" y2="110.245357%" id="linearGradient-1">
            <stop stop-color="#FCDB38" offset="0%"></stop>
            <stop stop-color="#FDD831" offset="2.4%"></stop>
            <stop stop-color="#FED21E" offset="10.6%"></stop>
            <stop stop-color="#FFCD13" offset="19.1%"></stop>
            <stop stop-color="#FFCC0F" offset="28.1%"></stop>
            <stop stop-color="#F08D3A" offset="66.9%"></stop>
            <stop stop-color="#E56238" offset="88.8%"></stop>
            <stop stop-color="#E13C3A" offset="100%"></stop>
        </linearGradient>
        <linearGradient x1="-53.6141941%" y1="-46.2398496%" x2="63.7035511%" y2="63.5358184%" id="linearGradient-2">
            <stop stop-color="#FCDB38" offset="0%"></stop>
            <stop stop-color="#FDD831" offset="2.4%"></stop>
            <stop stop-color="#FED21E" offset="10.6%"></stop>
            <stop stop-color="#FFCD13" offset="19.1%"></stop>
            <stop stop-color="#FFCC0F" offset="28.1%"></stop>
            <stop stop-color="#F08D3A" offset="66.9%"></stop>
            <stop stop-color="#E56238" offset="88.8%"></stop>
            <stop stop-color="#E13C3A" offset="100%"></stop>
        </linearGradient>
    </defs>
    <g id="Assets" stroke="none" stroke-width="1" fill="none" fill-rule="evenodd">
        <g id="01.-Assets" transform="translate(-840.000000, -330.000000)" fill-rule="nonzero">
            <g id="px-logo" transform="translate(840.000000, 330.000000)">
                <g>
                    <g transform="translate(5.419355, 9.032258)">
                        <path d="M238.139339,18.5332022 C237.449632,19.9657268 236.442403,21.2221508 235.194217,22.206963 C233.890926,23.2180394 232.408942,23.9747256 230.825688,24.4374902 C229.088794,24.9533533 227.285089,25.2091961 225.473249,25.1966955 L218.649489,25.1966955 L218.649489,36.2171518 L212.674154,36.2171518 L212.674154,1.93312352 L226.191975,1.93312352 C228.027676,1.90939599 229.855166,2.18222236 231.603895,2.74107002 C233.121646,3.22362402 234.522798,4.01576345 235.718804,5.06742722 C236.838573,6.07120647 237.724606,7.30832488 238.314477,8.69162077 C238.93893,10.1965385 239.248208,11.8135046 239.22321,13.4426436 C239.258014,15.2002516 238.887118,16.94222 238.139339,18.5332022 Z M231.082612,8.91549961 C229.503574,7.81106502 227.600795,7.26587678 225.676475,7.36652242 L218.649489,7.36652242 L218.649489,19.7583399 L225.676475,19.7583399 C227.632384,19.8678388 229.561736,19.2650263 231.107396,18.061487 C232.427154,16.9477888 233.161356,15.2889791 233.098348,13.5632573 C233.22321,11.7782218 232.471151,10.0441717 231.082612,8.91549961 Z" id="Shape" fill="url(#linearGradient-1)"></path>
                        <polygon id="Shape" fill="url(#linearGradient-2)" points="263.856491 36.2146735 254.845161 23.2354839 245.783438 36.2146735 238.877891 36.2146735 251.367191 18.7777341 239.367781 1.92981904 246.472423 1.92981904 254.995515 14.2233281 263.566522 1.92981904 270.472069 1.92981904 258.518096 18.6802518 270.958655 36.2146735"></polygon>
                        <rect id="Rectangle-path" fill="#5B6670" x="116.01963" y="0.754248623" width="6.36691581" height="5.6324941"></rect>
                        <path d="M175.545791,13.3996853 C175.463179,13.2774194 175.380566,13.1518489 175.291345,13.0337136 C173.547957,10.866091 170.869679,9.66754995 168.091699,9.81184107 C164.075098,9.81184107 161.675216,11.91845 160.009756,14.3670732 L160.009756,0.46097561 L154.083163,0.46097561 L154.083163,36.2154996 L160.009756,36.2154996 L160.009756,21.6195909 C160.011084,21.1009771 160.060031,20.5835807 160.15598,20.0739182 L160.192329,19.8657356 C160.248973,19.5841207 160.322073,19.3060673 160.411251,19.0330055 C160.767356,17.8945788 161.48342,16.9025268 162.45177,16.2060189 C162.925458,15.8756498 163.449731,15.6245342 164.004052,15.4625098 C164.600097,15.2890637 165.218109,15.2028035 165.838867,15.2064123 C166.084195,15.2061146 166.32936,15.219076 166.573289,15.24524 C167.021815,15.2923031 167.463409,15.3909895 167.8893,15.5393391 C168.089465,15.6104841 168.285312,15.6932366 168.475846,15.7871755 C168.680047,15.8887635 168.876627,16.0049996 169.064044,16.1349725 C169.099567,16.1597561 169.131786,16.1886703 169.166483,16.2175846 C170.340694,17.1352408 171.091292,18.4909094 171.24583,19.9731314 C171.329184,20.4883277 171.371724,21.0093019 171.373053,21.5311959 L171.373053,36.2245869 L177.299646,36.2245869 L177.299646,19.7583399 C177.37075,17.5328613 176.772139,15.3372827 175.581314,13.4558615 C175.568922,13.4376869 175.558183,13.41786 175.545791,13.3996853 Z" id="Shape" fill="#5B6670"></path>
                        <path d="M201.395948,2.99055862 L201.395948,2.39575138 L201.387687,2.39575138 L201.387687,2.37922895 L188.871951,7.64988198 L185.99705,8.86428009 L185.99705,3.25491739 L180.0655,3.25491739 L180.0655,29.0629426 C180.0655,33.4992132 181.957317,35.6306058 184.857002,36.3575924 C185.728643,36.5626243 186.621713,36.6624706 187.517113,36.6549961 C188.434258,36.6610065 189.349036,36.5612125 190.243312,36.3575924 C191.157306,36.1404939 192.036133,35.7956377 192.853855,35.3332022 L192.853855,30.483871 C191.71682,31.0684188 190.456104,31.3715571 189.177616,31.3678206 C187.170142,31.3678206 185.99705,30.4343037 185.99705,28.1376869 L185.99705,15.2667191 L201.387687,8.80645161 L201.387687,8.74862313 L201.428993,8.73210071 L201.395948,2.99055862 Z" id="Shape" fill="#5B6670"></path>
                        <path d="M17.4947679,22.3052714 L26.2615657,22.3052714 L26.2615657,28.7209284 C23.8473327,30.4413206 20.9489683,31.3502597 17.9846577,31.3166011 C10.9808025,31.3166011 6.327262,26.1252557 6.327262,19.0718332 L6.327262,18.9743509 C6.327262,12.4108183 11.127026,6.87663257 17.4452006,6.87663257 C21.0057302,6.77961338 24.4590081,8.10077968 27.0455547,10.5495673 L30.8663651,5.99516129 C27.3396538,3.00708104 23.665893,1.34162077 17.6905586,1.34162077 C12.9754499,1.2839899 8.43733879,3.13515544 5.10783104,6.47430942 C1.7783233,9.8134634 -0.0597057368,14.356911 0.0115656963,19.0718332 L0.0115656963,19.1701416 C0.0115656963,29.1620771 7.0649882,36.8028718 17.7913454,36.8028718 C23.0453158,36.7995175 28.1223504,34.9041343 32.093155,31.4636507 L32.093155,17.0643588 L17.4947679,17.0643588 L17.4947679,22.3052714 Z" id="Shape" fill="#5B6670"></path>
                        <path d="M45.7125885,10.0117624 C42.3090234,9.96502326 38.9403907,10.7025212 35.8677026,12.1671125 L37.4844217,16.9173092 C39.8075018,15.8607082 42.3286197,15.3099088 44.8806845,15.3014162 C48.9947679,15.3014162 51.2476003,17.2601495 51.2476003,20.836428 L51.2476003,21.3263179 C48.9404418,20.5724506 46.5235157,20.2094649 44.0966955,20.2523603 C38.0717939,20.2523603 33.6148702,22.9950826 33.6148702,28.7258851 L33.6148702,28.8241935 C33.6148702,34.0155389 37.9255704,36.8078285 42.8236428,36.8078285 C46.0397788,36.9225986 49.1294028,35.5490599 51.1988592,33.0845004 L51.1988592,36.2667191 L57.0758851,36.2667191 L57.0758851,20.9339103 C57.0758851,14.0283635 53.3533832,10.0117624 45.7125885,10.0117624 Z M51.3450826,26.9092447 C51.3450826,30.1418568 48.4065696,32.3459481 44.4882769,32.3459481 C41.6968135,32.3459481 39.4927223,30.9745869 39.4927223,28.5259638 L39.4927223,28.4276554 C39.4927223,25.9302911 41.6968135,24.4118804 45.4193155,24.4118804 C47.4401538,24.3979622 49.447132,24.7463085 51.3450826,25.4404013 L51.3450826,26.9092447 Z" id="Shape" fill="#5B6670"></path>
                        <rect id="Rectangle-path" fill="#5B6670" x="60.4241542" y="10.4363887" width="5.92659323" height="25.8608969"></rect>
                        <rect id="Rectangle-path" fill="#5B6670" x="60.1796223" y="0.836034618" width="6.36691581" height="5.6324941"></rect>
                        <path d="M83.9256491,9.89775767 C79.9098741,9.89775767 77.509166,12.0035405 75.8437057,14.4521637 L75.8437057,10.4363887 L69.9171125,10.4363887 L69.9171125,36.2939811 L75.8437057,36.2939811 L75.8437057,21.7013769 C75.8437057,17.6856019 78.2435877,15.2857199 81.6719906,15.2857199 C85.1995279,15.2857199 87.2070024,17.5872935 87.2070024,21.6038946 L87.2070024,36.2972856 L93.1335956,36.2972856 L93.1335956,19.8401259 C93.1335956,13.8160504 89.7539339,9.89775767 83.9256491,9.89775767 Z" id="Shape" fill="#5B6670"></path>
                        <path d="M106.543194,21.0322187 C103.506373,20.052439 100.71491,19.2692762 100.71491,17.4080252 L100.71491,17.3097168 C100.71491,15.7913061 102.036703,14.7140441 104.339103,14.7140441 C106.943279,14.8818241 109.458689,15.7257992 111.637057,17.1626672 L113.988198,12.9494493 C111.161746,11.0939054 107.868299,10.0752279 104.487805,10.0109363 C99.3452006,10.0109363 95.2798584,12.9990165 95.2798584,17.8970889 L95.2798584,17.9945712 C95.2798584,22.9413847 99.5409913,24.5085366 103.360976,25.5866247 C106.397797,26.5168371 109.143824,27.2025177 109.143824,29.2108183 L109.143824,29.3091267 C109.143824,31.0233281 107.67498,32.1005901 105.128049,32.1005901 C102.034296,31.9703536 99.0633399,30.8538206 96.6495673,28.9142408 L94.0059795,32.9308419 C97.1398,35.388608 100.994567,36.7482262 104.976869,36.8003934 C110.364831,36.8003934 114.576397,34.1064123 114.576397,28.6697089 L114.576397,28.5714005 C114.57557,23.9219906 110.315264,22.2077891 106.543194,21.0322187 Z" id="Shape" fill="#5B6670"></path>
                        <polygon id="Shape" fill="#5B6670" points="116.264162 36.2972856 118.618607 36.2972856 122.190755 36.2972856 122.190755 34.8573564 122.190755 10.4363887 116.264162 10.4363887"></polygon>
                        <path d="M144.998308,14.2233281 C142.851015,11.3964637 139.486914,9.75980746 135.937411,9.81514555 C130.05107,9.75277045 125.056979,14.121667 124.336192,19.9640441 C124.237833,20.6257073 124.186485,21.2935088 124.182533,21.9624312 L124.182533,22.0607396 C124.059316,25.9026264 125.81663,29.5633903 128.891424,31.8701023 C129.289148,32.1586392 129.704992,32.4213356 130.136389,32.6565696 C130.239654,32.7143981 130.346223,32.7647915 130.451141,32.8217939 C132.147138,33.6995564 134.02856,34.1587232 135.938238,34.1609363 C140.199371,34.1609363 142.893352,32.2013769 145.048702,29.4099135 L145.048702,31.418214 C145.119158,33.1570899 144.664941,34.8769547 143.745083,36.354288 C142.415028,38.3254131 140.08867,39.3498033 136.865146,39.3498033 C133.594192,39.3502432 130.394054,38.3971204 127.656373,36.607081 L125.453108,41.0640047 C128.952356,43.1274844 132.949262,44.1947735 137.011369,44.1503934 C141.66491,44.1503934 145.289103,43.0235641 147.640244,40.6724233 C148.820111,39.4592539 149.687133,37.9772643 150.166522,36.354288 C150.694094,34.5940151 150.948743,32.7632776 150.921597,30.9258458 L150.921597,10.3554288 L144.995004,10.3554288 L144.998308,14.2233281 Z M145.096617,22.0607396 C145.094142,22.6718264 145.010807,23.2798984 144.84878,23.8691188 C144.672367,24.541058 144.393741,25.1818966 144.022659,25.7691975 C143.918568,25.9344217 143.807042,26.0880803 143.692211,26.2400865 C143.455407,26.5428185 143.194314,26.8257385 142.911526,27.0860346 C142.77026,27.2165618 142.62321,27.3421322 142.47203,27.4627459 C142.346459,27.5627065 142.224194,27.6701023 142.095319,27.7618017 C141.986271,27.8378049 141.867309,27.9022423 141.753304,27.9708104 C141.10545,28.3682493 140.403373,28.6696164 139.669001,28.8654996 C139.326332,28.9618224 138.977433,29.0344176 138.624784,29.0827695 C138.254717,29.134997 137.881591,29.1625951 137.507868,29.1653816 C137.331904,29.1653816 137.160071,29.1521637 136.987411,29.140598 C136.645658,29.1220775 136.305432,29.0817913 135.968804,29.0199843 C134.560149,28.7649197 133.25839,28.0989501 132.227301,27.1058615 C131.797278,26.6870896 131.425749,26.2121884 131.122777,25.6940205 C131.025295,25.5287962 130.935248,25.3561369 130.85181,25.1801731 C130.595625,24.6351022 130.409906,24.0596224 130.299135,23.4676239 C130.286743,23.4015342 130.274351,23.3362707 130.263611,23.270181 C130.195913,22.8553067 130.161657,22.435664 130.161172,22.0153029 L130.161172,21.9169945 C130.159926,21.4036889 130.20918,20.8915056 130.308222,20.3878442 C130.337136,20.2440991 130.377616,20.106963 130.413965,19.9673485 C130.49649,19.6407913 130.602227,19.3205435 130.73037,19.009048 C131.27023,17.7351257 132.194444,16.6615944 133.373958,15.9383556 C134.619599,15.1871173 136.050019,14.7980431 137.504563,14.8148308 C138.899946,14.8083872 140.2737,15.1596471 141.494729,15.8350905 C141.650865,15.9218332 141.802046,16.0143588 141.949921,16.1118411 C142.265026,16.3149284 142.563631,16.5425415 142.842958,16.7925649 C143.36437,17.2637793 143.810183,17.8124075 144.164752,18.4191975 C144.448679,18.9041758 144.666763,19.4248012 144.813257,19.9673485 C145.000895,20.6169068 145.096282,21.289619 145.096617,21.9657356 L145.096617,22.0607396 Z" id="Shape" fill="#5B6670"></path>
                    </g>
                </g>
            </g>
        </g>
    </g>
</svg>