
<?xml version="1.0" encoding="utf-8"?>
<!-- Generator: Adobe Illustrator 19.2.1, SVG Export Plug-In . SVG Version: 6.00 Build 0)  -->
<svg version="1.1" id="Layer_1" xmlns="http://www.w3.org/2000/svg" xmlns:xlink="http://www.w3.org/1999/xlink" x="0px" y="0px"
	 viewBox="0 0 406.1 362.4" style="enable-background:new 0 0 406.1 362.4;" xml:space="preserve">
<style type="text/css">
	.googlepubsub0{fill:url(#Shape_1_);}
	.googlepubsub1{opacity:7.000000e-02;}
	.googlepubsub2{fill:#FFFFFF;}
</style>
<g id="PubSub_128px" transform="translate(297.000000, 79.000000)">
	<g id="BASE_2_">
		
			<linearGradient id="Shape_1_" gradientUnits="userSpaceOnUse" x1="-1099.2635" y1="2340.8027" x2="-1099.2635" y2="2351.9829" gradientTransform="matrix(35.6175 0 0 31.7029 39058.5938 -74286.0156)">
			<stop  offset="0" style="stop-color:#4387FD"/>
			<stop  offset="1" style="stop-color:#4683EA"/>
		</linearGradient>
		<path id="Shape_8_" class="googlepubsub0" d="M-207.2,261.3L-289,119.6c-6.4-11.1-6.4-24.7,0-35.8l81.8-141.7c6.4-11.1,18.2-17.9,31-17.9
			h163.6c12.8,0,24.6,6.8,31,17.9l81.8,141.7c6.4,11.1,6.4,24.7,0,35.8L18.4,261.3c-6.4,11-18.2,17.9-31,17.9h-163.6
			C-189,279.2-200.8,272.3-207.2,261.3L-207.2,261.3z"/>
	</g>
	<g id="shadow_2_" transform="translate(10.573913, 7.513043)" class="googlepubsub1">
		<polygon id="Shape_9_" points="72.8,142.7 -26.4,43.5 -44.7,47.3 -90.2,1.8 -104.7,29 -112.6,60.5 -99.2,73.9 -124.9,79.1 
			-160.1,43.9 -184,66.9 -140,110.9 -186.6,148 -61.4,273.2 -0.4,272.6 		"/>
	</g>
	<g id="art_2_" transform="translate(10.017391, 6.956522)">
		<g id="Group_2_">
			<ellipse id="Oval" class="googlepubsub2" cx="-37.4" cy="56" rx="16.6" ry="16.6"/>
			<circle id="Oval_1_" class="googlepubsub2" cx="-171.5" cy="56" r="16.6"/>
			<circle id="Oval_2_" class="googlepubsub2" cx="-104.4" cy="172.1" r="16.6"/>
			<g id="Rectangle-path" transform="translate(1.669565, 1.947826)">
				<rect x="-80.2" y="73.4" transform="matrix(0.5 -0.866 0.866 0.5 -133.3826 -6.8216)" class="googlepubsub2" width="15.3" height="77.4"/>
				
					<rect x="-178.3" y="104.5" transform="matrix(0.866 -0.5 0.5 0.866 -74.7834 -54.7812)" class="googlepubsub2" width="77.4" height="15.3"/>
				<rect x="-113.8" y="15.3" class="googlepubsub2" width="15.3" height="77.4"/>
			</g>
			<circle id="Oval_3_" class="googlepubsub2" cx="-104.4" cy="94.7" r="26.8"/>
			<ellipse id="Oval_4_" class="googlepubsub2" cx="-171.5" cy="133.4" rx="21.1" ry="21.1"/>
			<circle id="Oval_5_" class="googlepubsub2" cx="-37.4" cy="133.4" r="21.1"/>
			<circle id="Oval_6_" class="googlepubsub2" cx="-104.4" cy="17.3" r="21.1"/>
		</g>
	</g>
</g>
</svg>
