<?xml version="1.0" encoding="utf-8"?>
<!-- Generator: Adobe Illustrator 21.0.0, SVG Export Plug-In . SVG Version: 6.00 Build 0)  -->
<svg version="1.1" id="Layer_1" xmlns="http://www.w3.org/2000/svg" xmlns:xlink="http://www.w3.org/1999/xlink" x="0px" y="0px"
	 viewBox="0 0 150 95.5" style="enable-background:new 0 0 150 95.5;" xml:space="preserve">
<style type="text/css">
	.st0{fill:url(#SVGID_1_);}
</style>
<linearGradient id="SVGID_1_" gradientUnits="userSpaceOnUse" x1="1503.416" y1="3552.7449" x2="1503.416" y2="3417.8276" gradientTransform="matrix(0.7071 0 0 0.7071 -988.4218 -2416.646)">
	<stop  offset="0" style="stop-color:#FFE01E"/>
	<stop  offset="0.1373" style="stop-color:#CADD32"/>
	<stop  offset="0.3103" style="stop-color:#8FD848"/>
	<stop  offset="0.4774" style="stop-color:#5ED55B"/>
	<stop  offset="0.634" style="stop-color:#37D269"/>
	<stop  offset="0.7779" style="stop-color:#1CD073"/>
	<stop  offset="0.9044" style="stop-color:#0BCF7A"/>
	<stop  offset="1" style="stop-color:#05CE7C"/>
</linearGradient>
<path class="st0" d="M6.8,43.3l63.4-42c2.5-1.6,6.4-1.6,8.9,0l63.4,42c3.8,2.5,3.8,6.6,0,9.1L134,58c-12.5-19.7-34.5-32.7-59.4-32.7
	c-25,0-46.9,13.1-59.4,32.7l-8.5-5.6C3,49.9,3,45.7,6.8,43.3z M74.6,42.8c-18.9,0-35.4,10-44.8,24.8l14.6,9.7
	c6.2-10.2,17.3-17,30.1-17c12.7,0,23.9,6.8,30.1,17l14.6-9.7C110.1,52.8,93.5,42.8,74.6,42.8z M74.6,77.9c-6.6,0-12.4,3.7-15.5,9.1
	l9.8,6.4c1.6,1.3,3.5,2.1,5.7,2.1s4.2-0.8,5.7-2.1l9.8-6.4C87.2,81.7,81.3,77.9,74.6,77.9z"/>
</svg>
