<svg width="237" height="66" fill="none" xmlns="http://www.w3.org/2000/svg">
  <g style="mix-blend-mode:luminosity">
    <circle cx="33" cy="33" r="33" fill="#4F33E4" />
    <path
      d="M39.636 39.449a2.994 2.994 0 0 0-2.757 1.846 2.979 2.979 0 0 0 .653 3.25 2.992 2.992 0 0 0 5.1-2.113 2.978 2.978 0 0 0-1.85-2.758 2.995 2.995 0 0 0-1.146-.225Z"
      fill="#FEFEFF" />
    <path
      d="M33 0A33 33 0 0 0 0 33a33 33 0 0 0 33 33 33 33 0 0 0 33-33A33 33 0 0 0 33 0Zm26.194 45.856a6.655 6.655 0 0 0-12.465 3.266v9.639a29.06 29.06 0 0 1-12.808 3.437 27.17 27.17 0 0 1-6.875-19.573 26.654 26.654 0 0 1 4.552-13.262.275.275 0 0 0-.042-.371.295.295 0 0 0-.357.034 21.436 21.436 0 0 0-7.632 13.351 33.259 33.259 0 0 0-.247 1.706c0 .192-.275.24-.392.206a14.946 14.946 0 1 1 16.748-23.045 1.547 1.547 0 0 0 1.258.653H59.97a29.142 29.142 0 0 1-.77 23.987l-.007-.028Z"
      fill="#fff" />
  </g>
  <path
    d="M92.876 54.21a1.1 1.1 0 0 0 .885-.447l3.785-5.132a1.1 1.1 0 0 1 1.75-.028l4.083 5.188a1.1 1.1 0 0 0 .865.42h8.435a1.1 1.1 0 0 0 .879-1.762l-8.964-11.928a1.1 1.1 0 0 1-.004-1.316l8.934-12.046a1.1 1.1 0 0 0-.884-1.756h-8.37a1.1 1.1 0 0 0-.89.454l-8.014 11.037c-.627.862-1.99.419-1.99-.647V12.1a1.1 1.1 0 0 0-1.1-1.1H84.7a1.1 1.1 0 0 0-1.1 1.1v41.01a1.1 1.1 0 0 0 1.1 1.1h8.176Zm38.539.807c9.385 0 16.144-6.338 16.144-15.21 0-8.815-6.759-15.21-16.144-15.21-9.384 0-16.143 6.395-16.143 15.21 0 8.872 6.759 15.21 16.143 15.21Zm0-8.239c-3.519 0-6.312-3.054-6.312-6.971 0-3.918 2.793-6.971 6.312-6.971s6.368 3.053 6.368 6.97c0 3.918-2.849 6.972-6.368 6.972Zm33.851 8.239c3.199 0 5.782-.754 7.877-2.13.506-.332 1.229.01 1.229.614 0 .392.317.71.708.71h7.297a1.1 1.1 0 0 0 1.1-1.1V26.502a1.1 1.1 0 0 0-1.1-1.1h-7.297a.708.708 0 0 0-.708.709c0 .605-.723.947-1.229.614-2.095-1.375-4.678-2.13-7.877-2.13-8.937 0-15.082 6.972-15.082 15.21 0 8.24 6.145 15.21 15.082 15.21Zm1.62-8.124c-3.798 0-6.926-3.169-6.926-7.086 0-3.918 3.128-7.03 6.926-7.03 3.743 0 6.759 3.112 6.759 7.03 0 3.917-3.016 7.086-6.759 7.086Zm31 7.317a1.1 1.1 0 0 0 1.1-1.1V12.1a1.1 1.1 0 0 0-1.1-1.1h-7.576a1.1 1.1 0 0 0-1.1 1.1v41.01a1.1 1.1 0 0 0 1.1 1.1h7.576Zm20.404.807c3.198 0 5.781-.754 7.876-2.13.506-.332 1.229.01 1.229.614 0 .392.317.71.708.71h7.297a1.1 1.1 0 0 0 1.1-1.1V26.502a1.1 1.1 0 0 0-1.1-1.1h-7.297a.708.708 0 0 0-.708.709c0 .605-.723.947-1.229.614-2.095-1.375-4.678-2.13-7.876-2.13-8.938 0-15.082 6.972-15.082 15.21 0 8.24 6.144 15.21 15.082 15.21Zm1.62-8.124c-3.799 0-6.927-3.169-6.927-7.086 0-3.918 3.128-7.03 6.927-7.03 3.742 0 6.759 3.112 6.759 7.03 0 3.917-3.017 7.086-6.759 7.086Z"
    fill="#fff" />
</svg>
