<svg width="31" height="30" viewBox="0 0 31 30" fill="none" xmlns="http://www.w3.org/2000/svg">
<ellipse cx="15.0307" cy="15" rx="15.0307" ry="15" fill="white"/>
<path d="M18.0038 17.9316C17.7353 17.9323 17.4731 18.0123 17.2502 18.1617C17.0273 18.3111 16.8537 18.5232 16.7514 18.771C16.6491 19.0189 16.6227 19.2915 16.6754 19.5544C16.7282 19.8173 16.8577 20.0586 17.0478 20.248C17.2378 20.4374 17.4798 20.5662 17.7431 20.6183C18.0065 20.6704 18.2793 20.6434 18.5273 20.5406C18.7752 20.4379 18.9872 20.264 19.1362 20.0411C19.2853 19.8181 19.3649 19.556 19.3649 19.2879C19.3649 19.1095 19.3296 18.9329 19.2612 18.7682C19.1928 18.6034 19.0925 18.4538 18.966 18.3278C18.8396 18.2018 18.6895 18.102 18.5244 18.034C18.3593 17.966 18.1824 17.9312 18.0038 17.9316Z" fill="#4D32E4"/>
<path d="M15.0307 0C11.0443 0 7.2212 1.58036 4.40239 4.3934C1.58359 7.20645 0 11.0217 0 15V15C0 18.9782 1.58359 22.7936 4.40239 25.6066C7.2212 28.4196 11.0443 30 15.0307 30V30C19.0171 30 22.8402 28.4196 25.659 25.6066C28.4778 22.7936 30.0614 18.9782 30.0614 15V15C30.0614 11.0217 28.4778 7.20645 25.659 4.3934C22.8402 1.58036 19.0171 0 15.0307 0V0ZM26.9613 20.8438C26.6337 20.2586 26.1206 19.7987 25.5026 19.5362C24.8846 19.2736 24.1968 19.2233 23.5471 19.3932C22.8973 19.5631 22.3226 19.9435 21.913 20.4747C21.5034 21.0059 21.2822 21.6579 21.2841 22.3281V26.5812C21.2841 26.625 21.2841 26.6656 21.2841 26.7094C19.4862 27.672 17.4896 28.2067 15.4503 28.2719C13.2684 25.8363 12.1425 22.6372 12.3189 19.375C12.4585 17.217 13.1742 15.1356 14.3919 13.3469C14.4106 13.3216 14.4191 13.2901 14.4156 13.2588C14.4121 13.2275 14.397 13.1987 14.3731 13.1781C14.348 13.1625 14.3185 13.1556 14.289 13.1584C14.2596 13.1613 14.2319 13.1737 14.2103 13.1937C12.3394 14.718 11.101 16.8802 10.7344 19.2625C10.6937 19.475 10.6467 19.8375 10.6217 20.0375C10.6217 20.125 10.4964 20.1469 10.4432 20.1313C9.42713 19.7945 8.50496 19.2233 7.75162 18.4641C6.99827 17.7049 6.43498 16.779 6.1075 15.7618C5.78002 14.7445 5.69759 13.6645 5.86689 12.6095C6.03619 11.5545 6.45245 10.5542 7.08188 9.68984C7.7113 8.82551 8.53612 8.12152 9.48937 7.63505C10.4426 7.14857 11.4974 6.89334 12.568 6.89006C13.6387 6.88679 14.695 7.13557 15.6512 7.61621C16.6074 8.09685 17.4366 8.79579 18.0713 9.65625C18.1362 9.74774 18.2221 9.82241 18.3217 9.87405C18.4214 9.9257 18.532 9.9528 18.6443 9.95312H21.2716H27.3152C28.0357 11.6912 28.3771 13.5624 28.3166 15.4424C28.2562 17.3223 27.7952 19.1679 26.9645 20.8563L26.9613 20.8438Z" fill="#4D32E4"/>
</svg>
