<?xml version="1.0" encoding="utf-8"?>
<!-- Generator: Adobe Illustrator 23.0.1, SVG Export Plug-In . SVG Version: 6.00 Build 0)  -->
<svg version="1.1" id="Layer_1" xmlns="http://www.w3.org/2000/svg" xmlns:xlink="http://www.w3.org/1999/xlink" x="0px" y="0px"
	 viewBox="0 0 200 200" enable-background="new 0 0 200 200" xml:space="preserve">
<g>
	<g>
		<path id="SVGID_113_" fill-rule="evenodd" clip-rule="evenodd" fill="#1F1F1F" d="M68.72,128.81c-0.91,0-1.74,0.47-2.2,1.24
			c-0.45,0.78-0.45,1.73,0,2.51c0.45,0.79,11.5,19.5,33.5,19.5c22,0,33.02-18.71,33.47-19.5c0.42-0.78,0.42-1.73-0.04-2.51
			c-0.45-0.77-1.29-1.24-2.16-1.24H68.72z M62.47,74.43v25.46c0,2.86,2.31,5.17,5.2,5.17h17.08c2.89,0,5.23-2.32,5.23-5.17V82.94
			c0-2.87-2.33-5.19-5.23-5.19H72.9v-3.32c0-6.44,5.33-11.71,11.85-11.71c2.89,0,5.23-2.33,5.23-5.19c0-2.87-2.33-5.19-5.23-5.19
			C72.45,52.33,62.47,62.25,62.47,74.43z M110.03,74.43v25.46c0,2.86,2.34,5.17,5.23,5.17h17.05c2.89,0,5.2-2.32,5.2-5.17V82.94
			c0-2.87-2.3-5.19-5.2-5.19h-11.89v-3.32c0-6.44,5.33-11.71,11.89-11.71c2.89,0,5.2-2.33,5.2-5.19c0-2.87-2.3-5.19-5.2-5.19
			C120,52.33,110.03,62.25,110.03,74.43z"/>
		<path id="SVGID_112_" fill-rule="evenodd" clip-rule="evenodd" fill="#FF5551" d="M64.64,8.39C33.26,8.39,7.72,33.75,7.72,64.9
			v70.2c0,31.15,25.53,56.5,56.92,56.5h47.95l-31.62-22.6H64.64c-18.83,0-34.15-15.21-34.15-33.9V64.9
			c0-18.69,15.32-33.9,34.15-33.9h70.7c18.83,0,34.17,15.21,34.17,33.9v70.2c0,18.69-15.34,33.9-34.17,33.9H121.9v22.6h13.44
			c31.38,0,56.94-25.35,56.94-56.5V64.9c0-31.15-25.56-56.51-56.94-56.51H64.64z"/>
	</g>
</g>
</svg>
