<?xml version="1.0" encoding="utf-8"?>
<!-- Generator: Adobe Illustrator 26.0.1, SVG Export Plug-In . SVG Version: 6.00 Build 0)  -->
<svg version="1.1" id="Layer_1" xmlns="http://www.w3.org/2000/svg" xmlns:xlink="http://www.w3.org/1999/xlink" x="0px" y="0px"
	 viewBox="0 0 1480 457" style="enable-background:new 0 0 1480 457;" xml:space="preserve">
<style type="text/css">
	.st0{fill:#030303;}
	.st1{fill:#E75325;}
	.st2{fill:#EF8322;}
	.st3{fill:#1D1D1B;}
</style>
<g>
	<g>
		<g>
			<path class="st0" d="M343.18,293.81H197.44c2.95,33.58,28.22,51.26,69.49,51.26c19.38,0,32.69-3.43,57.96-13.54l10.36-4.28v45.49
				c-3.48,1.7-6.99,2.96-9.09,3.81c-17.28,5.89-44.15,10.09-66.47,10.09c-67.82,0-113.28-43.79-113.28-108.67
				c0-60.66,42.14-104.89,99.44-104.89c59.4,0,97.74,41.4,97.74,105.86C343.6,283.15,343.6,287.44,343.18,293.81z M249.66,211.89
				c-26.96,0-45.5,15.32-51.39,42.54h99.42C292.63,227.22,277.05,211.89,249.66,211.89z"/>
			<path class="st0" d="M677.53,258.18v123.09H628.3V269.12c0-32.42-14.86-48.87-44.34-48.87c-11.44,0-19.37,2.77-32.11,11.41v149.6
				h-48.07V269.54c0-10.96-1.31-19.37-2.58-24.44c-3.37-13.91-18.83-24.86-34.84-24.86c-13.47,0-30.92,5.07-39.03,14.33v146.69
				h-50.97V177.98h48.07v19.95c2.9-3.36,5.29-5.9,6.98-7.58c11.79-10.53,29.39-16.42,48.77-16.42c25.27,0,43.34,7.58,55.55,24
				c3.37-2.95,5.88-5.48,7.56-6.73c13.48-10.95,35.51-18.12,56.58-18.12C647.91,173.07,677.53,205.51,677.53,258.18z"/>
			<path class="st0" d="M860.54,381.27V267.99c0-33.69-13.21-48.86-42.7-48.86c-15.58,0-25.65,4.63-41.87,17.28v144.87h-49.22
				V177.98h46.33v18.81c2.89-2.94,5.44-5.47,7.54-7.59c10.97-9.68,27.57-14.74,47.37-14.74c22.74,0,41.08,6.32,56.25,18.96
				c18.54,15.16,25.51,34.54,25.51,68.66v119.18H860.54z"/>
			<path class="st0" d="M962.46,381.27V177.98h45.75v203.28H962.46z"/>
			<path class="st0" d="M1129.26,387.91c-17.27,0-35.72-2.95-52.16-9.26c-11.36-4.64-17.92-7.59-30.67-16.01V316.3
				c14.47,10.54,20.56,13.9,34.48,19.81c18.51,8,33.87,11.79,48.18,11.79c18.12,0,28.74-7.16,28.74-19.38
				c0-5.04-1.64-9.69-4.6-12.63c-5.46-5.49-11.34-8.44-32.41-14.75c-32.45-10.09-40.01-13.06-51.8-19.38
				c-16.01-8.85-26.12-26.11-26.12-45.06c0-35.81,32.07-61.51,76.74-61.51c24.44,0,46.68,5.47,70.43,18.12v45.48
				c-27.22-15.59-46.83-21.9-64.52-21.9c-18.55,0-30.37,7.57-30.37,18.54c0,9.26,6.31,13.9,30.75,20.63
				c29.89,8.42,43.37,13.92,55.17,21.07c16.42,10.12,27.38,29.91,27.38,49.3C1208.46,363.06,1176.45,387.91,1129.26,387.91z"/>
			<path class="st0" d="M1372.76,381.27l-76.13-90.22v90.22h-46.33v-278h46.33V248.9l67.69-70.93h62.76l-90.55,91.54l95.61,111.76
				H1372.76z"/>
		</g>
		<g>
			<path class="st0" d="M125.03,381.27H98.76c-34.64,0-62.91-26.5-62.91-61.14V103.27h48.06v216.86c0,8.73,6.1,15.38,14.85,15.38
				h26.27V381.27z"/>
		</g>
		<path class="st1" d="M1081.81,62.86c-10.17-10.16-23.68-15.76-38.05-15.76c-14.38,0-27.89,5.59-38.05,15.76l-21.9,21.9
			l-20.75-20.76h-0.03c-4.87-5.16-10.61-9.26-17.09-12.18c-6.98-3.15-14.44-4.75-22.15-4.75c-14.42,0-27.98,5.62-38.18,15.82
			c-10.21,10.21-15.82,23.76-15.82,38.19c0,14.43,5.61,27.98,15.82,38.19c10.21,10.2,23.76,15.82,38.18,15.82
			c7.38,0,14.55-1.46,21.29-4.36c6.43-2.75,12.18-6.68,17.12-11.66l0.02,0.03l21.59-21.6l3.53,3.52
			c9.53,8.38,22.03,13.47,35.72,13.47c6.09,0,11.91-0.99,17.35-2.84c-7-0.71-13.48-3.79-18.53-8.83l-21.71-21.71l21.9-21.9
			c5.8-5.79,13.5-8.98,21.69-8.98c8.19,0,15.89,3.19,21.68,8.99l14.18,14.17l16.36-16.36L1081.81,62.86z M945.87,122.7l-0.02-0.02
			c-5.86,5.97-13.69,9.26-22.06,9.26c-17,0-30.87-13.84-30.87-30.86c0-17.01,13.85-30.86,30.87-30.86c8.64,0,16.94,3.66,22.77,10.04
			l20.89,20.84L945.87,122.7z"/>
		<path class="st2" d="M1142.57,61.57v46.4l-14.84-14.93l-46.14,46.16c-10.16,10.16-23.65,15.75-38.03,15.75
			s-27.89-5.59-38.04-15.75l-2.71-2.73c6.66,2.94,14.06,4.58,21.82,4.58c15.61,0,29.69-6.62,39.56-17.21
			c0.36-0.33,47.23-47.26,47.23-47.26l-14.93-15.01L1142.57,61.57L1142.57,61.57z"/>
	</g>
	<g>
		<path class="st3" d="M1376.82,104.66h-11.48v-3.57h26.87v3.57h-11.48v30.65h-3.91V104.66z"/>
		<path class="st3" d="M1399.41,101.1h3.91l12.46,18.67l12.46-18.67h3.91v34.21h-3.86v-27.72l-12.46,18.33h-0.18l-12.46-18.28v27.67
			h-3.76V101.1H1399.41z"/>
	</g>
</g>
</svg>
