
<?xml version="1.0" encoding="UTF-8" standalone="yes"?>
<svg version="1.1" id="Layer_1" xmlns="http://www.w3.org/2000/svg" xmlns:xlink="http://www.w3.org/1999/xlink" x="0px" y="0px" viewBox="0 0 396.3 229.1" enable-background="new 0 0 396.3 229.1" xml:space="preserve" preserveAspectRatio="xMidYMid meet">
  <g>
    <path fill="#3E3F3F" d="M389.7,115.8c-4.6,1-8.7,3.4-12.7,5.7c-3.5,2.1-4.7,1.1-5.8-2.4c-3.4-11.4-10.5-21.1-15.2-31.9c-1.6-3.8-9-5.9-12.8-4.3c-4.9,2-2.5,5.7-2,8.9c0.9,5.4-4.8,18.2-9.4,19.3c-4,0.9-6.3,2.8-6.5,6.2c-0.4,5.4-3.4,9.3-6,13.4c-4.8,7.4-12.4,10.8-21,9.2c-9.1-1.7-14.8-7.9-13.9-15.4c1.1-9.1,5.2-16.8,11.4-23.4c1.8-1.9,4-3.4,6.6-4.4c2-0.7,3.7-0.5,5.1,0.9c1.3,1.4,0.1,2.8-0.5,4.1c-0.9,2-1.9,3.8-2.1,6.1c-0.4,3.9,2.9,4.4,5.1,5.9c1.7,1.1,3.2,1.2,4.9-0.4c4.9-4.8,7.3-14,4.9-19.8c-2.4-5.9-8.4-9-16.5-8.7c-14,0.6-27.6,12.5-32.1,28.7c-1.9,6.8-5.5,12.4-9.3,18c-1.7,2.5-3.9,4.5-6.9,5.6c-3,1.1-4.2,0.9-3.5-2.9c1.4-8.2,4-16.1,7-23.9c2.1-5.5,3.7-11.1,4.3-16.9c0.4-4.2-2.4-8.5-6-9.3c-4.4-1-6.2,1.9-7.8,5.3c-4.5,9.5-8.7,19.2-10.5,29.5c-1.7,9.8-8,15.9-15.1,21.3c-5.7,4.3-10.9,1.3-11.2-5.8c-0.1-1.8,0.4-3.6,0.8-5.4c3.1-14,7.6-27.5,12.1-41.1c0.8-2.3,1.9-3.1,4.1-3.5c6.6-1,13.1-2.3,19.8-2.6c4.4-0.2,6.2-3.9,3.7-7.6c-1.9-2.8-4.8-4.1-8.1-4.3c-2.7-0.1-5.3,0-8,0.1c-5.7,0.3-5.8,0.3-4.1-5c1.7-5.7,2.6-11.4,1.5-17.3c-0.8-4.2-3.2-7.4-7.8-7.9c-4.4-0.5-6.7,2.4-8.2,5.9c-0.9,2.1-1.7,4.4-2.2,6.6c-1.3,6.1-4,11.6-6,17.4c-0.8,2.2-2,3-4.3,3.2c-5.3,0.4-10.6,1-15.9,1.6c-3.9,0.5-8,1.3-8.5,6.1c-0.5,4.9,3.6,6.8,7.2,8.5c3.2,1.5,6.5,0.7,9.9,0.4c1.6-0.1,3.1-1.3,4.8-0.4c-6,29.5-9.2,30.4-22.5,42c-0.6-2.4-0.1-4.6,0.2-6.9c1.1-7.6,2.2-15.2,3.6-22.7c1-5.1-2.9-6.9-6-8.5c-3.5-1.8-4.8,1.6-6.1,4.1c-2.7,5.3-5.3,10.7-8,16.1c-3.1,6.3-6.3,12.5-10.6,18c-3.4,4.4-11.1,7.4-14.6,5.3c-4.7-2.9-3.9-7.9-3.4-12.5c0-0.5,0.2-1,0.3-1.5c1.7-12.3,5.5-24,9.7-35.5c1.1-3,1.5-6.1-1.5-8.1c-3.1-2.1-6.3-1.6-9.3,0.6c-2.7,2-4.7,4.7-6.4,7.6c-7.8,13.7-10.5,28.6-10,44.2c0.1,3-0.9,4.4-3.6,5.5c-8.8,3.6-23.6-0.5-29-8.1c-1.2-1.7-0.1-2.8,0.5-4.1c8.6-17.8,14.2-36.5,16.1-56.3c0.3-3.4,1.9-4.8,5.4-5c5.5-0.3,11-0.8,16.4-1.8c14.6-2.8,27.5-9.2,37.2-20.7c6-7.1,8.3-15.4,3.5-24.1C159.9,8.7,152.2,5,142.5,5.9c-13.7,1.2-25.3,6.6-34.3,17.2c-5.8,6.9-11.3,13.9-15.2,22.2c-1.2,2.5-2.3,5.1-6,5.1c-9.1,0.2-17.5-1.7-24.9-7.2c-1.9-1.4-3.3-2.8-3.9-4.7V32h-4.3c-0.6-0.2-1-0.6-1.2-1.2v-3.3v-1.5v-2.8h-3h-3.7h-2.1v1.9V29V32h-6.7v0.1v4.2v2.8h2.2c1,1,2.1,1.9,3,2.9v4.3h4c2,0.6,3.2,2.6,4.7,4c7.5,6.9,16.2,11.6,26.2,13.6c3.4,0.7,8.9,0,9.8,1.8c1.3,2.7-0.4,7-1,10.6c-2.6,13.4-5.3,26.8-11.2,39.2c-2.9,6-4.4,6.5-9.9,3c-8.6-5.4-17.8-9.8-27.5-12.9c-5.3-1.7-10.6-2.9-16.2-2.5c-13.5,1-22,9.2-21.1,21c0.6,8,3.6,15.2,10.1,19.9c18.9,13.6,42.2,18.9,61.4,0.3c3.4-3.3,5.6-3.1,9.4,0c11.5,9.3,24.5,13.3,39.1,8.3c3-1,5.1-2,8,0.4c3.1,2.5,7.1,2.4,11,1.3c7.8-2.2,13.8-7.1,19.6-12.5c1-0.9,1.9-1.9,2.8-2.8c1-0.9,2-1.8,3.2-2.9c-1,10.2-5.4,18-12.1,25.1c-8.5,9-15.7,19-22,29.6c-2.5,4.2-4.6,8.4-5.8,13.2c-2.4,9.8,1.4,17.8,10.9,22.6c8.7,4.4,16.7,2.6,23.1-5.2c4.4-5.3,7.1-11.6,9.2-18.1c3.9-11.8,4.1-24.3,6-36.4c0.8-4.7,0.6-9.9,4.3-13.6c6.2-6.2,12.8-12,19.3-18.1c6.6,24.9,32.2,22.9,41.8,7.2c4.9,4.8,10,9.6,17.5,8.5c7.1-1,11.2-6.8,15.8-11.7c5.1,7.6,8.7,11.1,14.9,13.1c14.5,4.5,28,3.4,39.3-8c2.3-2.4,3.4-2.5,5.5,0.2c4.9,6.2,11.7,9.2,19.4,10.2c10.3,1.4,18.5-2.7,21.3-11.6c1.7-5.5,4.7-8.6,10.1-10.4c5.4-1.8,10.3-4.9,12.5-10.7C397.2,117.6,394.6,114.8,389.7,115.8z M139.7,20c4.5-1.7,9.5-2.9,13.7,0.8c2.3,2,0,8.5-4.6,13.2c-10.5,10.9-24.2,13.8-39.7,15.6C116.6,35.7,125.7,25.2,139.7,20z M44.2,37.2v-0.4v-4.5v-0.1v0v0h0h0.1h4.7v5.1H44.2z M59.2,136c-5.7,4.2-12.3,4.7-17,4.9c-11.5,0.3-19.6-2.9-25.6-10.6c-2.1-2.7-3.6-5.7-1.8-9.2c1.8-3.5,5-4.1,8.5-4c7.9,0.1,14.9,3.1,21.9,6.2c4.7,2.1,9.1,4.8,13.8,7C63.2,132.2,62,134,59.2,136z M153.5,201.6c-1.8,5.3-5.3,9.1-10.7,11c-1.7,0.6-3.7,1.2-5.1-0.3c-1.3-1.4-0.5-3.1,0-4.7c3.4-10.1,9.7-18.4,15.8-26.9c1.5-2.1,3.2-4.1,4.8-6.2C157.5,183.9,156.5,193,153.5,201.6z M348.7,111.3c1-1.4,1.6-1.6,3-0.2c2.6,2.8,7.2,11.2,8.1,15.6c-2.2,0.7-4.3,0.1-6.3-0.5C343.5,123.8,341.3,121.9,348.7,111.3z M360.6,140.3c-0.2,1.6-1.2,2.6-2.7,3.2c-3.8,1.5-11.8-1.1-14.2-4.8c-1-1.5-1.9-3-2-5.5c5.9,2.9,11,6,17.3,5.9C359.6,139.1,360.8,139.1,360.6,140.3z"/>
    <path fill="#3E3F3F" d="M261.8,74.1c7.6-1.7,12.1-7.3,12.1-16.6c-0.1-0.6-0.2-2.3-0.7-3.8c-1.3-4-4.2-5-7.1-1.9c-4.8,5.3-7.5,11.7-8.7,18.7C257.1,73.6,258.6,74.8,261.8,74.1z"/>
    <path fill="#3E3F3F" d="M34.1,32.1h2.8v-0.1c0,0,0,0,0,0c0-0.8,0-1.6,0-2.3v-1.4c0-0.3,0-0.5,0-0.8v-1.5h-6.1v6.1h2.3C33.4,32.1,33.8,32.1,34.1,32.1z"/>
    <path fill="#3E3F3F" d="M37,32.1C37,32.1,37,32.1,37,32.1c0.1,0,0.1-0.1,0.1-0.1c0,0-0.1,0-0.1,0C37,32,37,32,37,32.1C37,32.1,37,32.1,37,32.1z"/>
    <polygon fill="#3E3F3F" points="26.8,2.6 26.8,0 20.9,0 20.9,6 26.8,6 "/>
    <polygon fill="#3E3F3F" points="40.3,18.2 41.9,18.2 41.9,11.2 34.8,11.2 34.8,18.2 39.4,18.2 "/>
    <polygon fill="#3E3F3F" points="28.4,19.1 28.4,16.5 28.4,14 20.1,14 20.1,22.3 28.4,22.3 "/>
  </g>
</svg>