<svg width="14" height="14" viewBox="0 0 14 14" fill="none" xmlns="http://www.w3.org/2000/svg">
<path d="M9.95087 9.41985L13.1086 12.5776C13.2553 12.7242 13.2553 12.962 13.1086 13.1087C12.962 13.2553 12.7242 13.2553 12.5775 13.1087L9.41977 9.95094L9.95087 9.41985Z" stroke="#414141" stroke-width="0.885"/>
<path d="M5.93083 11.8615C2.65532 11.8615 0 9.20621 0 5.93075C0 2.65529 2.65532 0 5.93083 0C9.20634 0 11.8617 2.65529 11.8617 5.93075C11.8617 9.20621 9.20634 11.8615 5.93083 11.8615Z" fill="#414141"/>
<path fill-rule="evenodd" clip-rule="evenodd" d="M5.93081 10.6341C8.52863 10.6341 10.6346 8.52816 10.6346 5.93038C10.6346 3.3326 8.52863 1.22668 5.93081 1.22668C3.333 1.22668 1.22705 3.3326 1.22705 5.93038C1.22705 8.52816 3.333 10.6341 5.93081 10.6341Z" fill="white"/>
</svg>
