<?xml version="1.0" encoding="utf-8"?>
<svg version="1.1" id="Layer_1" xmlns="http://www.w3.org/2000/svg" xmlns:xlink="http://www.w3.org/1999/xlink" x="0px" y="0px"
	 viewBox="0 0 53 50.5" style="enable-background:new 0 0 53 50.5;" xml:space="preserve">
<style type="text/css">
	.st0{fill:#8A6FB2;}
</style>
<g>
	<g>
		<g>
			<g>
				<path class="st0" d="M23.7,26.8H21c-0.7,0-1.3,0.5-1.5,1.2l-1.3,5.7c1.8,0.1,3.5,0.3,5.1,0.5l1.4-6.2
					C24.8,27.3,24.4,26.8,23.7,26.8 M16.6,29.9h-2.7c-0.7,0-1.3,0.5-1.5,1.2l-0.6,2.5c0.4,0,0.9-0.1,1.3-0.1c1.3,0,2.6,0,3.8,0.1
					l0.6-2.5C17.6,30.5,17.2,29.9,16.6,29.9 M30.6,24.1h-2.7c-0.7,0-1.3,0.5-1.5,1.2l-2.1,9c1.8,0.3,3.5,0.6,4.9,1l2.4-10.1
					C31.6,24.6,31.2,24.1,30.6,24.1 M38,19.4h-2.7c-0.7,0-1.3,0.5-1.5,1.2l-3.5,15.1c1.9,0.6,3.5,1.2,4.7,1.8l4-17
					C39.1,19.9,38.7,19.4,38,19.4"/>
			</g>
		</g>
	</g>
	<g>
		<g>
			<path class="st0" d="M26.2,49.4c-11.8,0-21.3-9.6-21.3-21.3c0-11.8,9.6-21.3,21.3-21.3s21.3,9.6,21.3,21.3
				C47.6,39.9,38,49.4,26.2,49.4z M26.2,9.6C16,9.6,7.7,17.9,7.7,28.1c0,10.2,8.3,18.5,18.5,18.5s18.5-8.3,18.5-18.5
				C44.8,17.9,36.5,9.6,26.2,9.6z"/>
		</g>
	</g>
</g>
</svg>
