
<?xml version="1.0" standalone="no"?>
<!DOCTYPE svg PUBLIC "-//W3C//DTD SVG 20010904//EN"
 "http://www.w3.org/TR/2001/REC-SVG-20010904/DTD/svg10.dtd">
<svg version="1.0" xmlns="http://www.w3.org/2000/svg"
 width="800.000000pt" height="214.000000pt" viewBox="0 0 800.000000 214.000000"
 preserveAspectRatio="xMidYMid meet">
<metadata>
Created by potrace 1.16, written by Peter Selinger 2001-2019
</metadata>
<g transform="translate(0.000000,214.000000) scale(0.100000,-0.100000)"
fill="#000000" stroke="none">
<path d="M2710 1850 l0 -180 25 0 25 0 0 155 0 155 2535 0 2535 0 0 -905 0
-905 -2535 0 -2535 0 0 165 0 165 -25 0 -25 0 0 -195 0 -195 2590 0 2590 0 0
960 0 960 -2590 0 -2590 0 0 -180z"/>
<path d="M384 1444 c-28 -9 -74 -33 -102 -55 l-52 -39 0 45 0 45 -60 0 -60 0
0 -390 0 -390 60 0 60 0 0 262 0 262 26 37 c45 66 141 119 213 119 51 0 89
-15 124 -48 49 -47 57 -99 57 -379 l0 -253 60 0 60 0 0 264 0 264 47 52 c114
127 285 134 347 15 20 -37 21 -59 24 -317 l3 -278 65 0 66 0 -4 293 c-5 332
-10 357 -82 432 -103 108 -334 94 -452 -26 l-38 -39 -22 38 c-36 60 -107 93
-208 98 -55 2 -97 -1 -132 -12z"/>
<path d="M1743 1445 c-80 -22 -131 -52 -184 -106 -119 -122 -150 -311 -77
-466 33 -71 111 -148 186 -185 64 -32 71 -33 192 -33 119 0 128 1 190 31 205
97 288 343 185 550 -42 86 -102 144 -190 186 -53 24 -81 30 -157 34 -64 3
-110 -1 -145 -11z m243 -126 c51 -24 109 -81 137 -134 18 -32 22 -57 22 -130
0 -81 -3 -95 -30 -144 -59 -107 -157 -158 -281 -148 -235 18 -348 305 -191
483 86 97 230 128 343 73z"/>
<path d="M2654 1441 c-103 -25 -215 -125 -255 -228 -31 -79 -32 -244 -3 -315
47 -115 132 -193 247 -229 58 -18 86 -21 181 -17 98 4 121 8 169 32 55 26 57
29 57 67 0 44 -6 47 -52 19 -18 -10 -65 -27 -103 -36 -211 -49 -405 65 -439
259 l-7 37 330 0 331 0 -7 63 c-13 125 -72 245 -147 296 -76 53 -205 75 -302
52z m188 -83 c49 -15 123 -78 149 -129 10 -21 22 -59 26 -84 l6 -45 -286 0
-285 0 9 41 c20 87 85 168 164 205 57 27 151 32 217 12z"/>
<path d="M3550 1436 c-64 -18 -125 -51 -170 -93 l-40 -35 0 61 0 61 -40 0 -40
0 0 -385 0 -385 40 0 40 0 0 270 0 271 46 49 c106 114 260 152 375 92 46 -23
58 -36 84 -87 l30 -60 3 -267 4 -268 39 0 39 0 0 248 c0 137 -5 275 -11 307
-19 105 -66 171 -149 208 -56 25 -185 32 -250 13z"/>
<path d="M4387 1440 c-101 -26 -201 -108 -246 -205 -77 -165 -39 -373 90 -489
144 -129 395 -125 533 10 l39 38 -6 -79 c-8 -104 -23 -147 -69 -199 -51 -59
-121 -88 -226 -94 -95 -5 -182 9 -260 44 -30 13 -56 24 -58 24 -2 0 -4 -18 -4
-40 0 -39 2 -42 48 -61 81 -35 178 -51 277 -46 167 10 277 73 337 194 l33 68
3 412 3 413 -40 0 -41 0 0 -58 0 -58 -46 42 c-62 58 -137 85 -244 90 -47 2
-102 -1 -123 -6z m222 -85 c64 -22 130 -73 162 -123 28 -45 29 -49 29 -181 0
-115 -3 -141 -18 -166 -100 -162 -331 -204 -480 -86 -59 47 -107 135 -117 215
-9 70 16 165 58 225 35 50 110 105 161 120 49 14 159 12 205 -4z"/>
<path d="M5255 1436 c-27 -7 -71 -22 -97 -34 -47 -21 -48 -22 -48 -67 l0 -46
43 25 c72 42 150 59 246 54 119 -6 192 -46 220 -121 11 -29 16 -167 6 -167 -3
0 -24 9 -45 20 -106 54 -296 65 -393 22 -113 -50 -160 -117 -159 -228 1 -163
116 -251 320 -242 107 4 178 29 252 88 l39 31 15 -35 c21 -50 69 -77 131 -74
50 3 50 3 53 40 3 37 3 37 -30 32 -24 -4 -40 0 -58 14 l-25 20 -6 239 c-4 195
-9 245 -23 278 -21 49 -69 101 -116 125 -77 39 -224 51 -325 26z m198 -371
c37 -8 91 -27 120 -42 l52 -28 3 -66 3 -66 -51 -46 c-89 -80 -218 -113 -323
-83 -100 29 -156 101 -144 186 7 51 32 86 82 116 74 43 152 52 258 29z"/>
<path d="M6194 1441 c-148 -38 -259 -165 -284 -324 -28 -181 61 -356 220 -431
60 -28 73 -31 165 -30 121 1 189 23 260 86 l48 42 -5 -85 c-7 -134 -60 -211
-178 -260 -24 -9 -74 -14 -155 -14 -109 0 -126 3 -185 28 -103 45 -100 45
-100 -1 0 -38 2 -40 51 -62 250 -107 533 -37 621 155 23 49 23 56 26 468 l3
417 -41 0 -40 0 0 -56 0 -56 -41 37 c-68 61 -138 87 -243 91 -50 2 -105 0
-122 -5z m208 -81 c53 -15 127 -68 165 -118 l33 -44 0 -147 0 -148 -30 -41
c-112 -155 -345 -175 -483 -43 -82 77 -118 215 -87 326 25 88 108 177 197 210
45 16 153 19 205 5z"/>
<path d="M7117 1440 c-102 -26 -190 -102 -240 -208 -30 -63 -32 -74 -32 -182
0 -110 2 -119 32 -181 40 -80 111 -150 191 -187 105 -49 334 -41 420 14 17 11
22 24 22 54 0 22 -2 40 -4 40 -2 0 -26 -11 -53 -24 -107 -54 -254 -57 -358 -6
-87 42 -155 133 -170 228 l-7 42 328 0 327 0 -6 76 c-4 58 -14 93 -40 147 -63
132 -149 189 -292 193 -44 2 -97 -1 -118 -6z m213 -91 c25 -11 58 -32 73 -47
37 -34 75 -108 83 -161 l7 -41 -288 0 -287 0 7 33 c20 88 93 179 175 216 62
28 168 28 230 0z"/>
</g>
</svg>
