<?xml version="1.0" encoding="UTF-8"?>
<svg width="222px" height="80px" viewBox="0 0 222 80" version="1.1" xmlns="http://www.w3.org/2000/svg" xmlns:xlink="http://www.w3.org/1999/xlink">
    <defs>
        <path d="M0,0 L3.8,0 L3.8,0.658695652 L2.33333333,0.658695652 L2.33333333,4.5 L1.47407407,4.5 L1.47407407,0.658695652 L0,0.658695652 L0,0 Z M5.41030884,0 L6.70740741,3.29241943 L8.04794312,0 L9,0 L9,4.5 L8.17037037,4.5 L8.17037037,1.48695652 L6.97485352,4.5 L6.39266968,4.5 L5.24444444,1.50652174 L5.24444444,4.5 L4.41481481,4.5 L4.41481481,0 L5.41030884,0 Z" id="path-1"></path>
    </defs>
    <g id="monetate-logo-login" stroke="none" stroke-width="1" fill="none" fill-rule="evenodd">
        <g id="monetate-logo-(1)">
            <g id="Group" transform="translate(74.000000, 0.412356)">
                <path d="M38,38.5876439 L0,38.5876439 L0,0.587643939 C20.9983671,0.598872381 37.9887716,17.5898679 38,38.5876439" id="Fill-1" fill="#7D5F99"></path>
                <path d="M25.9230417,38.4831742 L64.3250278,38.4831742 L64.3250278,0 C43.1045278,0.0113712121 25.9343889,17.2184091 25.9230417,38.4831742" id="Fill-2" fill="#E2652C"></path>
            </g>
            <g id="registered-trademark" transform="translate(213.000000, 46.000000)">
                <g>
                    <mask id="mask-2" fill="white">
                        <use xlink:href="#path-1"></use>
                    </mask>
                    <use id="Combined-Shape" fill="#1A1919" fill-rule="nonzero" xlink:href="#path-1"></use>
                    <g id="Color/secondary/white" mask="url(#mask-2)" fill="#FFFFFF">
                        <g transform="translate(-1.500000, -4.500000)" id="Rectangle-Copy-6">
                            <rect x="0" y="0" width="11" height="11"></rect>
                        </g>
                    </g>
                </g>
            </g>
            <g id="Group-7" transform="translate(0.000000, 46.000000)" fill="#000000">
                <path d="M108.199944,18.0444621 L122.508792,18.0444621 C122.178528,14.5427273 119.439069,12.5551591 115.189236,12.5551591 C111.647708,12.5551591 108.955431,14.6851667 108.199944,18.0444621 Z M122.651528,24.528447 C123.973181,25.2855303 125.24825,26.0426136 126.5705,26.7530152 C124.587722,31.2009545 119.817708,32.9994015 115.330778,32.9994015 C107.775319,32.9994015 102.722222,28.0301818 102.722222,20.45875 C102.722222,12.6497197 107.680958,7.6805 115.189236,7.6805 C122.131347,7.6805 127.467528,12.3660379 127.610264,19.0858258 C127.514708,20.4114697 127.137264,21.5467955 127.042903,21.9723182 L108.058403,21.9250379 C108.719528,25.6643712 111.506167,28.1720227 115.283597,28.1720227 C117.598431,28.1720227 121.139958,27.5573788 122.651528,24.528447 L122.651528,24.528447 Z" id="Fill-6"></path>
                <path d="M133.089778,0.581871212 L138.427153,0.581871212 L138.427153,8.39090152 L142.724167,8.39090152 L142.724167,13.6432045 L138.427153,13.6432045 L138.427153,22.0195985 C138.427153,25.7583333 139.371361,26.9888182 142.441681,26.9888182 C142.818528,26.9888182 143.952056,26.9415379 144.235736,26.8948561 L144.235736,32.1471591 C143.433069,32.2417197 142.015861,32.3374773 141.165417,32.3374773 C135.451792,32.3374773 133.089778,28.8351439 133.089778,22.2093182 L133.089778,13.6432045 L129.78475,13.6432045 L129.78475,8.39090152 L133.089778,8.39090152 L133.089778,0.581871212" id="Fill-8"></path>
                <path d="M158.607292,27.8410606 C163.188583,27.8410606 165.360681,24.528447 165.360681,20.2696288 C165.360681,16.1514545 163.377306,12.8861212 158.654472,12.8861212 C154.310278,12.8861212 151.476458,15.9623333 151.476458,20.6472727 C151.476458,25.0485303 154.356861,27.8410606 158.607292,27.8410606 Z M157.049139,7.82234091 C160.307583,7.82234091 163.282944,9.10070455 165.3135,11.3719545 C165.455042,10.3784697 165.596583,9.38438636 165.690944,8.39090152 L170.696861,8.39090152 L170.696861,32.0525985 L165.690944,32.0525985 L165.360681,29.2133864 C163.471667,31.5797955 160.685028,32.7635985 157.615306,32.7635985 C151.570819,32.7635985 146.045917,28.1720227 146.045917,20.3169091 C146.045917,11.9399167 151.192778,7.82234091 157.049139,7.82234091 L157.049139,7.82234091 Z" id="Fill-9"></path>
                <path d="M177.243611,0.581871212 L182.580389,0.581871212 L182.580389,8.39090152 L186.877403,8.39090152 L186.877403,13.6432045 L182.580389,13.6432045 L182.580389,22.0195985 C182.580389,25.7583333 183.525194,26.9888182 186.594319,26.9888182 C186.972361,26.9888182 188.105292,26.9415379 188.389569,26.8948561 L188.389569,32.1471591 C187.586306,32.2417197 186.169097,32.3374773 185.31925,32.3374773 C179.605028,32.3374773 177.243611,28.8351439 177.243611,22.2093182 L177.243611,13.6432045 L173.937986,13.6432045 L173.937986,8.39090152 L177.243611,8.39090152 L177.243611,0.581871212" id="Fill-10"></path>
                <path d="M195.503681,18.0444621 L209.812528,18.0444621 C209.482861,14.5427273 206.743403,12.5551591 202.492972,12.5551591 C198.951444,12.5551591 196.259167,14.6851667 195.503681,18.0444621 Z M209.955264,24.528447 C211.276917,25.2855303 212.551986,26.0426136 213.874236,26.7530152 C211.891458,31.2009545 207.121444,32.9994015 202.634514,32.9994015 C195.079056,32.9994015 190.025958,28.0301818 190.025958,20.45875 C190.025958,12.6497197 194.984694,7.6805 202.492972,7.6805 C209.435083,7.6805 214.771264,12.3660379 214.914,19.0858258 C214.819042,20.4114697 214.441,21.5467955 214.347236,21.9723182 L195.362139,21.9250379 C196.023264,25.6643712 198.809903,28.1720227 202.587333,28.1720227 C204.902167,28.1720227 208.443694,27.5573788 209.955264,24.528447 L209.955264,24.528447 Z" id="Fill-12"></path>
                <path d="M89.2685972,7.86962121 C94.4166528,7.86962121 99.2177222,11.4671136 99.2177222,17.003697 L99.2177222,32.0525985 L93.7859861,32.0525985 L93.7859861,17.7607803 C93.7859861,14.6372879 90.3077639,12.9334015 87.6154861,12.9334015 C84.4514028,12.9334015 80.8632917,14.8736894 79.3989028,19.2755455 L79.3989028,32.0525985 L74.062125,32.0525985 L74.062125,8.39090152 L79.163,8.39090152 L79.3989028,12.6497197 C82.0434028,9.14858333 85.7276667,7.86962121 89.2685972,7.86962121" id="Fill-5"></path>
                <path d="M57.7191389,28.0457424 C53.174875,28.0445455 50.1224722,24.8624015 50.1224722,20.1289848 C50.1224722,15.6774545 53.1378472,12.6868258 57.6265694,12.6868258 L57.7364583,12.6910152 C62.2681806,12.6910152 65.3158056,15.680447 65.3158056,20.1289848 C65.3158056,24.8624015 62.2628056,28.0445455 57.7191389,28.0457424 Z M57.8111111,7.68289394 C57.7794583,7.68289394 57.7501944,7.68648485 57.7191389,7.68708333 C57.6874861,7.68648485 57.6582222,7.68289394 57.6265694,7.68289394 C50.1182917,7.68289394 44.892,12.6521136 44.892,20.4611439 C44.892,28.0158182 50.1899583,32.9778561 57.7191389,33 C65.2477222,32.9778561 70.5456806,28.0158182 70.5456806,20.4611439 C70.5456806,12.6521136 65.3193889,7.68289394 57.8111111,7.68289394 L57.8111111,7.68289394 Z" id="Fill-13"></path>
                <path d="M14.6391111,7.91690152 C18.5120972,7.91690152 21.4402778,9.80990909 22.6203889,13.1704015 C25.0767639,9.57350758 29.2322361,7.86962121 32.7265833,7.86962121 C37.8752361,7.86962121 41.3224028,11.3719545 41.3224028,16.9085379 L41.3224028,32.0525985 L35.9384444,32.0525985 L35.9384444,17.6662197 C35.9384444,14.5427273 33.76575,12.9334015 31.0740694,12.9334015 C28.0049444,12.9334015 23.6595556,15.7732121 23.3292917,19.9374697 L23.3292917,32.0525985 L17.89875,32.0525985 L17.89875,17.6662197 C17.89875,14.5427273 15.7732361,12.9334015 13.0815556,12.9334015 C10.0118333,12.9334015 6.56347222,15.1585682 5.33618056,19.3234242 L5.33618056,32.0525985 L0,32.0525985 L0,8.39090152 L5.33618056,8.39090152 L5.33618056,12.6024394 C7.745375,9.47894697 11.2397222,7.91690152 14.6391111,7.91690152" id="Fill-4"></path>
            </g>
        </g>
    </g>
</svg> 