<svg width="18" height="18" viewBox="0 0 18 18" fill="none" xmlns="http://www.w3.org/2000/svg">
<path d="M8.99984 17.3337C6.7891 17.3356 4.66832 16.4583 3.10509 14.8951C1.54185 13.3318 0.664518 11.2111 0.666507 9.00032V8.83366C0.734664 5.49384 2.78967 2.51712 5.88848 1.26954C8.98728 0.0219592 12.5316 0.744399 14.8948 3.10532C17.2802 5.48872 17.9941 9.07477 16.7035 12.19C15.4128 15.3053 12.3719 17.3356 8.99984 17.3337ZM8.99984 10.1753L11.1582 12.3337L12.3332 11.1587L10.1748 9.00032L12.3332 6.84199L11.1582 5.66699L8.99984 7.82532L6.84151 5.66699L5.66651 6.84199L7.82484 9.00032L5.66651 11.1587L6.84151 12.3337L8.99984 10.1762V10.1753Z" fill="#CA4139"/>
</svg>
