<?xml version="1.0" standalone="no"?>
<!DOCTYPE svg PUBLIC "-//W3C//DTD SVG 20010904//EN"
 "http://www.w3.org/TR/2001/REC-SVG-20010904/DTD/svg10.dtd">
<svg version="1.0" xmlns="http://www.w3.org/2000/svg"
 width="804.000000pt" height="262.000000pt" viewBox="0 0 804.000000 262.000000"
 preserveAspectRatio="xMidYMid meet">

<g transform="translate(0.000000,262.000000) scale(0.100000,-0.100000)"
fill="#000000" stroke="none">
<path d="M6338 2400 c-67 -20 -128 -98 -128 -164 0 -61 35 -122 86 -152 87
-51 215 -19 259 66 19 36 19 110 1 153 -32 78 -133 123 -218 97z"/>
<path d="M4670 2060 l0 -170 -100 0 -100 0 0 -125 0 -124 98 -3 97 -3 0 -265
c0 -146 4 -278 9 -295 50 -169 175 -245 402 -245 155 0 144 -10 144 139 l0
126 -78 0 c-70 0 -82 3 -115 28 -53 40 -58 71 -55 307 l3 205 123 3 122 3 0
124 0 125 -125 0 -125 0 0 170 0 170 -150 0 -150 0 0 -170z"/>
<path d="M675 1910 c-279 -50 -475 -270 -475 -533 0 -287 206 -513 500 -550
268 -33 537 148 606 408 19 69 18 209 -2 276 -39 131 -154 278 -261 333 -119
60 -260 85 -368 66z m200 -304 c60 -28 127 -99 143 -154 28 -92 10 -178 -50
-247 -128 -146 -361 -120 -451 49 -30 58 -30 174 0 232 67 126 230 180 358
120z"/>
<path d="M3764 1900 c-112 -16 -205 -57 -278 -121 -132 -116 -193 -301 -166
-498 19 -142 77 -251 176 -333 97 -80 216 -118 372 -118 158 0 280 43 378 132
52 48 114 147 114 182 0 21 -20 25 -167 28 l-132 2 -23 -34 c-35 -53 -88 -75
-178 -74 -57 0 -85 5 -117 22 -51 27 -93 85 -100 141 l-6 41 369 2 369 3 -2
114 c-3 131 -19 198 -69 288 -93 167 -310 257 -540 223z m172 -235 c71 -21
113 -73 129 -158 l7 -37 -217 0 -218 0 6 41 c17 126 150 197 293 154z"/>
<path d="M7215 1900 c-67 -11 -161 -47 -211 -81 -132 -90 -214 -263 -214 -449
1 -296 170 -502 443 -540 124 -18 281 19 352 81 18 16 35 29 39 29 3 0 6 -20
6 -45 l0 -45 140 0 140 0 0 520 0 520 -140 0 -140 0 0 -50 c0 -27 -3 -50 -6
-50 -3 0 -24 16 -47 35 -72 62 -237 96 -362 75z m255 -267 c45 -18 86 -57 113
-108 19 -35 22 -56 22 -161 0 -117 -1 -122 -30 -170 -19 -30 -49 -60 -79 -79
-45 -27 -57 -30 -135 -30 -100 0 -149 20 -200 82 -89 107 -79 330 17 420 75
69 191 88 292 46z"/>
<path d="M1520 1360 l0 -530 150 0 150 0 0 308 c0 185 4 322 11 345 43 156
260 184 337 43 15 -27 17 -72 20 -363 l3 -333 149 0 149 0 3 328 3 327 25 44
c66 118 255 121 314 6 20 -38 21 -60 24 -367 l3 -328 150 0 150 0 -3 383 -3
383 -38 76 c-44 90 -103 147 -186 180 -47 19 -75 22 -171 22 -146 0 -206 -21
-284 -99 l-53 -52 -44 45 c-79 80 -195 119 -330 109 -87 -6 -163 -35 -205 -78
-15 -16 -31 -29 -36 -29 -4 0 -8 25 -8 55 l0 55 -140 0 -140 0 0 -530z"/>
<path d="M5911 1864 c-54 -14 -109 -49 -143 -89 -17 -19 -17 -18 -18 38 l0 57
-145 0 -145 0 0 -520 0 -520 150 0 150 0 0 284 c0 314 5 344 62 403 37 39 106
69 176 79 l52 7 0 138 0 139 -42 -1 c-24 0 -67 -7 -97 -15z"/>
<path d="M6247 1873 c-4 -3 -7 -237 -7 -520 l0 -513 150 0 150 0 0 514 c0 459
-2 515 -16 520 -21 8 -269 8 -277 -1z"/>
<path d="M202 608 c-11 -24 -42 -80 -67 -126 l-46 -83 68 -31 c74 -34 199 -78
219 -78 7 0 18 19 24 43 14 56 30 116 41 147 4 14 10 39 14 56 6 29 4 31 -37
43 -24 7 -72 26 -107 42 -35 16 -69 29 -75 29 -7 0 -22 -19 -34 -42z"/>
</g>
</svg>
