<svg width="20" height="20" viewBox="0 0 24 24" fill="none" xmlns="http://www.w3.org/2000/svg">
  <path
    d="M17.5953 21.006H17.5673C13.7257 20.9114 10.0596 19.3775 7.29534 16.708C4.62486 13.9462 3.09004 10.2816 2.99523 6.441C2.98957 5.903 3.20081 5.38536 3.58134 5.005L6.29534 2.293C6.68584 1.90262 7.31884 1.90262 7.70934 2.293L11.7093 6.293C12.0997 6.6835 12.0997 7.3165 11.7093 7.707L10.1133 9.3C10.4094 10.4059 10.9546 11.4294 11.7073 12.292C12.5684 13.045 13.5906 13.5906 14.6953 13.887L16.2953 12.293C16.6858 11.9026 17.3188 11.9026 17.7093 12.293L21.7093 16.293C22.0997 16.6835 22.0997 17.3165 21.7093 17.707L18.9953 20.42C18.6253 20.7939 18.1214 21.0048 17.5953 21.006ZM7.00034 4.415H6.99534L4.99534 6.419C5.07689 9.73766 6.40166 12.9047 8.70734 15.293C11.0958 17.5979 14.2622 18.9225 17.5803 19.005L19.5873 17L16.9953 14.415L15.7023 15.707C15.5174 15.894 15.2654 15.9995 15.0023 16C14.9321 16 14.862 15.9927 14.7933 15.978C13.127 15.6094 11.5797 14.8285 10.2933 13.707C9.1718 12.4206 8.39095 10.8734 8.02234 9.207C7.95281 8.87577 8.05553 8.53184 8.29534 8.293L9.58734 7L7.00034 4.415Z"
    fill="black" />
</svg>