<svg width="18" height="18" viewBox="0 0 18 18" fill="none" xmlns="http://www.w3.org/2000/svg">
<path d="M9.00033 17.3334C4.39795 17.3334 0.666992 13.6025 0.666992 9.00008C0.666992 4.39771 4.39795 0.666748 9.00033 0.666748C13.6027 0.666748 17.3337 4.39771 17.3337 9.00008C17.3286 13.6004 13.6006 17.3284 9.00033 17.3334ZM2.33366 9.14342C2.37309 12.8111 5.36792 15.758 9.03577 15.7384C12.7036 15.7186 15.6666 12.7397 15.6666 9.07175C15.6666 5.40384 12.7036 2.42489 9.03577 2.40508C5.36792 2.38546 2.37309 5.33238 2.33366 9.00008V9.14342ZM7.33366 12.7501V5.25008L12.3337 9.00008L7.33366 12.7501Z" fill="#2E3A59"/>
</svg>
