<svg version="1.0" xmlns="http://www.w3.org/2000/svg"
 width="1200.000000pt" height="364.000000pt" viewBox="0 0 1200.000000 364.000000"
 preserveAspectRatio="xMidYMid meet">

<g transform="translate(0.000000,364.000000) scale(0.100000,-0.100000)"
fill="#000000" stroke="none">
<path d="M1026 3630 c-108 -14 -204 -38 -291 -73 -241 -98 -398 -296 -459
-579 l-6 -27 -132 -3 -131 -3 262 -223 c145 -123 268 -221 274 -219 7 3 134
104 282 224 l270 218 -147 3 -148 3 0 27 c0 47 54 145 105 190 62 54 139 82
247 89 251 17 425 -100 483 -324 30 -116 10 -295 -46 -404 -31 -63 -124 -155
-184 -185 -118 -57 -120 -57 -647 -61 l-488 -4 0 -730 0 -729 265 0 265 0 0
551 0 552 49 -6 c69 -8 125 -39 200 -111 95 -91 152 -173 416 -598 l240 -388
293 0 c160 0 292 2 292 5 0 9 -473 765 -552 884 -88 131 -128 184 -179 238
-22 23 -36 44 -32 46 5 2 33 12 63 22 220 71 424 249 516 449 107 234 91 577
-37 793 -49 82 -162 191 -250 240 -90 51 -223 97 -344 118 -108 19 -353 27
-449 15z"/>
<path d="M9380 2150 l0 -1330 245 0 245 0 0 1330 0 1330 -245 0 -245 0 0
-1330z"/>
<path d="M3013 2675 c-273 -49 -496 -213 -618 -455 -93 -183 -126 -426 -90
-660 19 -126 47 -216 103 -325 37 -73 64 -108 142 -186 84 -84 108 -102 200
-148 119 -58 214 -85 362 -101 170 -19 407 6 567 60 63 21 194 82 219 102 9 8
-5 44 -64 157 -42 80 -80 150 -84 154 -3 4 -40 -8 -81 -28 -126 -59 -214 -78
-374 -79 -156 0 -208 13 -302 78 -85 58 -157 193 -170 317 l-6 59 571 0 570 0
8 67 c9 86 -1 267 -22 373 -52 277 -201 479 -416 567 -144 58 -351 78 -515 48z
m314 -381 c91 -46 147 -148 155 -279 l3 -50 -334 -3 -334 -2 6 43 c15 109 76
216 154 271 92 64 246 73 350 20z"/>
<path d="M4940 2675 c-229 -42 -373 -117 -518 -270 -176 -185 -260 -466 -231
-773 16 -180 71 -343 157 -468 50 -74 159 -180 236 -229 266 -170 691 -190
974 -45 42 21 89 47 103 57 l27 18 -74 154 c-41 85 -76 156 -78 158 -1 2 -28
-12 -59 -30 -95 -58 -186 -81 -312 -82 -104 0 -114 2 -180 33 -118 56 -191
142 -242 287 -27 77 -28 88 -28 265 1 173 2 190 27 262 46 138 126 235 236
286 118 55 333 38 484 -38 33 -16 63 -28 67 -26 15 10 153 305 146 315 -10 17
-95 58 -178 86 -157 52 -393 69 -557 40z"/>
<path d="M8756 2665 c-119 -30 -243 -120 -313 -227 l-28 -42 -3 117 -3 117
-244 0 -245 0 0 -905 0 -905 245 0 245 0 0 573 0 573 31 49 c46 73 130 149
204 186 79 39 188 49 270 26 28 -8 56 -16 64 -18 10 -3 29 49 72 205 32 115
56 213 53 217 -10 17 -113 40 -199 44 -61 3 -109 0 -149 -10z"/>
<path d="M5962 1913 l3 -718 26 -77 c64 -186 179 -288 366 -324 246 -47 481
25 661 202 34 34 62 61 62 59 0 -19 23 -169 31 -197 l10 -38 240 0 241 0 -6
36 c-35 184 -38 264 -43 1017 l-5 757 -244 0 -244 0 0 -584 0 -585 -64 -63
c-147 -146 -306 -192 -438 -125 -47 24 -82 69 -98 126 -6 22 -10 264 -10 634
l0 597 -245 0 -246 0 3 -717z"/>
<path d="M10143 2613 c2 -10 156 -382 342 -828 186 -445 338 -818 337 -829 0
-10 -17 -71 -37 -135 -72 -230 -151 -353 -263 -408 -54 -26 -65 -28 -187 -28
-71 0 -146 3 -165 7 l-35 8 -32 -172 c-18 -95 -31 -173 -29 -175 1 -1 31 -10
67 -20 49 -14 103 -18 229 -18 141 0 176 3 243 23 245 70 409 224 552 517 55
112 825 2045 825 2070 0 3 -123 5 -272 5 l-273 0 -169 -578 c-93 -317 -172
-583 -175 -589 -4 -7 -101 253 -216 577 l-210 590 -269 0 c-251 0 -268 -1
-263 -17z"/>
</g>
</svg>
