<?xml version="1.0" encoding="UTF-8"?>
<svg xmlns="http://www.w3.org/2000/svg" xmlns:xlink="http://www.w3.org/1999/xlink" width="33pt" height="24pt" viewBox="0 0 33 24" version="1.1">
<g id="surface1">
<path style=" stroke:none;fill-rule:nonzero;fill:rgb(0%,63.137255%,87.843137%);fill-opacity:1;" d="M 13.796875 2.621094 C 14.863281 1.472656 16.351562 0.765625 17.996094 0.765625 C 20.183594 0.765625 22.089844 2.019531 23.105469 3.882812 C 23.984375 3.472656 24.964844 3.25 25.992188 3.25 C 29.933594 3.25 33.128906 6.570312 33.128906 10.667969 C 33.128906 14.761719 29.933594 18.082031 25.992188 18.082031 C 25.511719 18.082031 25.042969 18.03125 24.585938 17.9375 C 23.691406 19.578125 21.984375 20.691406 20.03125 20.691406 C 19.210938 20.691406 18.4375 20.496094 17.746094 20.148438 C 16.839844 22.34375 14.730469 23.886719 12.265625 23.886719 C 9.703125 23.886719 7.519531 22.214844 6.679688 19.871094 C 6.3125 19.949219 5.933594 19.992188 5.542969 19.992188 C 2.492188 19.992188 0.015625 17.417969 0.015625 14.242188 C 0.015625 12.113281 1.128906 10.257812 2.78125 9.261719 C 2.441406 8.457031 2.25 7.566406 2.25 6.628906 C 2.25 2.980469 5.128906 0.0195312 8.683594 0.0195312 C 10.765625 0.0195312 12.621094 1.035156 13.796875 2.621094 "/>
<path style=" stroke:none;fill-rule:nonzero;fill:rgb(100%,100%,100%);fill-opacity:1;" d="M 4.8125 12.394531 C 4.789062 12.449219 4.820312 12.464844 4.828125 12.472656 C 4.886719 12.519531 4.953125 12.550781 5.015625 12.589844 C 5.355469 12.773438 5.675781 12.824219 6.003906 12.824219 C 6.683594 12.824219 7.105469 12.453125 7.105469 11.855469 L 7.105469 11.84375 C 7.105469 11.292969 6.632812 11.089844 6.183594 10.945312 L 6.125 10.925781 C 5.789062 10.8125 5.5 10.714844 5.5 10.488281 L 5.5 10.472656 C 5.5 10.28125 5.667969 10.136719 5.933594 10.136719 C 6.222656 10.136719 6.570312 10.238281 6.796875 10.363281 C 6.796875 10.363281 6.859375 10.40625 6.886719 10.339844 C 6.898438 10.308594 7.011719 9.992188 7.023438 9.957031 C 7.035156 9.921875 7.011719 9.894531 6.988281 9.878906 C 6.734375 9.722656 6.382812 9.613281 6.015625 9.613281 L 5.949219 9.613281 C 5.328125 9.613281 4.894531 10 4.894531 10.550781 L 4.894531 10.566406 C 4.894531 11.148438 5.371094 11.339844 5.820312 11.46875 L 5.894531 11.492188 C 6.222656 11.597656 6.503906 11.683594 6.503906 11.921875 L 6.503906 11.933594 C 6.503906 12.148438 6.320312 12.308594 6.023438 12.308594 C 5.90625 12.308594 5.542969 12.308594 5.148438 12.050781 C 5.101562 12.023438 5.074219 12.003906 5.035156 11.980469 C 5.015625 11.96875 4.96875 11.945312 4.945312 12.011719 Z M 4.8125 12.394531 "/>
<path style=" stroke:none;fill-rule:nonzero;fill:rgb(100%,100%,100%);fill-opacity:1;" d="M 14.757812 12.394531 C 14.734375 12.449219 14.765625 12.464844 14.773438 12.472656 C 14.832031 12.519531 14.894531 12.550781 14.960938 12.589844 C 15.300781 12.773438 15.617188 12.824219 15.949219 12.824219 C 16.628906 12.824219 17.050781 12.453125 17.050781 11.855469 L 17.050781 11.84375 C 17.050781 11.292969 16.578125 11.089844 16.128906 10.945312 L 16.070312 10.925781 C 15.734375 10.8125 15.441406 10.714844 15.441406 10.488281 L 15.441406 10.472656 C 15.441406 10.28125 15.613281 10.136719 15.878906 10.136719 C 16.167969 10.136719 16.515625 10.238281 16.742188 10.363281 C 16.742188 10.363281 16.804688 10.40625 16.828125 10.339844 C 16.839844 10.308594 16.957031 9.992188 16.96875 9.957031 C 16.980469 9.921875 16.957031 9.894531 16.933594 9.878906 C 16.679688 9.722656 16.328125 9.613281 15.960938 9.613281 L 15.894531 9.613281 C 15.269531 9.613281 14.839844 10 14.839844 10.550781 L 14.839844 10.566406 C 14.839844 11.148438 15.316406 11.339844 15.765625 11.46875 L 15.835938 11.492188 C 16.164062 11.597656 16.445312 11.683594 16.445312 11.921875 L 16.445312 11.933594 C 16.445312 12.148438 16.261719 12.308594 15.964844 12.308594 C 15.851562 12.308594 15.484375 12.308594 15.09375 12.050781 C 15.046875 12.023438 15.015625 12.003906 14.980469 11.980469 C 14.96875 11.972656 14.910156 11.949219 14.890625 12.011719 Z M 14.757812 12.394531 "/>
<path style=" stroke:none;fill-rule:nonzero;fill:rgb(100%,100%,100%);fill-opacity:1;" d="M 21.546875 11.222656 C 21.546875 11.558594 21.484375 11.828125 21.363281 12.015625 C 21.242188 12.203125 21.0625 12.292969 20.8125 12.292969 C 20.558594 12.292969 20.378906 12.203125 20.261719 12.015625 C 20.144531 11.828125 20.085938 11.558594 20.085938 11.222656 C 20.085938 10.882812 20.144531 10.617188 20.261719 10.429688 C 20.378906 10.246094 20.558594 10.152344 20.8125 10.152344 C 21.0625 10.152344 21.242188 10.246094 21.363281 10.429688 C 21.484375 10.617188 21.546875 10.882812 21.546875 11.222656 M 22.113281 10.59375 C 22.058594 10.402344 21.96875 10.226562 21.855469 10.085938 C 21.738281 9.941406 21.59375 9.828125 21.417969 9.746094 C 21.246094 9.660156 21.042969 9.621094 20.8125 9.621094 C 20.582031 9.621094 20.378906 9.660156 20.203125 9.746094 C 20.03125 9.828125 19.882812 9.941406 19.765625 10.085938 C 19.652344 10.230469 19.566406 10.402344 19.507812 10.59375 C 19.453125 10.785156 19.429688 10.996094 19.429688 11.222656 C 19.429688 11.445312 19.453125 11.65625 19.507812 11.847656 C 19.566406 12.042969 19.652344 12.214844 19.765625 12.355469 C 19.882812 12.496094 20.03125 12.613281 20.203125 12.695312 C 20.378906 12.773438 20.582031 12.816406 20.8125 12.816406 C 21.042969 12.816406 21.246094 12.773438 21.417969 12.695312 C 21.59375 12.613281 21.738281 12.496094 21.855469 12.355469 C 21.96875 12.214844 22.058594 12.042969 22.113281 11.847656 C 22.167969 11.652344 22.195312 11.441406 22.195312 11.222656 C 22.195312 10.996094 22.167969 10.785156 22.113281 10.59375 "/>
<path style=" stroke:none;fill-rule:nonzero;fill:rgb(100%,100%,100%);fill-opacity:1;" d="M 26.769531 12.203125 C 26.75 12.144531 26.695312 12.167969 26.695312 12.167969 C 26.613281 12.199219 26.527344 12.230469 26.429688 12.242188 C 26.339844 12.257812 26.234375 12.265625 26.121094 12.265625 C 25.847656 12.265625 25.628906 12.183594 25.472656 12.019531 C 25.316406 11.851562 25.230469 11.582031 25.230469 11.21875 C 25.230469 10.886719 25.308594 10.636719 25.449219 10.449219 C 25.585938 10.261719 25.796875 10.164062 26.078125 10.164062 C 26.3125 10.164062 26.488281 10.191406 26.675781 10.253906 C 26.675781 10.253906 26.71875 10.269531 26.742188 10.214844 C 26.792969 10.070312 26.828125 9.96875 26.878906 9.816406 C 26.894531 9.769531 26.859375 9.75 26.847656 9.746094 C 26.769531 9.714844 26.597656 9.667969 26.46875 9.648438 C 26.34375 9.628906 26.203125 9.617188 26.042969 9.617188 C 25.804688 9.617188 25.589844 9.660156 25.410156 9.742188 C 25.230469 9.824219 25.078125 9.941406 24.953125 10.082031 C 24.832031 10.222656 24.738281 10.398438 24.675781 10.589844 C 24.617188 10.785156 24.585938 10.996094 24.585938 11.21875 C 24.585938 11.703125 24.710938 12.09375 24.960938 12.378906 C 25.214844 12.667969 25.589844 12.816406 26.082031 12.816406 C 26.371094 12.816406 26.671875 12.753906 26.886719 12.667969 C 26.886719 12.667969 26.925781 12.648438 26.910156 12.597656 Z M 26.769531 12.203125 "/>
<path style=" stroke:none;fill-rule:nonzero;fill:rgb(100%,100%,100%);fill-opacity:1;" d="M 27.761719 10.894531 C 27.785156 10.707031 27.839844 10.550781 27.917969 10.429688 C 28.035156 10.246094 28.210938 10.144531 28.464844 10.144531 C 28.714844 10.144531 28.882812 10.246094 29 10.429688 C 29.082031 10.550781 29.117188 10.714844 29.128906 10.894531 Z M 29.667969 10.480469 C 29.621094 10.292969 29.5 10.105469 29.425781 10.019531 C 29.300781 9.886719 29.179688 9.789062 29.058594 9.734375 C 28.902344 9.664062 28.714844 9.621094 28.507812 9.621094 C 28.269531 9.621094 28.050781 9.660156 27.875 9.746094 C 27.699219 9.832031 27.550781 9.949219 27.4375 10.09375 C 27.316406 10.238281 27.230469 10.410156 27.175781 10.609375 C 27.121094 10.800781 27.089844 11.015625 27.089844 11.238281 C 27.089844 11.464844 27.121094 11.675781 27.175781 11.867188 C 27.238281 12.0625 27.328125 12.230469 27.457031 12.371094 C 27.582031 12.511719 27.742188 12.625 27.9375 12.699219 C 28.132812 12.777344 28.363281 12.816406 28.636719 12.816406 C 29.1875 12.816406 29.480469 12.6875 29.601562 12.617188 C 29.621094 12.605469 29.644531 12.585938 29.617188 12.523438 L 29.492188 12.160156 C 29.472656 12.109375 29.421875 12.128906 29.421875 12.128906 C 29.28125 12.183594 29.085938 12.277344 28.632812 12.277344 C 28.332031 12.273438 28.113281 12.183594 27.976562 12.042969 C 27.832031 11.898438 27.765625 11.683594 27.753906 11.386719 L 29.671875 11.386719 C 29.671875 11.386719 29.71875 11.386719 29.726562 11.335938 C 29.730469 11.316406 29.792969 10.925781 29.667969 10.480469 Z M 29.667969 10.480469 "/>
<path style=" stroke:none;fill-rule:nonzero;fill:rgb(100%,100%,100%);fill-opacity:1;" d="M 12.390625 10.894531 C 12.414062 10.707031 12.46875 10.550781 12.546875 10.429688 C 12.660156 10.246094 12.839844 10.144531 13.09375 10.144531 C 13.34375 10.144531 13.511719 10.246094 13.628906 10.429688 C 13.710938 10.550781 13.746094 10.714844 13.757812 10.894531 Z M 14.296875 10.480469 C 14.25 10.292969 14.128906 10.105469 14.054688 10.019531 C 13.929688 9.886719 13.808594 9.789062 13.6875 9.734375 C 13.53125 9.664062 13.34375 9.621094 13.136719 9.621094 C 12.898438 9.621094 12.679688 9.660156 12.503906 9.746094 C 12.328125 9.832031 12.179688 9.949219 12.0625 10.09375 C 11.945312 10.238281 11.859375 10.410156 11.804688 10.609375 C 11.75 10.800781 11.71875 11.015625 11.71875 11.238281 C 11.71875 11.464844 11.75 11.675781 11.804688 11.867188 C 11.863281 12.0625 11.957031 12.230469 12.085938 12.371094 C 12.207031 12.511719 12.371094 12.625 12.566406 12.699219 C 12.757812 12.777344 12.996094 12.816406 13.265625 12.816406 C 13.816406 12.816406 14.109375 12.6875 14.230469 12.617188 C 14.25 12.605469 14.273438 12.585938 14.246094 12.523438 L 14.121094 12.160156 C 14.101562 12.109375 14.046875 12.128906 14.046875 12.128906 C 13.910156 12.183594 13.714844 12.277344 13.257812 12.277344 C 12.960938 12.273438 12.742188 12.183594 12.601562 12.042969 C 12.460938 11.898438 12.394531 11.683594 12.382812 11.386719 L 14.300781 11.386719 C 14.300781 11.386719 14.347656 11.386719 14.355469 11.335938 C 14.359375 11.316406 14.421875 10.925781 14.296875 10.480469 Z M 14.296875 10.480469 "/>
<path style=" stroke:none;fill-rule:nonzero;fill:rgb(100%,100%,100%);fill-opacity:1;" d="M 8.242188 12.191406 C 8.164062 12.128906 8.15625 12.113281 8.128906 12.074219 C 8.089844 12.011719 8.074219 11.925781 8.074219 11.816406 C 8.074219 11.644531 8.128906 11.515625 8.242188 11.433594 C 8.242188 11.433594 8.40625 11.285156 8.800781 11.292969 C 9.074219 11.292969 9.320312 11.339844 9.320312 11.339844 L 9.320312 12.234375 L 9.324219 12.234375 C 9.324219 12.234375 9.078125 12.289062 8.800781 12.308594 C 8.414062 12.332031 8.238281 12.191406 8.242188 12.191406 M 9.003906 10.800781 C 8.925781 10.796875 8.824219 10.792969 8.703125 10.792969 C 8.539062 10.792969 8.382812 10.8125 8.230469 10.855469 C 8.082031 10.894531 7.949219 10.960938 7.832031 11.046875 C 7.714844 11.132812 7.621094 11.242188 7.554688 11.371094 C 7.484375 11.503906 7.449219 11.65625 7.449219 11.828125 C 7.449219 12.003906 7.476562 12.15625 7.539062 12.277344 C 7.597656 12.402344 7.679688 12.511719 7.789062 12.589844 C 7.894531 12.667969 8.027344 12.726562 8.179688 12.761719 C 8.328125 12.800781 8.5 12.816406 8.6875 12.816406 C 8.886719 12.816406 9.082031 12.800781 9.269531 12.769531 C 9.457031 12.730469 9.691406 12.683594 9.753906 12.671875 C 9.816406 12.652344 9.890625 12.636719 9.890625 12.636719 C 9.9375 12.625 9.933594 12.570312 9.933594 12.570312 L 9.933594 10.761719 C 9.933594 10.363281 9.828125 10.074219 9.628906 9.890625 C 9.425781 9.707031 9.128906 9.617188 8.746094 9.617188 C 8.601562 9.617188 8.371094 9.636719 8.230469 9.664062 C 8.230469 9.664062 7.8125 9.75 7.640625 9.886719 C 7.640625 9.886719 7.601562 9.914062 7.621094 9.964844 L 7.757812 10.339844 C 7.773438 10.390625 7.820312 10.375 7.820312 10.375 C 7.820312 10.375 7.835938 10.367188 7.851562 10.359375 C 8.21875 10.152344 8.6875 10.15625 8.6875 10.15625 C 8.898438 10.15625 9.054688 10.199219 9.160156 10.285156 C 9.269531 10.367188 9.320312 10.496094 9.320312 10.757812 L 9.320312 10.839844 C 9.15625 10.816406 9.003906 10.800781 9.003906 10.800781 "/>
<path style=" stroke:none;fill-rule:nonzero;fill:rgb(100%,100%,100%);fill-opacity:1;" d="M 24.484375 9.78125 C 24.5 9.738281 24.46875 9.71875 24.453125 9.710938 C 24.421875 9.699219 24.257812 9.664062 24.136719 9.65625 C 23.894531 9.640625 23.757812 9.683594 23.640625 9.738281 C 23.519531 9.792969 23.386719 9.882812 23.316406 9.984375 L 23.316406 9.746094 C 23.316406 9.707031 23.292969 9.683594 23.261719 9.683594 L 22.769531 9.683594 C 22.738281 9.683594 22.714844 9.707031 22.714844 9.746094 L 22.714844 12.691406 C 22.714844 12.722656 22.738281 12.753906 22.773438 12.753906 L 23.273438 12.753906 C 23.308594 12.753906 23.332031 12.722656 23.332031 12.691406 L 23.332031 11.21875 C 23.332031 11.019531 23.355469 10.824219 23.394531 10.699219 C 23.4375 10.578125 23.496094 10.480469 23.566406 10.410156 C 23.632812 10.339844 23.714844 10.289062 23.800781 10.261719 C 23.890625 10.234375 23.988281 10.222656 24.0625 10.222656 C 24.160156 10.222656 24.269531 10.25 24.269531 10.25 C 24.308594 10.257812 24.328125 10.234375 24.339844 10.199219 C 24.375 10.105469 24.464844 9.839844 24.484375 9.78125 "/>
<path style=" stroke:none;fill-rule:nonzero;fill:rgb(100%,100%,100%);fill-opacity:1;" d="M 19.75 8.417969 C 19.691406 8.394531 19.636719 8.386719 19.5625 8.371094 C 19.488281 8.359375 19.398438 8.347656 19.300781 8.347656 C 18.953125 8.347656 18.679688 8.453125 18.488281 8.652344 C 18.296875 8.847656 18.167969 9.148438 18.101562 9.546875 L 18.078125 9.679688 L 17.644531 9.679688 C 17.644531 9.679688 17.589844 9.679688 17.578125 9.738281 L 17.507812 10.148438 C 17.503906 10.191406 17.519531 10.214844 17.570312 10.214844 L 17.996094 10.214844 L 17.5625 12.683594 C 17.527344 12.886719 17.492188 13.050781 17.449219 13.175781 C 17.40625 13.292969 17.363281 13.386719 17.316406 13.457031 C 17.265625 13.519531 17.21875 13.566406 17.140625 13.59375 C 17.074219 13.617188 16.996094 13.628906 16.914062 13.628906 C 16.867188 13.628906 16.808594 13.621094 16.761719 13.613281 C 16.714844 13.601562 16.691406 13.589844 16.65625 13.574219 C 16.65625 13.574219 16.605469 13.554688 16.585938 13.609375 C 16.570312 13.648438 16.457031 13.96875 16.445312 14.011719 C 16.429688 14.046875 16.449219 14.082031 16.472656 14.089844 C 16.53125 14.109375 16.574219 14.121094 16.648438 14.140625 C 16.753906 14.167969 16.847656 14.167969 16.929688 14.167969 C 17.105469 14.167969 17.265625 14.140625 17.402344 14.09375 C 17.535156 14.042969 17.652344 13.957031 17.757812 13.839844 C 17.867188 13.710938 17.9375 13.578125 18.007812 13.398438 C 18.074219 13.214844 18.128906 12.992188 18.171875 12.730469 L 18.609375 10.214844 L 19.238281 10.214844 C 19.238281 10.214844 19.292969 10.214844 19.304688 10.152344 L 19.375 9.746094 C 19.378906 9.707031 19.363281 9.679688 19.3125 9.679688 L 18.695312 9.679688 C 18.703125 9.667969 18.730469 9.445312 18.800781 9.234375 C 18.828125 9.144531 18.886719 9.074219 18.933594 9.023438 C 18.980469 8.976562 19.035156 8.941406 19.09375 8.921875 C 19.15625 8.902344 19.226562 8.890625 19.300781 8.890625 C 19.359375 8.890625 19.417969 8.898438 19.460938 8.90625 C 19.515625 8.921875 19.539062 8.925781 19.558594 8.933594 C 19.621094 8.949219 19.628906 8.933594 19.640625 8.902344 L 19.789062 8.488281 C 19.800781 8.441406 19.765625 8.421875 19.75 8.417969 "/>
<path style=" stroke:none;fill-rule:nonzero;fill:rgb(100%,100%,100%);fill-opacity:1;" d="M 11.175781 12.691406 C 11.175781 12.722656 11.152344 12.753906 11.121094 12.753906 L 10.613281 12.753906 C 10.582031 12.753906 10.558594 12.722656 10.558594 12.691406 L 10.558594 8.472656 C 10.558594 8.441406 10.582031 8.414062 10.613281 8.414062 L 11.121094 8.414062 C 11.152344 8.414062 11.175781 8.441406 11.175781 8.472656 Z M 11.175781 12.691406 "/>
</g>
</svg>
