<svg width="32" height="32" viewBox="0 0 32 32" fill="none" xmlns="http://www.w3.org/2000/svg">
<path d="M23.9976 17.0454C24.0403 16.704 24.0723 16.3627 24.0723 16C24.0723 15.6374 24.0403 15.296 23.9976 14.9547L26.2483 13.1947C26.451 13.0347 26.5043 12.7467 26.3763 12.512L24.243 8.82137C24.115 8.58671 23.827 8.50137 23.5923 8.58671L20.9363 9.65337C20.3816 9.22671 19.7843 8.87471 19.1336 8.60804L18.7283 5.78137C18.6963 5.52537 18.4723 5.33337 18.2056 5.33337H13.939C13.6723 5.33337 13.4483 5.52537 13.4163 5.78137L13.011 8.60804C12.3603 8.87471 11.763 9.23737 11.2083 9.65337L8.55229 8.58671C8.30696 8.49071 8.02962 8.58671 7.90162 8.82137L5.76829 12.512C5.62962 12.7467 5.69362 13.0347 5.89629 13.1947L8.14696 14.9547C8.10429 15.296 8.07229 15.648 8.07229 16C8.07229 16.352 8.10429 16.704 8.14696 17.0454L5.89629 18.8054C5.69362 18.9654 5.64029 19.2534 5.76829 19.488L7.90162 23.1787C8.02962 23.4134 8.31762 23.4987 8.55229 23.4134L11.2083 22.3467C11.763 22.7734 12.3603 23.1254 13.011 23.392L13.4163 26.2187C13.4483 26.4747 13.6723 26.6667 13.939 26.6667H18.2056C18.4723 26.6667 18.6963 26.4747 18.7283 26.2187L19.1336 23.392C19.7843 23.1254 20.3816 22.7627 20.9363 22.3467L23.5923 23.4134C23.8376 23.5094 24.115 23.4134 24.243 23.1787L26.3763 19.488C26.5043 19.2534 26.451 18.9654 26.2483 18.8054L23.9976 17.0454ZM16.0723 19.7334C14.0136 19.7334 12.339 18.0587 12.339 16C12.339 13.9414 14.0136 12.2667 16.0723 12.2667C18.131 12.2667 19.8056 13.9414 19.8056 16C19.8056 18.0587 18.131 19.7334 16.0723 19.7334Z" fill="white"/>
</svg>
