<svg viewBox="0 -5 30 30" preserveAspectRatio="xMinYMid" fill="none" xmlns="http://www.w3.org/2000/svg">
<path d="M11.5167 18.3333H8.48335C8.09178 18.3333 7.75298 18.0608 7.66918 17.6783L7.33001 16.1083C6.87756 15.9101 6.44853 15.6622 6.05085 15.3692L4.52001 15.8567C4.14668 15.9757 3.74084 15.8186 3.54501 15.4792L2.02501 12.8533C1.83134 12.5138 1.89806 12.0854 2.18585 11.8208L3.37335 10.7375C3.31934 10.2468 3.31934 9.75157 3.37335 9.26083L2.18585 8.18C1.89764 7.9153 1.83089 7.48643 2.02501 7.14666L3.54168 4.51916C3.7375 4.17975 4.14335 4.02261 4.51668 4.14166L6.04751 4.62916C6.2509 4.47846 6.46262 4.33935 6.68168 4.2125C6.89196 4.09391 7.10838 3.98654 7.33001 3.89083L7.67001 2.3225C7.75341 1.93997 8.09184 1.66708 8.48335 1.66666H11.5167C11.9082 1.66708 12.2466 1.93997 12.33 2.3225L12.6733 3.89166C12.9073 3.99459 13.1352 4.1109 13.3558 4.24C13.5616 4.35901 13.7605 4.48949 13.9517 4.63083L15.4833 4.14333C15.8564 4.02472 16.2618 4.1818 16.4575 4.52083L17.9742 7.14833C18.1679 7.4879 18.1011 7.91626 17.8133 8.18083L16.6258 9.26416C16.6798 9.75491 16.6798 10.2501 16.6258 10.7408L17.8133 11.8242C18.1011 12.0887 18.1679 12.5171 17.9742 12.8567L16.4575 15.4842C16.2618 15.8232 15.8564 15.9803 15.4833 15.8617L13.9517 15.3742C13.7579 15.5169 13.5565 15.6491 13.3483 15.77C13.1299 15.8966 12.9045 16.0109 12.6733 16.1125L12.33 17.6783C12.2463 18.0605 11.9079 18.333 11.5167 18.3333ZM6.35001 13.5242L7.03335 14.0242C7.18739 14.1376 7.34794 14.242 7.51418 14.3367C7.6706 14.4273 7.83165 14.5096 7.99668 14.5833L8.77418 14.9242L9.15501 16.6667H10.8467L11.2275 14.9233L12.005 14.5825C12.3444 14.4328 12.6666 14.2467 12.9658 14.0275L13.65 13.5275L15.3508 14.0692L16.1967 12.6042L14.8775 11.4017L14.9708 10.5583C15.0118 10.1895 15.0118 9.8172 14.9708 9.44833L14.8775 8.605L16.1975 7.4L15.3508 5.93416L13.65 6.47583L12.9658 5.97583C12.6665 5.75559 12.3444 5.56813 12.005 5.41666L11.2275 5.07583L10.8467 3.33333H9.15501L8.77251 5.07666L7.99668 5.41666C7.83152 5.4892 7.67044 5.57071 7.51418 5.66083C7.34896 5.75527 7.18926 5.85905 7.03585 5.97166L6.35168 6.47166L4.65168 5.93L3.80418 7.4L5.12335 8.60083L5.03001 9.445C4.98902 9.81386 4.98902 10.1861 5.03001 10.555L5.12335 11.3983L3.80418 12.6008L4.65001 14.0658L6.35001 13.5242ZM9.99668 13.3333C8.15573 13.3333 6.66335 11.8409 6.66335 10C6.66335 8.15905 8.15573 6.66666 9.99668 6.66666C11.8376 6.66666 13.33 8.15905 13.33 10C13.3277 11.84 11.8367 13.331 9.99668 13.3333ZM9.99668 8.33333C9.08618 8.33425 8.34492 9.0657 8.33187 9.97611C8.31883 10.8865 9.03882 11.6389 9.94892 11.6659C10.859 11.6929 11.6224 10.9846 11.6633 10.075V10.4083V10C11.6633 9.07952 10.9172 8.33333 9.99668 8.33333Z" fill="white"/>
</svg>
