<svg viewBox="0 -5 30 30" preserveAspectRatio="xMinYMid" fill="none" xmlns="http://www.w3.org/2000/svg">
<path fill-rule="evenodd" clip-rule="evenodd" d="M7.18727 7.53117V5.31744C7.18727 4.89352 7.6817 4.66194 8.00737 4.93332L12.3513 8.55326C12.5912 8.75316 12.5912 9.12158 12.3513 9.32148L8.00737 12.9415C7.68171 13.2129 7.18727 12.9813 7.18727 12.5574V10.3437L2.03102 10.3437C1.25437 10.3437 0.624775 9.71407 0.624775 8.93742C0.624775 8.16077 1.25437 7.53117 2.03102 7.53117H7.18727Z" fill="white"/>
<circle cx="18.875" cy="9" r="1.875" fill="white"/>
<path fill-rule="evenodd" clip-rule="evenodd" d="M18.9063 14.625C22.0129 14.625 24.5313 12.1066 24.5313 9C24.5313 5.8934 22.0129 3.375 18.9063 3.375C17.0671 3.375 15.4342 4.25615 14.4055 5.62526L12.157 3.93587C13.694 1.89013 16.1453 0.5625 18.9063 0.5625C23.5662 0.5625 27.3438 4.3401 27.3438 9C27.3438 13.6599 23.5662 17.4375 18.9063 17.4375C16.1453 17.4375 13.694 16.1099 12.157 14.0641L14.4055 12.3747C15.4342 13.7438 17.0671 14.625 18.9063 14.625Z" fill="white"/>
</svg>
