<svg viewBox="0 -5 30 30" preserveAspectRatio="xMinYMid" fill="none" xmlns="http://www.w3.org/2000/svg">
<path d="M11 7.25C8.92813 7.25 7.25 8.92813 7.25 11C7.25 13.0719 8.92813 14.75 11 14.75C13.0719 14.75 14.75 13.0719 14.75 11C14.75 8.92813 13.0719 7.25 11 7.25ZM19.3813 10.0625C18.95 6.15312 15.8469 3.05 11.9375 2.61875V1.625C11.9375 1.10937 11.5156 0.6875 11 0.6875C10.4844 0.6875 10.0625 1.10937 10.0625 1.625V2.61875C6.15312 3.05 3.05 6.15312 2.61875 10.0625H1.625C1.10937 10.0625 0.6875 10.4844 0.6875 11C0.6875 11.5156 1.10937 11.9375 1.625 11.9375H2.61875C3.05 15.8469 6.15312 18.95 10.0625 19.3813V20.375C10.0625 20.8906 10.4844 21.3125 11 21.3125C11.5156 21.3125 11.9375 20.8906 11.9375 20.375V19.3813C15.8469 18.95 18.95 15.8469 19.3813 11.9375H20.375C20.8906 11.9375 21.3125 11.5156 21.3125 11C21.3125 10.4844 20.8906 10.0625 20.375 10.0625H19.3813ZM11 17.25C7.37188 17.25 4.75 14.6281 4.75 11C4.75 7.37188 7.37188 4.75 11 4.75C14.6281 4.75 17.25 7.37188 17.25 11C17.25 14.6281 14.6281 17.25 11 17.25Z" fill="white"/>
</svg>
