<svg viewBox="0 -5 30 30" preserveAspectRatio="xMinYMid" fill="none" xmlns="http://www.w3.org/2000/svg">
<path d="M1.18242 14.9453C1.66992 15.4328 2.45742 15.4328 2.94492 14.9453L6.31992 11.5703L4.55742 9.80776L1.18242 13.1828C0.694921 13.6703 0.694921 14.4703 1.18242 14.9453ZM15.8074 3.70776V6.57026L8.81992 6.57026L2.94492 0.682764C2.45742 0.195264 1.66992 0.195264 1.18242 0.682764C0.694921 1.17026 0.694921 1.95776 1.18242 2.44526L7.80742 9.07026H15.8074V11.9328C15.8074 12.4953 16.4824 12.7703 16.8699 12.3703L20.9824 8.25776C21.2324 8.00776 21.2324 7.62026 20.9824 7.37026L16.8699 3.25776C16.4824 2.87026 15.8074 3.14526 15.8074 3.70776Z" fill="white"/>
</svg>
