<svg viewBox="0 -5 30 30" preserveAspectRatio="xMinYMid" fill="none" xmlns="http://www.w3.org/2000/svg">
<path d="M19.375 1.28391C17.8028 0.673423 16.0871 0.532417 14.4363 0.878004C12.7854 1.22359 11.2704 2.04091 10.075 3.23078C8.86191 1.9904 7.2959 1.15417 5.59034 0.83598C3.88477 0.517794 2.12258 0.733132 0.543821 1.45266C0.379629 1.52863 0.240926 1.65048 0.144444 1.80352C0.0479618 1.95656 -0.00217803 2.13425 7.25714e-05 2.31515V16.5964C-0.000551203 16.7358 0.0326388 16.8733 0.0967987 16.9971C0.160959 17.1209 0.254176 17.2273 0.368462 17.3072C0.482748 17.387 0.614696 17.438 0.753001 17.4557C0.891305 17.4734 1.03184 17.4574 1.16257 17.4089C2.42006 16.9468 3.76951 16.7909 5.09924 16.9539C6.42897 17.1169 7.70078 17.5942 8.80942 18.3463C9.1926 18.6075 9.64569 18.7469 10.1094 18.7463C10.5621 18.7473 11.0049 18.6135 11.3813 18.362C12.4702 17.6305 13.7103 17.1545 15.009 16.9694C16.3077 16.7844 17.6314 16.8951 18.8813 17.2932C18.9641 17.3199 19.0505 17.3336 19.1375 17.3339C19.3668 17.3322 19.5862 17.2399 19.7478 17.0772C19.9093 16.9145 20 16.6944 20 16.4651V2.16515C19.9995 1.97174 19.9391 1.78322 19.8272 1.62545C19.7153 1.46768 19.5574 1.34838 19.375 1.28391ZM8.75004 5.73389V15.4401C6.80436 14.5194 4.63025 14.1933 2.50006 14.5026V3.40265C3.52025 3.12522 4.59601 3.12522 5.6162 3.40266C6.63638 3.68009 7.56399 4.22489 8.30317 4.98077C8.47545 5.19055 8.62523 5.41784 8.75004 5.65889C8.75004 5.67764 8.75004 5.70264 8.75004 5.73389ZM17.5 14.4089V14.4432C15.3533 14.2017 13.1825 14.587 11.25 15.5526V5.73389C11.4688 5.46202 11.6719 5.18702 11.85 5.01202C12.4281 4.43501 13.1142 3.97765 13.8692 3.6661C14.6242 3.35456 15.4333 3.19495 16.25 3.1964C16.67 3.19612 17.0888 3.23906 17.5 3.32453V14.4089Z" fill="white"/>
</svg>
