<svg viewBox="0 -5 30 30" preserveAspectRatio="xMinYMid" fill="none" xmlns="http://www.w3.org/2000/svg">
  <path d="M0.500031 15.5001V8.93758H7.06253L4.04659 11.9563C5.08718 13.0204 6.51171 13.6217 8.00003 13.6251C10.3808 13.6216 12.5015 12.1197 13.295 9.87508H13.3119C13.4193 9.57003 13.5005 9.2564 13.5547 8.93758H15.441C14.9685 12.6875 11.7796 15.5 8.00003 15.5001H7.99066C6.002 15.506 4.09362 14.7161 2.69097 13.3063L0.500031 15.5001ZM2.44441 7.06258H0.558156C1.03042 3.31408 4.21722 0.502086 7.99534 0.500038H8.00003C9.98906 0.493674 11.8979 1.28368 13.3007 2.69383L15.5 0.500038V7.06258H8.93753L11.9582 4.04383C10.9165 2.9785 9.49 2.37708 8.00003 2.37508C5.6193 2.37859 3.49861 3.8805 2.70503 6.12508H2.68816C2.57993 6.42987 2.49868 6.74357 2.44534 7.06258H2.44441Z" fill="white"/>
  </svg>
  