<svg viewBox="0 -5 30 30" preserveAspectRatio="xMinYMid" fill="none" xmlns="http://www.w3.org/2000/svg">
<path fill-rule="evenodd" clip-rule="evenodd" d="M3.6875 9C3.6875 5.8934 6.2059 3.375 9.3125 3.375C11.1516 3.375 12.7846 4.25615 13.8132 5.62526L16.0618 3.93587C14.5248 1.89013 12.0735 0.5625 9.3125 0.5625C4.6526 0.5625 0.875 4.3401 0.875 9C0.875 13.6599 4.6526 17.4375 9.3125 17.4375C12.0735 17.4375 14.5248 16.1099 16.0618 14.0641L13.8132 12.3747C12.7846 13.7438 11.1516 14.625 9.3125 14.625C6.2059 14.625 3.6875 12.1066 3.6875 9ZM21.9686 7.53118V5.31744C21.9686 4.89353 22.463 4.66195 22.7886 4.93333L27.1326 8.55327C27.3725 8.75316 27.3725 9.12159 27.1326 9.32149L22.7886 12.9415C22.463 13.2129 21.9686 12.9813 21.9686 12.5574V10.3437H16.8123C16.0357 10.3437 15.4061 9.71408 15.4061 8.93743C15.4061 8.16078 16.0357 7.53118 16.8123 7.53118H21.9686ZM11.25 9C11.25 10.0355 10.4105 10.875 9.375 10.875C8.33947 10.875 7.5 10.0355 7.5 9C7.5 7.96447 8.33947 7.125 9.375 7.125C10.4105 7.125 11.25 7.96447 11.25 9Z" fill="white"/>
</svg>
