<svg width="30" height="32" xmlns="http://www.w3.org/2000/svg" fill="none" viewBox="0 0 96 100"><path d="M95.3371 73.1316C94.6734 71.2023 93.4219 70.1868 91.9997 69.3339C91.7342 69.1714 91.4877 69.0292 91.2791 68.9277C90.8619 68.684 90.4258 68.4606 89.9897 68.2169C85.5335 65.6783 82.0633 62.4898 79.6361 58.7124C78.8207 57.433 78.2519 56.2754 77.8537 55.3412C77.6451 54.7116 77.664 54.3461 77.7968 54.0211C77.9105 53.7774 78.214 53.5134 78.3656 53.3916C79.1242 52.8432 79.9206 52.2949 80.4515 51.9293C81.3997 51.2591 82.1581 50.7514 82.6512 50.3859C84.4716 49.0252 85.761 47.563 86.5575 45.9383C87.6762 43.6434 87.8279 41.0236 86.9557 38.5662C85.7421 35.1544 82.727 33.0219 79.0862 33.0219C78.3277 33.0219 77.5692 33.1032 76.7918 33.2859C76.5832 33.3266 76.3935 33.3875 76.2039 33.4281C76.2418 31.1129 76.185 28.6353 75.9953 26.1982C75.3127 17.6686 72.5252 13.2007 69.605 9.62632C68.3914 8.14379 66.2865 5.97076 63.1198 4.02112C58.7205 1.36068 53.7333 0 48.2721 0C42.8299 0 37.8427 1.36068 33.4245 4.06174C30.2388 6.01137 28.1339 8.1844 26.9203 9.66694C24.0191 13.221 21.2316 17.7092 20.53 26.2388C20.3403 28.6556 20.2834 31.1332 20.3214 33.4687C20.1317 33.4078 19.9232 33.3672 19.7335 33.3266C18.975 33.1438 18.1976 33.0626 17.4391 33.0626C13.7793 33.0626 10.7643 35.1747 9.56962 38.6068C8.69734 41.0642 8.84904 43.684 9.96783 45.9789C10.7643 47.6036 12.0537 49.0658 13.8741 50.4265C14.3671 50.792 15.1256 51.3201 16.0738 51.9699C16.5857 52.3355 17.3442 52.8432 18.0838 53.3713C18.1976 53.4525 18.5958 53.7571 18.7285 54.0617C18.8802 54.407 18.8802 54.7725 18.6527 55.4427C18.2545 56.3769 17.7045 57.4939 16.9081 58.7531C14.5568 62.4492 11.1625 65.5768 6.85798 68.095C4.58247 69.3948 2.19319 70.2478 1.18818 73.1722C0.42968 75.3859 0.922706 77.8838 2.85688 79.9959C3.48265 80.7271 4.27907 81.3769 5.28409 81.9659C7.63544 83.3672 9.64546 84.0374 11.2194 84.5045C11.5038 84.5857 12.1296 84.8091 12.414 85.0731C13.1156 85.723 13.0208 86.7181 13.95 88.16C14.5188 89.0536 15.1636 89.6629 15.6945 90.0691C17.6476 91.511 19.8473 91.6125 22.1797 91.6937C24.2845 91.775 26.6738 91.8765 29.4044 92.8513C30.5422 93.2575 31.6989 94.0292 33.0642 94.9228C36.3257 97.0756 40.8009 100 48.2721 100C55.7434 100 60.2375 97.0552 63.537 94.8822C64.8833 93.9886 66.059 93.2372 67.1398 92.8513C69.8704 91.8968 72.2597 91.7953 74.3646 91.6937C76.6969 91.5922 78.8966 91.511 80.8497 90.0691C81.4565 89.6223 82.234 88.8708 82.8408 87.7336C83.5045 86.515 83.4855 85.6621 84.1303 85.0528C84.3957 84.8091 84.9456 84.606 85.249 84.5045C86.8419 84.0374 88.8709 83.3469 91.2602 81.9456C92.3221 81.316 93.1564 80.6255 93.8011 79.8538L93.8201 79.8335C95.6215 77.7214 96.0766 75.2843 95.3371 73.1316ZM88.7002 76.9496C84.6422 79.3461 81.9496 79.0821 79.8637 80.5443C78.0812 81.7628 79.1431 84.4232 77.8347 85.3777C76.2418 86.5556 71.5391 85.2965 65.4901 87.4492C60.484 89.2161 57.2983 94.3136 48.2911 94.3136C39.2649 94.3136 36.1551 89.2364 31.0921 87.4492C25.0241 85.2965 20.3214 86.5556 18.7475 85.3777C17.458 84.4232 18.501 81.7831 16.7185 80.5443C14.6326 79.1024 11.921 79.3461 7.88195 76.9496C5.30305 75.4265 6.76316 74.472 7.61648 74.0252C22.2935 66.4094 24.6448 54.6507 24.7396 53.7774C24.8724 52.7214 25.0051 51.8887 23.9242 50.8124C22.8813 49.7766 18.2165 46.6897 16.9271 45.7352C14.7843 44.1308 13.8551 42.5467 14.5378 40.5768C15.0119 39.2161 16.2065 38.7084 17.458 38.7084C17.8373 38.7084 18.2355 38.749 18.6147 38.8505C20.9661 39.3989 23.2416 40.658 24.55 41.0033C24.7396 41.0439 24.8913 41.0642 25.043 41.0642C25.7446 41.0642 25.9912 40.6783 25.9532 39.8253C25.8015 37.0837 25.4412 31.7222 25.8395 26.7262C26.3894 19.8416 28.4753 16.4297 30.9404 13.4037C32.1161 11.9618 37.6721 5.66613 48.31 5.66613C58.967 5.66613 64.4851 11.9415 65.6797 13.4037C68.1448 16.4297 70.2118 19.8416 70.7806 26.7262C71.1789 31.7222 70.8375 37.0837 70.6669 39.8253C70.61 40.7392 70.8755 41.0642 71.5771 41.0642C71.7288 41.0642 71.8805 41.0439 72.0701 41.0033C73.3785 40.658 75.673 39.3989 78.0054 38.8505C78.3846 38.7693 78.7828 38.7084 79.1621 38.7084C80.4136 38.7084 81.5893 39.2161 82.0823 40.5768C82.7839 42.5467 81.8358 44.1308 79.693 45.7352C78.4036 46.6897 73.7578 49.7766 72.6958 50.8124C71.615 51.8887 71.7477 52.7214 71.8805 53.7774C71.9942 54.671 74.3266 66.4094 89.0036 74.0252C89.819 74.472 91.2791 75.4265 88.7002 76.9496Z" fill="black"></path></svg>
