
<svg id="Layer_1" data-name="Layer 1" xmlns="http://www.w3.org/2000/svg" xmlns:xlink="http://www.w3.org/1999/xlink" viewBox="0 0 513 636"><defs><style>.cls-1{fill:url(#linear-gradient);}.cls-2{fill:#77cffd;}.cls-3{fill:#3195e3;}.cls-4{fill:url(#linear-gradient-2);}.cls-5{fill:#2285e1;}</style><linearGradient id="linear-gradient" x1="54.93" y1="1037.62" x2="54.36" y2="1037.26" gradientTransform="matrix(354, 0, 0, -321, -18903.11, 333434.11)" gradientUnits="userSpaceOnUse"><stop offset="0" stop-color="#3c9fe6"/><stop offset="1" stop-color="#77cffd"/></linearGradient><linearGradient id="linear-gradient-2" x1="54.76" y1="1036.99" x2="53.76" y2="1037.62" gradientTransform="matrix(354, 0, 0, -321, -19062.11, 333323.11)" gradientUnits="userSpaceOnUse"><stop offset="0.36" stop-color="#2285e1"/><stop offset="0.79" stop-color="#2581cb"/></linearGradient></defs><title>Artboard 1</title><g id="Page-1"><polygon id="Fill-1" class="cls-1" points="159 516 159 636 513 435 513 315 159 516"/><polygon id="Fill-2" class="cls-2" points="159 231 513 432 513 312 159 111 159 231"/><g id="Fill-3"><polygon id="path-3" class="cls-3" points="0 324 354 525 354 405 0 204 0 324"/><polygon id="path-3-2" data-name="path-3" class="cls-4" points="0 324 354 525 354 405 0 204 0 324"/></g><polygon id="Fill-4" class="cls-3" points="354 0 0 201 0 321 354 120 354 0"/><path id="Fill-5" class="cls-5" d="M354,405.28V525L248.58,465.14ZM159,230.72V111l105.43,59.86Z"/></g></svg>
