<svg width="230" height="204" viewBox="0 0 230 204" fill="none"
  xmlns="http://www.w3.org/2000/svg">
  <path d="M221.495 105.75C222.835 103.429 222.835 100.571 221.495 98.25L171.495 11.6475C170.155 9.32695 167.679 7.89746 165 7.89746L65 7.89746C62.3205 7.89746 59.8446 9.32695 58.5048 11.6475L8.50481 98.25C7.16507 100.571 7.16507 103.429 8.50481 105.75L58.5048 192.353C59.8446 194.673 62.3205 196.103 65 196.103L165 196.103C167.679 196.103 170.155 194.673 171.495 192.353L221.495 105.75Z" fill="#194B7D" stroke="#194B7D" stroke-width="15" stroke-linejoin="round"/>
  <path fill-rule="evenodd" clip-rule="evenodd" d="M183.568 65.1068C185.571 64.6282 187.262 66.6425 186.442 68.5327L172.69 100.26C171.951 101.965 169.675 102.296 168.481 100.872L163.372 94.7837L131.508 122.646C128.401 125.363 123.682 125.058 120.949 121.964L99.8319 98.0469L75.5438 119.191C75.8419 120.412 76 121.687 76 123C76 131.837 68.8366 139 60 139C51.1634 139 44 131.837 44 123C44 114.163 51.1634 107 60 107C61.9557 107 63.8294 107.351 65.5617 107.993L95.6001 81.8432C98.7088 79.1369 103.419 79.4463 106.147 82.536L127.253 106.441L153.728 83.2906L148.6 77.1796C147.406 75.756 148.127 73.5729 149.934 73.1411L183.568 65.1068Z" fill="white"/>
</svg>
