<svg width="30" height="30" viewBox="0 0 30 30" fill="none" xmlns="http://www.w3.org/2000/svg">
<circle cx="15" cy="15" r="15" fill="#684ADF"/>
<path d="M8.5 21.5V15.8125H14.1875L11.5737 18.4288C12.4755 19.351 13.7101 19.8721 15 19.875C17.0633 19.872 18.9012 18.5703 19.589 16.625H19.6036C19.6967 16.3606 19.7671 16.0888 19.8141 15.8125H21.4488C21.0394 19.0624 18.2756 21.4999 15 21.5H14.9919C13.2684 21.5052 11.6144 20.8205 10.3988 19.5988L8.5 21.5ZM10.1851 14.1875H8.55037C8.95967 10.9388 11.7216 8.50175 14.9959 8.49997H15C16.7238 8.49446 18.3781 9.17913 19.5939 10.4013L21.5 8.49997V14.1875H15.8125L18.4304 11.5713C17.5276 10.648 16.2913 10.1267 15 10.125C12.9367 10.1281 11.0988 11.4297 10.411 13.375H10.3964C10.3026 13.6392 10.2322 13.911 10.1859 14.1875H10.1851Z" fill="white"/>
</svg>
