<svg id="Layer_1" data-name="Layer 1" xmlns="http://www.w3.org/2000/svg" viewBox="0 0 221.59 51.01"><title>Artboard 1</title><path d="M67,24.26v.21a7.17,7.17,0,0,0,3.28,6,6.86,6.86,0,0,0,3.65,1.16h.64a7,7,0,0,0,5.4-2.75,7.24,7.24,0,0,0,1.59-4.51A7.16,7.16,0,0,0,78,18.18a7.4,7.4,0,0,0-3.8-1.12A7.21,7.21,0,0,0,67,24.26m7.26-12a12.36,12.36,0,0,1,7.3,2.44V12.24h4.82V38.78a8.35,8.35,0,0,0,2,5.44,6.89,6.89,0,0,0,5.29,2V51h-.1q-8.24,0-11.23-7.68a14.29,14.29,0,0,1-.79-4.45V34.06a11.93,11.93,0,0,1-6.83,2.38h-1a11.77,11.77,0,0,1-7.57-3,12.12,12.12,0,0,1-2.54-3.18,11.74,11.74,0,0,1-1.49-5.51v-.58a11.84,11.84,0,0,1,4-8.79,12.16,12.16,0,0,1,8.11-3.12" style="fill:#97a3ae"/><path d="M89.21,12.32H94V20.8q0,7.86,4.34,10.33a6.9,6.9,0,0,0,2.59.58h.33a7.29,7.29,0,0,0,4.92-2.18,8.66,8.66,0,0,0,2.07-4.13,21.84,21.84,0,0,0,.37-5V12.32h4.8V20.1q0,6.07-1.09,8.54A14.59,14.59,0,0,1,110.49,32,12,12,0,0,1,104,36.15a8.59,8.59,0,0,1-2.44.38h-.83A10.49,10.49,0,0,1,94.09,34q-4.89-4.27-4.88-13.51Z" style="fill:#97a3ae"/><path d="M120.25,24.4a7.31,7.31,0,0,0,3.86,6.46,7.24,7.24,0,0,0,3.34.85h.31a7.25,7.25,0,0,0,7-7v-.33a7.19,7.19,0,0,0-3.6-6.18,7.58,7.58,0,0,0-3.7-1,7.23,7.23,0,0,0-5.88,3.06,7.45,7.45,0,0,0-1.38,4.2m7.3-12.08a12.07,12.07,0,0,1,7.2,2.38h.06V12.32h4.82V36.53h-4.82V34.15a11.87,11.87,0,0,1-6.89,2.38h-.64q-5.44,0-9.41-4.76a12.4,12.4,0,0,1-2.44-7.33,12,12,0,0,1,5.19-10,12.19,12.19,0,0,1,6.93-2.17" style="fill:#97a3ae"/><path d="M142,12.32h4.82v2.75h.06a16.18,16.18,0,0,1,9.62-2.75v4.82q-7,0-9.1,4.88a7.23,7.23,0,0,0-.58,2.65V36.53H142Z" style="fill:#97a3ae"/><path d="M162.07,22h13.66a7.5,7.5,0,0,0-3.27-4,8.2,8.2,0,0,0-3.6-.91,7.34,7.34,0,0,0-6.31,3.71Zm6.89-9.7a12,12,0,0,1,9.21,4.28A12.31,12.31,0,0,1,181,24.4a15.11,15.11,0,0,1-.24,2.42H162.07a7.11,7.11,0,0,0,3.56,4.1,7.29,7.29,0,0,0,3.27.79,7.42,7.42,0,0,0,5.15-2.12L177.42,33V33a11.89,11.89,0,0,1-8.46,3.5h-.1a11.94,11.94,0,0,1-9.23-4.29,12.23,12.23,0,0,1-2.85-7.8A12.09,12.09,0,0,1,169,12.32" style="fill:#97a3ae"/><path d="M187.91,24.44a7.29,7.29,0,0,0,14.57.17v-.37a7.17,7.17,0,0,0-3.19-5.82,7.36,7.36,0,0,0-4.18-1.28,7.25,7.25,0,0,0-6,3.29,7.4,7.4,0,0,0-1.22,4M202.48.2h4.81V36.53h-4.81V34.15a12.27,12.27,0,0,1-7.16,2.38h-.25q-5.85,0-9.87-5.2a12.52,12.52,0,0,1-2.11-6.93,12.11,12.11,0,0,1,5.19-9.95,12.55,12.55,0,0,1,7-2.13,11.91,11.91,0,0,1,7.09,2.38h.07Z" style="fill:#97a3ae"/><rect x="209.37" y="0.19" width="12.23" height="12.23" rx="0.78" ry="0.78" style="fill:#6fb1c8"/><polygon points="33.04 12.3 26.74 25.27 20.42 12.28 8.9 12.28 8.9 0 4.24 0 4.24 12.28 0 12.28 0 16.94 4.24 16.94 4.24 36.51 8.9 36.51 8.9 16.94 17.5 16.94 26.74 36.51 38.55 12.3 33.04 12.3" style="fill:#6fb1c8"/><path d="M46.65,12.32H59.23v4.82H46.65l-.74,0a2.43,2.43,0,1,0,0,4.85h6.47q5.88,0,7.67,4.49a8.79,8.79,0,0,1,.48,2.82,6.72,6.72,0,0,1-4,6.45,7.24,7.24,0,0,1-3,.75H39.66V31.71H53.28a2.45,2.45,0,0,0,0-4.89H45.76a7.45,7.45,0,0,1-5.09-2.11,7.11,7.11,0,0,1-2-5.09,7.85,7.85,0,0,1,1.91-5.06c1.25-1.49,3.27-2.24,6-2.24" style="fill:#97a3ae"/></svg>