<svg width="20" height="20" viewBox="0 0 20 20" fill="none" xmlns="http://www.w3.org/2000/svg">
<path d="M9.99997 19.2308C8.60433 19.2347 7.22632 18.9189 5.97166 18.3077C5.51247 18.0843 5.07251 17.8235 4.65627 17.5277L4.52981 17.4354C3.38503 16.5904 2.44908 15.4944 1.79381 14.2314C1.11603 12.9242 0.764495 11.4724 0.76915 10C0.76915 4.90198 4.90195 0.769226 9.99997 0.769226C15.098 0.769226 19.2308 4.90198 19.2308 10C19.2354 11.4717 18.8842 12.9228 18.207 14.2295C17.5527 15.4918 16.618 16.5875 15.4747 17.4326C15.0434 17.7483 14.5857 18.0263 14.1067 18.2634L14.0329 18.3003C12.7774 18.9148 11.3977 19.2331 9.99997 19.2308ZM9.99997 14.6154C8.61671 14.6127 7.34858 15.3853 6.71658 16.6157C8.78556 17.6405 11.2144 17.6405 13.2834 16.6157V16.6111C12.6506 15.382 11.3824 14.6111 9.99997 14.6154ZM9.99997 12.7692C11.9995 12.7718 13.8431 13.8493 14.8267 15.5901L14.8406 15.5781L14.8535 15.5671L14.8378 15.5809L14.8286 15.5883C17.163 13.5715 17.9978 10.316 16.9218 7.42471C15.8458 4.53342 13.0859 2.61567 10.0009 2.61567C6.91588 2.61567 4.15596 4.53342 3.07998 7.42471C2.004 10.316 2.83874 13.5715 5.1732 15.5883C6.15744 13.8483 8.00092 12.7717 9.99997 12.7692ZM9.99997 11.8461C7.96076 11.8461 6.30766 10.193 6.30766 8.15384C6.30766 6.11464 7.96076 4.46153 9.99997 4.46153C12.0392 4.46153 13.6923 6.11464 13.6923 8.15384C13.6923 9.1331 13.3033 10.0723 12.6108 10.7647C11.9184 11.4571 10.9792 11.8461 9.99997 11.8461ZM9.99997 6.30769C8.98036 6.30769 8.15381 7.13424 8.15381 8.15384C8.15381 9.17344 8.98036 10 9.99997 10C11.0196 10 11.8461 9.17344 11.8461 8.15384C11.8461 7.13424 11.0196 6.30769 9.99997 6.30769Z" fill="white"/>
</svg>
