<svg height="800" viewBox="0 0 800 800" width="800" xmlns="http://www.w3.org/2000/svg"><g fill="none" fill-rule="evenodd"><rect fill="#3793ff" height="800" rx="80" width="800"/><g fill="#fff" fill-rule="nonzero" transform="translate(165 165)"><path d="m449.07985 106.006076-171.085802-96.17959165c-23.284743-13.0945967-63.30308-13.10935949-86.632289 0l-171.0858015 96.17959165c-13.08747843 7.366633-20.2759575 17.671062-20.2759575 29.038412s7.20330068 21.671779 20.2759575 29.023649l171.0858015 96.194355c11.649783 6.554679 27.03461 10.156801 43.308734 10.156801 16.288945 0 31.673773-3.616884 43.323555-10.156801l171.085802-96.194355c13.087479-7.35187 20.290779-17.656299 20.290779-29.023649s-7.218122-21.671779-20.290779-29.038412zm-7.796165 44.332665-171.085802 96.194354c-18.349148 10.319192-52.705632 10.333954-71.05478 0l-171.0858022-96.194354c-7.7665217-4.369787-12.2130036-9.950122-12.2130036-15.294253 0-5.358894 4.4464819-10.924466 12.2130036-15.309016l171.0858022-96.1943537c9.174574-5.1669773 22.128658-8.1195357 35.512568-8.1195357 13.398733 0 26.352817 2.9673212 35.527391 8.1195357l171.085802 96.1943537c7.766521 4.369787 12.227825 9.950122 12.227825 15.309016.014822 5.344131-4.43166 10.924466-12.213004 15.294253z"/><path d="m449.094672 205.777879c-3.794331-2.147973-8.626175-.814748-10.804951 3.007163-2.149133 3.807098-.800367 8.636334 3.008786 10.784308 7.766522 4.384828 12.227825 9.984373 12.227825 15.346899 0 5.362527-4.461303 10.962071-12.227825 15.3469l-171.085802 96.52548c-19.238445 10.858375-51.786692 10.873189-71.054781 0l-171.0858016-96.52548c-7.7665217-4.384829-12.2130036-9.984373-12.2130036-15.3469 0-5.362526 4.4464819-10.962071 12.2130036-15.346899 3.8091528-2.147974 5.157919-6.97721 3.0087861-10.784308-2.1639545-3.821911-7.0106198-5.16995-10.804951-3.007163-13.08747843 7.377178-20.2759575 17.731891-20.2759575 29.13837 0 11.40648 7.18847907 21.761193 20.2759575 29.13837l171.0858015 96.52548c12.138896 6.843888 27.731226 10.280645 43.308734 10.280645 15.59233 0 31.18466-3.421944 43.323555-10.280645l171.085802-96.52548c13.087479-7.377177 20.290779-17.73189 20.290779-29.13837 0-11.406479-7.2033-21.761192-20.275957-29.13837z"/><path d="m449.07985 304.299365c-3.794331-2.147823-8.626175-.814692-10.804951 3.006951-2.149133 3.80683-.800366 8.635728 3.008786 10.78355 7.766522 4.38452 12.227826 9.983671 12.227826 15.345821s-4.461304 10.961301-12.227826 15.360634l-171.085802 96.518697c-19.238445 10.857613-51.786692 10.872425-71.05478 0l-171.0858022-96.53351c-7.7665217-4.38452-12.2130036-9.983671-12.2130036-15.360633 0-5.36215 4.4464819-10.961301 12.2130036-15.345821 3.8091528-2.147823 5.157919-6.97672 3.0087861-10.78355-2.1639545-3.806831-7.0106198-5.169587-10.804951-3.006952-13.05783522 7.391472-20.2611359 17.730645-20.2611359 29.151135 0 11.420491 7.18847907 21.759663 20.2759575 29.136323l171.0858015 96.518697c12.138896 6.843406 27.731226 10.279922 43.308734 10.279922 15.59233 0 31.18466-3.421703 43.323555-10.279922l171.085802-96.518697c13.087479-7.391472 20.290779-17.730645 20.290779-29.136323s-7.218122-21.759663-20.290779-29.136322z"/></g></g></svg>