<svg width="18" height="16" viewBox="0 0 18 16" fill="none" xmlns="http://www.w3.org/2000/svg">
<path d="M16.7218 15.4983H1.27765C0.979931 15.4983 0.704832 15.3395 0.555976 15.0817C0.407121 14.8238 0.407123 14.5062 0.555981 14.2483L8.27765 0.915001C8.42662 0.657594 8.70149 0.499092 8.9989 0.499092C9.29631 0.499092 9.57117 0.657594 9.72015 0.915001L17.4418 14.2483C17.5906 14.506 17.5907 14.8235 17.442 15.0813C17.2934 15.3391 17.0185 15.498 16.721 15.4983H16.7218ZM8.16681 11.3317V12.9983H8.94431H8.99848H9.05265H9.83181V11.3317H8.16681ZM8.16681 5.49833V9.665H9.83348V5.49833H8.16681Z" fill="#EDCB74"/>
</svg>
