<svg id="svg" version="1.1" xmlns="http://www.w3.org/2000/svg" xmlns:xlink="http://www.w3.org/1999/xlink" width="400" height="321.9512195121951" viewBox="0, 0, 400,321.9512195121951"><g id="svgg"><path id="path0" d="M79.417 0.369 C 79.488 0.483,79.343 0.654,79.095 0.750 C 78.847 0.845,78.546 1.366,78.427 1.907 C 78.309 2.448,78.055 2.988,77.864 3.106 C 77.643 3.242,77.612 3.167,77.778 2.899 C 77.942 2.633,77.912 2.555,77.697 2.688 C 77.509 2.804,77.431 3.189,77.524 3.543 C 77.616 3.897,77.547 4.187,77.369 4.187 C 77.192 4.187,76.944 5.020,76.818 6.039 C 76.692 7.057,76.437 8.075,76.252 8.300 C 75.994 8.614,76.059 8.664,76.524 8.514 C 76.973 8.369,76.899 8.533,76.245 9.138 C 75.473 9.850,75.345 10.233,75.278 12.030 C 75.236 13.169,75.093 14.036,74.960 13.956 C 74.737 13.822,74.614 14.328,74.799 14.620 C 74.843 14.690,74.645 15.016,74.358 15.345 C 74.072 15.673,73.820 16.159,73.798 16.425 C 73.536 19.641,73.300 20.659,72.749 20.953 C 72.420 21.130,72.156 21.596,72.163 21.990 C 72.187 23.377,71.730 25.782,71.405 25.983 C 71.203 26.108,71.176 26.024,71.337 25.765 C 71.510 25.484,71.471 25.421,71.220 25.576 C 71.013 25.705,70.930 25.951,71.037 26.123 C 71.144 26.296,71.088 26.612,70.913 26.826 C 70.738 27.039,70.492 28.182,70.367 29.365 C 70.226 30.695,69.927 31.744,69.583 32.113 C 69.277 32.442,68.928 33.503,68.808 34.471 C 68.479 37.122,68.459 37.194,67.821 38.167 C 67.467 38.708,67.160 39.928,67.058 41.195 C 66.950 42.555,66.714 43.445,66.402 43.674 C 65.813 44.107,65.576 45.068,65.558 47.106 C 65.549 48.181,65.426 48.595,65.150 48.489 C 64.933 48.405,64.655 48.498,64.534 48.695 C 64.400 48.912,64.459 48.962,64.685 48.823 C 64.903 48.688,65.056 48.794,65.056 49.079 C 65.056 49.347,64.840 49.687,64.576 49.834 C 64.266 50.008,64.021 50.846,63.888 52.185 C 63.775 53.330,63.484 54.496,63.241 54.777 C 62.999 55.057,62.897 55.383,63.016 55.501 C 63.134 55.620,63.069 55.717,62.872 55.717 C 62.671 55.717,62.415 56.569,62.294 57.644 C 62.174 58.703,61.877 59.736,61.634 59.937 C 61.391 60.139,61.196 60.468,61.201 60.667 C 61.207 60.867,61.359 60.777,61.539 60.467 C 61.720 60.157,62.016 59.903,62.197 59.903 C 62.378 59.903,62.297 60.132,62.018 60.412 C 61.129 61.300,60.764 62.266,60.565 64.251 C 60.430 65.595,60.244 66.157,59.952 66.095 C 59.722 66.046,59.619 66.145,59.724 66.314 C 59.828 66.484,59.777 66.707,59.609 66.811 C 59.334 66.980,58.999 68.907,58.837 71.242 C 58.803 71.722,58.512 72.308,58.188 72.544 C 57.765 72.854,57.550 73.556,57.423 75.054 C 57.298 76.516,57.050 77.348,56.588 77.856 C 56.134 78.355,55.891 79.151,55.801 80.432 C 55.729 81.452,55.585 82.504,55.481 82.770 C 55.377 83.035,55.310 83.344,55.331 83.456 C 55.352 83.568,55.085 83.916,54.738 84.231 C 54.228 84.692,54.106 85.226,54.106 86.995 C 54.106 88.869,54.011 89.239,53.453 89.538 C 53.094 89.730,52.877 90.013,52.972 90.166 C 53.067 90.319,53.009 90.493,52.844 90.552 C 52.679 90.612,52.508 91.602,52.465 92.754 C 52.407 94.300,52.234 94.982,51.803 95.363 C 51.482 95.646,51.313 95.973,51.428 96.087 C 51.543 96.202,51.468 96.296,51.261 96.296 C 51.014 96.296,50.886 97.000,50.886 98.350 C 50.886 99.783,50.740 100.525,50.403 100.805 C 50.137 101.026,49.919 101.394,49.919 101.623 C 49.919 101.852,49.785 102.088,49.621 102.147 C 49.457 102.206,49.289 103.196,49.247 104.348 C 49.186 106.047,49.030 106.586,48.418 107.210 C 47.785 107.856,47.665 108.311,47.665 110.062 C 47.665 111.597,47.559 112.106,47.262 111.992 C 47.011 111.895,46.841 112.150,46.809 112.672 C 46.781 113.131,46.600 113.560,46.406 113.624 C 46.204 113.692,46.052 114.583,46.049 115.727 C 46.045 117.390,45.920 117.830,45.286 118.431 C 44.728 118.960,44.472 119.656,44.311 121.078 C 44.191 122.139,43.961 123.089,43.800 123.189 C 43.638 123.289,43.581 123.564,43.672 123.801 C 43.763 124.039,43.621 124.449,43.357 124.713 C 43.092 124.978,42.774 126.119,42.650 127.251 C 42.521 128.417,42.160 129.682,41.816 130.172 C 41.483 130.648,41.234 131.155,41.264 131.299 C 41.400 131.956,40.777 134.324,40.382 134.652 C 40.140 134.853,40.026 135.151,40.128 135.316 C 40.230 135.481,40.163 135.797,39.979 136.018 C 39.795 136.240,39.546 137.429,39.424 138.661 C 39.278 140.140,39.013 141.085,38.643 141.440 C 38.068 141.995,37.470 145.291,37.837 145.885 C 37.948 146.064,37.683 146.565,37.249 146.999 C 36.659 147.590,36.402 148.294,36.226 149.807 C 36.006 151.701,35.595 152.896,35.016 153.325 C 34.878 153.427,34.677 154.297,34.569 155.258 C 34.461 156.219,34.211 157.214,34.014 157.469 C 33.741 157.823,33.751 157.876,34.058 157.692 C 34.311 157.540,34.461 157.636,34.461 157.952 C 34.461 158.228,34.350 158.454,34.216 158.454 C 33.672 158.454,33.051 160.012,32.868 161.836 C 32.740 163.112,32.540 163.741,32.279 163.688 C 32.062 163.643,31.910 163.716,31.943 163.849 C 31.975 163.981,31.831 164.670,31.622 165.378 C 31.414 166.087,31.243 167.109,31.242 167.649 C 31.241 168.189,31.059 168.826,30.837 169.065 C 30.515 169.412,30.515 169.453,30.837 169.271 C 31.510 168.892,31.287 169.657,30.580 170.152 C 30.060 170.516,29.880 171.096,29.730 172.892 C 29.617 174.236,29.398 175.144,29.196 175.106 C 29.008 175.070,28.852 175.330,28.850 175.684 C 28.848 176.039,28.700 176.430,28.521 176.554 C 28.342 176.677,28.192 177.794,28.188 179.034 C 28.181 181.032,28.101 181.326,27.481 181.608 C 26.923 181.863,26.741 182.303,26.579 183.798 C 26.290 186.455,26.147 187.012,25.620 187.539 C 25.363 187.795,25.054 188.784,24.933 189.735 C 24.812 190.687,24.567 191.650,24.388 191.875 C 24.142 192.186,24.211 192.238,24.673 192.091 C 25.090 191.958,24.991 192.146,24.356 192.692 C 23.537 193.394,23.411 193.754,23.265 195.787 C 23.175 197.052,23.027 198.014,22.938 197.925 C 22.512 197.499,21.620 200.090,21.547 201.966 C 21.486 203.538,21.327 204.126,20.873 204.450 C 20.546 204.684,20.363 205.010,20.465 205.175 C 20.566 205.340,20.496 205.475,20.309 205.475 C 20.105 205.475,19.968 206.295,19.968 207.519 C 19.968 209.145,19.838 209.680,19.331 210.138 C 18.981 210.455,18.772 210.840,18.867 210.993 C 18.962 211.147,18.886 211.272,18.699 211.272 C 18.501 211.272,18.357 211.999,18.357 213.000 C 18.357 214.260,18.177 214.958,17.690 215.577 C 17.323 216.043,17.134 216.425,17.271 216.425 C 17.408 216.425,17.346 216.599,17.134 216.812 C 16.921 217.024,16.747 218.030,16.747 219.047 C 16.747 220.097,16.587 220.995,16.375 221.126 C 16.125 221.280,16.089 221.208,16.266 220.903 C 16.410 220.654,16.405 220.563,16.254 220.701 C 16.103 220.838,15.930 221.273,15.871 221.667 C 15.811 222.061,15.622 222.432,15.450 222.491 C 15.278 222.550,15.137 223.600,15.137 224.826 C 15.137 226.057,14.997 227.053,14.823 227.053 C 14.206 227.053,13.527 228.985,13.527 230.741 C 13.527 231.724,13.382 232.528,13.205 232.528 C 13.027 232.528,12.882 232.728,12.882 232.972 C 12.882 233.216,12.679 233.585,12.429 233.792 C 12.180 233.998,11.873 235.067,11.748 236.166 C 11.622 237.265,11.284 238.599,10.997 239.130 C 10.709 239.662,10.460 240.242,10.443 240.419 C 10.327 241.588,9.843 243.390,9.539 243.782 C 9.264 244.136,9.274 244.189,9.581 244.004 C 9.839 243.849,9.984 243.955,9.984 244.299 C 9.984 244.651,9.813 244.770,9.484 244.644 C 9.209 244.538,9.067 244.585,9.167 244.748 C 9.268 244.911,9.205 245.134,9.028 245.243 C 8.851 245.353,8.703 245.761,8.700 246.151 C 8.685 248.053,8.410 250.021,8.134 250.201 C 7.599 250.551,7.175 251.638,6.938 253.274 C 6.811 254.145,6.502 255.171,6.251 255.554 C 6.000 255.938,5.900 256.356,6.028 256.484 C 6.157 256.613,6.084 256.827,5.868 256.961 C 5.636 257.105,5.441 258.089,5.394 259.359 C 5.337 260.893,5.201 261.472,4.922 261.367 C 4.706 261.286,4.444 261.358,4.339 261.528 C 4.234 261.697,4.325 261.836,4.540 261.836 C 4.805 261.836,4.771 262.016,4.432 262.399 C 4.158 262.709,3.830 263.760,3.702 264.734 C 3.575 265.709,3.306 266.715,3.104 266.970 C 2.822 267.327,2.831 267.378,3.140 267.193 C 3.782 266.807,3.606 267.317,2.894 267.903 C 2.382 268.326,2.230 268.885,2.170 270.577 C 2.128 271.754,1.985 272.651,1.852 272.571 C 1.719 272.491,1.610 272.588,1.610 272.786 C 1.610 272.984,1.443 273.042,1.238 272.916 C 1.003 272.771,0.954 272.828,1.105 273.072 C 1.236 273.284,1.166 273.672,0.949 273.934 C 0.732 274.196,0.538 275.276,0.518 276.335 C 0.499 277.393,0.367 278.260,0.226 278.260 C -0.410 278.262,0.147 282.277,0.801 282.402 C 1.152 282.469,1.696 282.819,2.008 283.179 C 2.321 283.540,2.579 283.704,2.581 283.544 C 2.584 283.384,2.705 283.440,2.851 283.670 C 3.005 283.913,4.077 284.167,5.422 284.280 C 6.691 284.386,7.729 284.582,7.729 284.714 C 7.729 285.210,10.474 286.029,11.853 285.944 C 13.009 285.873,13.395 285.994,13.867 286.577 C 14.327 287.145,14.912 287.342,16.617 287.501 C 17.915 287.622,18.998 287.909,19.321 288.216 C 20.016 288.876,20.346 288.960,22.866 289.125 C 24.572 289.237,25.079 289.403,25.604 290.023 C 26.150 290.669,26.580 290.795,28.437 290.854 C 30.271 290.912,30.594 291.005,30.433 291.426 C 30.326 291.703,30.339 291.830,30.460 291.708 C 30.581 291.587,30.983 291.700,31.354 291.960 C 31.741 292.231,32.758 292.432,33.748 292.432 C 35.447 292.432,36.450 292.765,37.295 293.610 C 37.638 293.953,39.834 294.175,41.399 294.025 C 41.495 294.016,42.014 294.378,42.551 294.830 C 43.339 295.494,43.896 295.660,45.435 295.692 C 47.887 295.744,47.709 295.696,48.551 296.538 C 49.200 297.188,51.661 297.579,53.260 297.287 C 53.415 297.259,53.449 297.476,53.337 297.768 C 53.192 298.145,53.269 298.248,53.599 298.122 C 53.855 298.023,54.119 298.107,54.186 298.308 C 54.255 298.515,55.276 298.732,56.542 298.808 C 58.228 298.910,59.018 299.124,59.761 299.682 C 60.366 300.136,61.484 300.520,62.659 300.677 C 63.712 300.818,64.682 300.959,64.815 300.990 C 64.948 301.021,65.191 301.065,65.355 301.087 C 65.520 301.109,65.873 301.345,66.140 301.612 C 66.448 301.921,67.366 302.126,68.659 302.176 C 70.298 302.239,70.802 302.390,71.258 302.952 C 71.708 303.507,72.320 303.696,74.262 303.878 C 75.971 304.038,76.861 304.279,77.239 304.683 C 77.613 305.084,78.515 305.332,80.193 305.496 C 81.965 305.669,82.752 305.896,83.147 306.348 C 83.443 306.687,83.878 306.931,84.113 306.890 C 84.799 306.772,87.075 307.298,87.582 307.691 C 87.937 307.966,87.989 307.956,87.804 307.649 C 87.671 307.428,87.709 307.246,87.888 307.246 C 88.066 307.246,88.360 307.500,88.541 307.810 C 88.722 308.120,88.876 308.229,88.884 308.052 C 88.892 307.874,89.014 307.911,89.155 308.133 C 89.308 308.374,90.270 308.568,91.558 308.616 C 92.913 308.666,93.764 308.844,93.864 309.098 C 93.951 309.320,94.244 309.501,94.515 309.501 C 94.786 309.501,95.008 309.626,95.008 309.779 C 95.008 309.931,95.832 310.153,96.839 310.271 C 97.846 310.390,98.888 310.663,99.155 310.879 C 99.539 311.190,99.590 311.188,99.399 310.870 C 99.012 310.226,99.548 310.404,100.175 311.127 C 100.613 311.632,101.287 311.833,103.031 311.979 C 104.287 312.085,105.314 312.295,105.314 312.446 C 105.314 312.598,105.519 312.721,105.770 312.721 C 106.021 312.721,106.277 312.872,106.338 313.056 C 106.399 313.240,107.521 313.480,108.831 313.590 C 110.552 313.734,111.383 313.960,111.827 314.403 C 112.262 314.839,113.089 315.071,114.674 315.204 C 115.903 315.307,116.908 315.515,116.908 315.667 C 116.908 315.818,117.114 315.942,117.364 315.942 C 117.615 315.942,117.876 316.107,117.943 316.308 C 118.013 316.520,119.110 316.742,120.539 316.833 C 121.900 316.921,122.945 317.103,122.862 317.238 C 122.600 317.661,125.224 318.519,126.780 318.519 C 127.872 318.519,128.416 318.692,128.832 319.171 C 129.257 319.661,129.952 319.873,131.607 320.019 C 133.127 320.152,134.029 320.406,134.498 320.830 C 135.134 321.407,139.831 322.185,141.109 321.925 C 142.003 321.743,142.673 321.337,142.673 320.977 C 142.673 320.772,143.028 320.223,143.461 319.756 C 143.894 319.289,144.266 318.638,144.289 318.310 C 144.311 317.982,144.355 316.989,144.387 316.103 C 144.418 315.217,144.626 314.377,144.847 314.235 C 145.068 314.094,145.250 313.759,145.250 313.492 C 145.250 313.224,145.383 313.088,145.546 313.188 C 145.779 313.333,146.103 311.600,146.360 308.834 C 146.369 308.732,146.619 308.408,146.914 308.112 C 147.243 307.784,147.540 306.752,147.678 305.462 C 147.803 304.300,148.115 303.139,148.371 302.882 C 148.628 302.626,148.738 302.415,148.615 302.415 C 148.492 302.415,148.543 302.233,148.728 302.010 C 148.913 301.787,149.167 300.700,149.292 299.594 C 149.420 298.465,149.678 297.582,149.881 297.580 C 150.085 297.577,150.048 297.452,149.795 297.292 C 149.437 297.065,149.479 296.940,150.009 296.657 C 150.547 296.369,150.711 295.856,150.896 293.879 C 151.054 292.191,151.277 291.369,151.628 291.172 C 152.147 290.882,152.365 289.681,152.641 285.588 C 152.650 285.455,152.883 285.346,153.159 285.346 C 153.435 285.346,153.579 285.214,153.479 285.052 C 153.379 284.890,153.441 284.708,153.618 284.649 C 153.794 284.590,154.002 283.547,154.080 282.332 C 154.190 280.626,154.383 279.950,154.931 279.368 C 155.478 278.785,155.677 278.092,155.803 276.331 C 155.928 274.582,156.108 273.949,156.574 273.623 C 157.030 273.304,157.230 272.642,157.373 270.979 C 157.498 269.532,157.741 268.620,158.071 268.357 C 158.349 268.136,158.459 267.955,158.315 267.955 C 158.171 267.955,158.235 267.735,158.458 267.467 C 158.681 267.199,158.935 265.973,159.023 264.744 C 159.123 263.345,159.318 262.533,159.543 262.574 C 159.741 262.611,159.867 262.460,159.823 262.238 C 159.779 262.017,159.877 261.836,160.041 261.836 C 160.206 261.836,160.431 261.002,160.543 259.984 C 160.654 258.965,161.031 257.528,161.380 256.790 C 161.730 256.052,162.133 254.473,162.276 253.281 C 162.443 251.898,162.725 250.976,163.057 250.734 C 163.405 250.479,163.648 249.613,163.791 248.123 C 163.928 246.686,164.184 245.751,164.511 245.491 C 164.790 245.270,164.882 245.086,164.715 245.084 C 164.549 245.081,164.609 244.954,164.849 244.802 C 165.114 244.634,165.353 243.659,165.458 242.311 C 165.554 241.093,165.792 239.993,165.988 239.867 C 166.184 239.740,166.357 239.523,166.372 239.384 C 166.386 239.244,166.568 238.722,166.774 238.224 C 166.981 237.725,167.150 236.595,167.150 235.713 C 167.150 234.432,167.312 233.947,167.955 233.304 C 168.633 232.626,168.760 232.197,168.760 230.581 C 168.760 229.081,168.903 228.521,169.416 228.008 C 169.777 227.647,169.986 227.212,169.880 227.041 C 169.775 226.871,169.842 226.731,170.029 226.731 C 170.234 226.731,170.370 225.906,170.370 224.671 C 170.370 222.897,170.481 222.507,171.170 221.853 C 171.857 221.202,171.970 220.806,171.975 219.039 C 171.980 217.263,172.090 216.880,172.786 216.236 C 173.455 215.616,173.597 215.173,173.628 213.622 C 173.680 211.025,173.669 211.067,174.477 210.313 C 175.082 209.748,175.201 209.298,175.201 207.574 C 175.201 205.808,175.304 205.440,175.917 205.010 C 176.311 204.734,176.499 204.509,176.336 204.509 C 176.172 204.509,176.213 204.335,176.425 204.122 C 176.638 203.910,176.812 202.976,176.812 202.048 C 176.812 201.120,176.950 200.274,177.120 200.170 C 177.289 200.065,177.344 199.761,177.241 199.493 C 177.124 199.188,177.219 199.042,177.497 199.101 C 177.771 199.159,177.900 198.969,177.837 198.599 C 177.776 198.243,177.872 198.088,178.076 198.214 C 178.277 198.338,178.428 198.120,178.442 197.683 C 178.544 194.558,178.622 193.941,178.905 193.988 C 179.082 194.018,179.191 193.861,179.147 193.639 C 179.102 193.418,179.206 193.237,179.378 193.237 C 179.550 193.237,179.597 192.996,179.484 192.701 C 179.355 192.363,179.406 192.244,179.624 192.378 C 179.996 192.608,180.558 188.997,180.233 188.470 C 180.133 188.309,180.400 187.850,180.825 187.451 C 181.426 186.886,181.649 186.247,181.824 184.586 C 181.952 183.367,182.299 182.091,182.632 181.619 C 183.154 180.877,183.831 177.738,183.626 177.009 C 183.582 176.852,183.834 176.416,184.187 176.040 C 184.632 175.566,184.898 174.682,185.055 173.157 C 185.195 171.783,185.443 170.895,185.714 170.791 C 185.952 170.700,186.067 170.495,185.969 170.337 C 185.871 170.178,185.935 170.048,186.110 170.048 C 186.286 170.048,186.530 168.895,186.653 167.485 C 186.776 166.076,186.967 164.952,187.077 164.989 C 187.188 165.026,187.302 164.928,187.332 164.770 C 187.361 164.613,187.545 164.385,187.741 164.264 C 187.937 164.143,188.184 163.040,188.290 161.813 C 188.416 160.356,188.658 159.442,188.989 159.179 C 189.267 158.957,189.359 158.774,189.192 158.771 C 189.025 158.769,189.076 158.647,189.306 158.502 C 189.552 158.346,189.804 157.258,189.920 155.850 C 190.065 154.090,190.276 153.323,190.722 152.932 C 191.110 152.591,191.393 151.783,191.511 150.677 C 191.612 149.729,192.001 148.301,192.374 147.504 C 192.751 146.699,193.111 145.160,193.182 144.042 C 193.254 142.935,193.440 142.029,193.596 142.029 C 193.753 142.029,193.881 141.824,193.881 141.573 C 193.881 141.322,194.046 141.061,194.249 140.994 C 194.462 140.923,194.662 139.932,194.726 138.632 C 194.812 136.860,194.971 136.281,195.487 135.857 C 195.967 135.462,196.190 134.780,196.331 133.280 C 196.447 132.036,196.769 130.889,197.154 130.340 C 197.572 129.745,197.850 128.657,197.977 127.120 C 198.124 125.334,198.322 124.664,198.833 124.216 C 199.355 123.759,199.525 123.152,199.624 121.398 C 199.723 119.646,199.859 119.163,200.251 119.163 C 200.526 119.163,200.662 119.073,200.552 118.963 C 200.442 118.854,200.563 118.553,200.820 118.296 C 201.110 118.006,201.288 117.187,201.288 116.144 C 201.288 115.218,201.469 114.265,201.691 114.027 C 202.013 113.680,202.013 113.639,201.691 113.820 C 200.983 114.220,201.260 113.507,202.093 112.782 C 202.792 112.174,202.899 111.814,202.899 110.067 C 202.899 108.382,203.031 107.898,203.704 107.116 C 204.337 106.380,204.509 105.826,204.509 104.523 C 204.509 103.612,204.690 102.671,204.911 102.433 C 205.233 102.086,205.233 102.044,204.911 102.226 C 204.150 102.656,204.510 101.845,205.314 101.318 C 206.036 100.845,206.119 100.574,206.119 98.704 C 206.119 97.528,206.260 96.618,206.441 96.618 C 206.618 96.618,206.763 96.336,206.763 95.990 C 206.763 95.645,206.972 95.245,207.227 95.103 C 207.546 94.924,207.712 94.170,207.760 92.680 C 207.819 90.880,207.957 90.397,208.585 89.808 C 209.220 89.211,209.340 88.781,209.340 87.086 C 209.340 85.419,209.475 84.912,210.131 84.134 C 210.723 83.430,210.978 82.642,211.146 81.000 C 211.294 79.563,211.569 78.608,211.944 78.233 C 212.329 77.848,212.592 76.897,212.746 75.338 C 212.899 73.785,213.163 72.827,213.544 72.446 C 213.908 72.082,214.195 71.110,214.341 69.750 C 214.478 68.471,214.804 67.324,215.159 66.873 C 215.483 66.461,215.751 65.847,215.753 65.509 C 215.765 63.966,216.214 61.514,216.485 61.514 C 216.650 61.514,216.705 61.384,216.607 61.225 C 216.509 61.067,216.644 60.854,216.907 60.753 C 217.171 60.652,217.397 60.239,217.411 59.834 C 217.540 56.010,217.567 55.864,218.270 55.203 C 218.829 54.678,219.036 54.014,219.203 52.209 C 219.364 50.486,219.572 49.782,220.014 49.473 C 220.465 49.157,220.643 48.521,220.751 46.842 C 220.847 45.344,221.054 44.509,221.392 44.262 C 221.666 44.062,221.796 43.803,221.680 43.688 C 221.565 43.573,221.640 43.478,221.846 43.478 C 222.505 43.478,222.297 40.976,221.578 40.258 C 221.224 39.903,220.823 39.614,220.687 39.614 C 220.551 39.614,219.909 39.253,219.261 38.813 C 218.409 38.234,217.454 37.954,215.814 37.801 C 214.566 37.685,213.622 37.466,213.716 37.314 C 213.810 37.162,213.673 37.037,213.411 37.037 C 213.150 37.037,212.887 36.890,212.827 36.711 C 212.767 36.531,211.735 36.334,210.532 36.274 C 208.899 36.191,208.154 35.996,207.586 35.502 C 207.068 35.052,206.133 34.766,204.659 34.608 C 203.178 34.450,202.296 34.180,201.870 33.754 C 201.425 33.309,200.613 33.078,199.025 32.945 C 197.461 32.814,196.604 32.574,196.133 32.134 C 195.644 31.679,194.811 31.461,193.055 31.328 C 191.730 31.228,190.721 31.071,190.813 30.980 C 191.242 30.551,189.467 29.895,187.405 29.722 C 185.778 29.586,184.958 29.359,184.565 28.937 C 184.195 28.540,183.328 28.273,181.942 28.129 C 180.683 27.998,179.538 27.669,179.021 27.288 C 178.453 26.870,177.438 26.608,175.962 26.498 C 174.312 26.376,173.628 26.179,173.264 25.722 C 172.907 25.275,172.178 25.055,170.555 24.903 C 169.212 24.778,168.122 24.494,167.796 24.184 C 167.118 23.539,166.790 23.450,164.412 23.267 C 162.969 23.156,162.276 22.928,161.675 22.367 C 161.018 21.754,160.470 21.603,158.696 21.546 C 157.237 21.499,156.522 21.347,156.522 21.083 C 156.522 20.500,155.013 20.026,152.702 19.885 C 151.200 19.794,150.572 19.614,150.347 19.213 C 150.179 18.912,149.905 18.750,149.739 18.853 C 149.572 18.956,149.436 18.886,149.436 18.699 C 149.436 18.494,148.616 18.357,147.393 18.357 C 145.767 18.357,145.232 18.228,144.773 17.721 C 144.457 17.371,144.072 17.162,143.918 17.257 C 143.765 17.352,143.639 17.276,143.639 17.088 C 143.639 16.882,142.792 16.747,141.503 16.747 C 139.717 16.747,139.268 16.633,138.766 16.054 C 138.435 15.672,138.162 15.491,138.159 15.651 C 138.157 15.811,138.045 15.770,137.911 15.559 C 137.775 15.346,136.792 15.144,135.691 15.105 C 134.083 15.047,133.750 14.943,133.901 14.549 C 134.025 14.226,133.957 14.145,133.696 14.307 C 133.481 14.440,132.954 14.318,132.525 14.037 C 132.051 13.726,131.048 13.527,129.963 13.527 C 128.610 13.527,128.025 13.371,127.536 12.882 C 127.182 12.528,126.892 12.340,126.892 12.464 C 126.892 12.588,126.718 12.515,126.506 12.303 C 126.293 12.090,125.346 11.916,124.401 11.916 C 122.817 11.916,121.320 11.347,120.733 10.521 C 120.622 10.365,119.499 10.217,118.238 10.191 C 116.941 10.165,115.944 10.004,115.943 9.820 C 115.941 9.176,114.585 8.669,112.495 8.531 C 110.947 8.429,110.179 8.215,109.680 7.747 C 109.187 7.284,108.337 7.042,106.655 6.885 C 104.711 6.705,104.348 6.582,104.510 6.162 C 104.617 5.883,104.601 5.759,104.475 5.885 C 104.349 6.011,104.075 5.971,103.865 5.797 C 103.656 5.624,102.410 5.412,101.098 5.327 C 99.211 5.204,98.600 5.035,98.177 4.519 C 97.762 4.011,97.152 3.834,95.447 3.724 C 94.239 3.647,93.199 3.429,93.136 3.241 C 93.073 3.053,92.829 2.899,92.593 2.899 C 92.356 2.899,92.115 2.756,92.056 2.581 C 91.997 2.407,90.882 2.194,89.579 2.108 C 87.703 1.984,87.089 1.812,86.629 1.281 C 85.940 0.487,81.503 -0.177,81.084 0.451 C 80.914 0.705,80.846 0.701,80.842 0.437 C 80.840 0.234,80.489 0.089,80.063 0.115 C 79.637 0.140,79.347 0.255,79.417 0.369 " stroke="none" fill="#7ba404" fill-rule="evenodd"></path><path id="path1" d="M86.312 0.848 C 86.312 1.230,87.683 2.242,87.964 2.068 C 88.455 1.764,88.269 1.403,87.424 1.018 C 86.485 0.590,86.312 0.564,86.312 0.848 M92.110 2.576 C 92.110 2.754,92.275 2.899,92.477 2.899 C 92.678 2.899,93.036 3.152,93.271 3.462 C 93.507 3.772,93.704 3.855,93.710 3.646 C 93.722 3.199,92.839 2.254,92.409 2.254 C 92.244 2.254,92.110 2.399,92.110 2.576 M77.706 2.979 C 77.129 3.726,76.933 4.187,77.195 4.184 C 77.338 4.183,77.623 3.821,77.828 3.379 C 78.235 2.501,78.190 2.353,77.706 2.979 M97.907 4.199 C 97.907 4.610,99.258 5.474,99.585 5.272 C 99.742 5.175,99.714 4.908,99.522 4.676 C 99.101 4.169,97.907 3.816,97.907 4.199 M109.519 7.590 C 110.204 8.416,111.111 8.795,111.111 8.255 C 111.111 8.001,110.660 7.635,110.109 7.443 C 109.221 7.134,109.154 7.151,109.519 7.590 M76.167 8.052 C 76.058 8.229,76.072 8.374,76.198 8.374 C 76.325 8.374,76.166 8.663,75.845 9.018 C 75.525 9.372,75.407 9.662,75.585 9.662 C 75.762 9.662,76.169 9.372,76.490 9.018 C 76.851 8.618,76.924 8.374,76.681 8.374 C 76.466 8.374,76.380 8.229,76.490 8.052 C 76.599 7.874,76.616 7.729,76.528 7.729 C 76.439 7.729,76.277 7.874,76.167 8.052 M115.378 9.144 C 115.688 9.379,115.942 9.737,115.942 9.939 C 115.942 10.141,116.087 10.306,116.264 10.306 C 116.441 10.306,116.586 10.183,116.586 10.034 C 116.586 9.677,115.493 8.693,115.112 8.706 C 114.948 8.712,115.068 8.909,115.378 9.144 M120.773 10.585 C 120.773 10.971,122.957 11.994,123.403 11.817 C 123.709 11.694,123.682 11.638,123.308 11.620 C 123.020 11.606,122.617 11.392,122.412 11.146 C 122.005 10.656,120.773 10.234,120.773 10.585 M132.515 14.040 C 133.223 14.558,133.655 14.621,133.655 14.208 C 133.655 14.052,133.260 13.848,132.776 13.756 C 131.953 13.598,131.936 13.617,132.515 14.040 M74.066 14.675 C 73.652 15.765,73.670 15.992,74.134 15.528 C 74.528 15.134,74.844 13.849,74.547 13.849 C 74.455 13.849,74.239 14.220,74.066 14.675 M139.533 16.647 C 139.843 16.728,140.350 16.728,140.660 16.647 C 140.970 16.566,140.717 16.500,140.097 16.500 C 139.477 16.500,139.223 16.566,139.533 16.647 M144.767 17.713 C 145.096 18.077,145.713 18.338,146.185 18.314 L 147.021 18.270 146.216 18.122 C 145.773 18.040,145.295 17.770,145.153 17.521 C 145.011 17.273,144.735 17.069,144.540 17.069 C 144.344 17.069,144.446 17.359,144.767 17.713 M72.658 20.321 C 72.070 21.316,72.070 21.317,72.749 20.953 C 73.124 20.753,73.430 20.304,73.430 19.956 C 73.430 19.113,73.349 19.151,72.658 20.321 M161.650 22.341 C 162.470 23.231,162.963 23.421,162.963 22.847 C 162.963 22.660,162.818 22.596,162.641 22.705 C 162.464 22.815,162.319 22.786,162.319 22.641 C 162.319 22.496,161.993 22.178,161.594 21.935 C 160.895 21.509,160.897 21.523,161.650 22.341 M173.349 25.845 C 173.423 26.067,173.751 26.300,174.078 26.363 C 174.624 26.469,174.631 26.436,174.155 25.961 C 173.536 25.342,173.164 25.289,173.349 25.845 M184.219 28.440 C 184.219 28.805,185.249 29.630,185.704 29.630 C 186.092 29.630,186.103 29.549,185.761 29.179 C 185.533 28.931,185.287 28.785,185.215 28.854 C 185.143 28.923,184.889 28.819,184.651 28.621 C 184.413 28.424,184.219 28.342,184.219 28.440 M195.813 31.837 C 195.813 32.144,197.133 32.926,197.326 32.733 C 197.415 32.644,197.403 32.434,197.300 32.266 C 197.072 31.898,195.813 31.534,195.813 31.837 M207.085 34.951 C 207.085 35.214,208.448 36.368,208.776 36.382 C 209.081 36.396,209.079 36.017,208.771 35.551 C 208.499 35.137,207.085 34.634,207.085 34.951 M67.792 37.178 C 67.704 37.455,67.565 37.899,67.482 38.164 C 67.261 38.872,67.488 38.755,68.075 37.859 C 68.395 37.371,68.470 36.995,68.271 36.872 C 68.095 36.763,67.879 36.901,67.792 37.178 M218.841 38.484 C 220.119 39.542,220.706 39.746,220.303 38.994 C 220.106 38.626,219.817 38.325,219.661 38.325 C 219.504 38.325,219.111 38.241,218.786 38.138 C 218.261 37.971,218.267 38.009,218.841 38.484 M66.207 43.340 C 65.511 44.036,65.572 44.208,66.345 43.726 C 66.699 43.504,66.989 43.213,66.989 43.079 C 66.989 42.707,66.764 42.782,66.207 43.340 M221.672 43.679 C 221.782 43.790,221.553 44.147,221.162 44.474 C 220.771 44.800,220.610 45.072,220.804 45.078 C 221.173 45.089,222.222 44.066,222.222 43.694 C 222.222 43.576,222.053 43.478,221.846 43.478 C 221.640 43.478,221.561 43.569,221.672 43.679 M65.227 48.293 C 65.109 48.485,64.841 48.544,64.632 48.424 C 64.422 48.304,64.355 48.321,64.481 48.461 C 64.608 48.601,64.567 48.987,64.390 49.318 C 64.169 49.731,64.175 49.919,64.411 49.919 C 64.600 49.919,64.848 49.666,64.962 49.356 C 65.077 49.046,65.322 48.691,65.507 48.568 C 65.692 48.445,65.753 48.254,65.643 48.144 C 65.533 48.034,65.346 48.101,65.227 48.293 M219.710 49.662 C 219.267 50.105,219.193 50.886,219.594 50.886 C 219.743 50.886,220.029 50.523,220.231 50.081 C 220.620 49.228,220.356 49.016,219.710 49.662 M217.928 55.448 C 217.603 55.802,217.421 56.176,217.524 56.278 C 217.740 56.495,219.002 55.424,219.002 55.023 C 219.002 54.583,218.562 54.757,217.928 55.448 M61.406 59.796 C 61.313 59.890,61.308 60.155,61.397 60.385 C 61.485 60.616,61.403 60.900,61.214 61.017 C 61.024 61.134,60.870 61.398,60.870 61.604 C 60.870 61.810,61.115 61.621,61.415 61.183 C 61.714 60.745,62.089 60.298,62.247 60.190 C 62.405 60.082,62.319 59.910,62.055 59.809 C 61.792 59.708,61.500 59.702,61.406 59.796 M216.747 60.870 C 216.481 61.041,216.409 61.186,216.586 61.192 C 216.763 61.197,216.709 61.327,216.466 61.481 C 216.223 61.635,216.091 61.959,216.173 62.201 C 216.266 62.476,216.524 62.250,216.865 61.594 C 217.460 60.448,217.454 60.413,216.747 60.870 M58.293 71.337 C 58.073 71.602,58.000 71.820,58.132 71.820 C 58.264 71.820,58.173 72.061,57.930 72.355 C 57.530 72.840,57.555 72.855,58.192 72.516 C 58.595 72.302,58.876 71.864,58.849 71.497 C 58.791 70.727,58.798 70.729,58.293 71.337 M213.231 72.737 C 212.808 73.527,212.794 73.752,213.167 73.752 C 213.460 73.752,213.919 72.427,213.701 72.209 C 213.634 72.142,213.422 72.379,213.231 72.737 M211.809 78.341 C 211.484 78.681,211.280 79.020,211.355 79.095 C 211.430 79.170,211.755 78.939,212.077 78.583 C 212.834 77.747,212.588 77.527,211.809 78.341 M55.420 81.874 C 55.406 82.179,55.088 82.976,54.713 83.646 C 54.032 84.862,54.032 84.863,54.700 84.261 C 55.068 83.930,55.352 83.568,55.331 83.456 C 55.310 83.344,55.401 83.004,55.535 82.700 C 55.668 82.396,55.703 81.961,55.611 81.734 C 55.506 81.470,55.436 81.521,55.420 81.874 M210.007 84.262 C 209.640 84.729,209.354 85.490,209.372 85.953 C 209.399 86.674,209.434 86.702,209.615 86.151 C 209.730 85.797,210.082 85.036,210.396 84.461 C 211.086 83.195,210.915 83.108,210.007 84.262 M53.832 87.987 C 53.806 88.466,53.532 88.998,53.223 89.171 C 52.915 89.343,52.744 89.567,52.844 89.667 C 53.307 90.130,54.156 88.978,54.021 88.068 C 53.882 87.128,53.880 87.127,53.832 87.987 M208.497 89.936 C 208.149 90.334,207.838 91.095,207.807 91.626 C 207.752 92.578,207.755 92.580,208.020 91.760 C 208.168 91.301,208.543 90.541,208.852 90.069 C 209.538 89.021,209.355 88.953,208.497 89.936 M52.174 93.648 C 52.174 93.963,51.948 94.543,51.673 94.936 C 51.136 95.703,51.327 95.916,51.955 95.250 C 52.352 94.828,52.677 93.076,52.358 93.076 C 52.257 93.076,52.174 93.333,52.174 93.648 M206.998 95.203 C 206.869 95.332,206.768 95.739,206.773 96.108 C 206.782 96.728,206.809 96.735,207.118 96.204 C 207.478 95.585,207.386 94.815,206.998 95.203 M50.607 99.616 C 50.583 100.114,50.433 100.440,50.273 100.341 C 50.113 100.243,49.831 100.596,49.646 101.128 C 49.441 101.714,49.429 102.093,49.614 102.093 C 49.782 102.093,49.919 101.924,49.919 101.716 C 49.919 101.509,50.149 101.086,50.428 100.777 C 50.710 100.465,50.874 99.879,50.794 99.463 C 50.668 98.799,50.646 98.817,50.607 99.616 M205.289 101.376 C 204.884 101.712,204.593 102.372,204.554 103.043 C 204.479 104.325,204.793 104.243,204.900 102.953 C 204.939 102.480,205.050 102.093,205.146 102.093 C 205.242 102.093,205.501 101.804,205.722 101.449 C 206.210 100.668,206.152 100.658,205.289 101.376 M48.470 106.040 C 47.521 108.035,47.511 108.127,48.345 107.258 C 48.764 106.822,49.152 106.061,49.209 105.568 C 49.346 104.368,49.231 104.441,48.470 106.040 M203.243 107.687 C 203.019 108.107,202.905 108.723,202.990 109.056 C 203.127 109.590,203.150 109.580,203.183 108.977 C 203.204 108.600,203.438 108.111,203.704 107.890 C 204.229 107.455,204.347 106.924,203.919 106.924 C 203.772 106.924,203.468 107.268,203.243 107.687 M47.387 110.847 C 47.363 111.144,47.152 111.579,46.918 111.813 C 46.383 112.349,46.018 113.688,46.407 113.688 C 46.568 113.688,46.699 113.481,46.699 113.228 C 46.699 112.974,46.926 112.540,47.204 112.262 C 47.482 111.984,47.647 111.430,47.570 111.031 C 47.487 110.598,47.413 110.524,47.387 110.847 M201.708 113.124 C 201.541 113.345,201.388 113.961,201.368 114.493 C 201.337 115.284,201.378 115.343,201.591 114.815 C 201.734 114.461,201.789 114.062,201.712 113.929 C 201.635 113.796,201.710 113.688,201.879 113.688 C 202.048 113.688,202.269 113.470,202.371 113.205 C 202.595 112.620,202.130 112.563,201.708 113.124 M45.781 116.750 C 45.752 117.332,45.476 117.880,45.089 118.122 C 44.734 118.343,44.444 118.687,44.444 118.887 C 44.444 119.087,44.817 118.878,45.273 118.422 C 45.878 117.817,46.065 117.349,45.965 116.687 L 45.829 115.781 45.781 116.750 M43.609 123.300 C 43.735 123.504,43.702 123.671,43.535 123.671 C 43.368 123.671,43.156 123.961,43.063 124.316 C 42.825 125.224,43.303 125.118,43.736 124.166 C 44.003 123.582,44.003 123.314,43.738 123.150 C 43.520 123.015,43.469 123.074,43.609 123.300 M198.470 124.475 C 198.249 124.727,198.068 125.174,198.068 125.469 C 198.068 126.183,198.894 125.528,199.130 124.627 C 199.323 123.889,199.043 123.825,198.470 124.475 M41.730 129.653 C 41.268 130.115,41.046 130.757,41.348 130.757 C 41.416 130.757,41.709 130.395,41.999 129.952 C 42.598 129.038,42.478 128.904,41.730 129.653 M197.101 130.274 C 196.874 130.548,196.760 130.845,196.849 130.933 C 196.937 131.022,197.196 130.870,197.424 130.596 C 197.651 130.322,197.765 130.025,197.676 129.936 C 197.588 129.848,197.329 129.999,197.101 130.274 M40.100 134.616 C 39.989 134.796,39.984 134.944,40.089 134.944 C 40.194 134.944,40.125 135.233,39.936 135.588 C 39.452 136.491,39.757 136.392,40.378 135.444 C 40.664 135.007,40.762 134.573,40.598 134.472 C 40.435 134.371,40.211 134.436,40.100 134.616 M195.259 135.990 C 194.544 136.913,194.500 137.556,195.176 137.194 C 195.527 137.007,195.813 136.569,195.813 136.221 C 195.813 135.485,195.690 135.433,195.259 135.990 M356.917 139.454 C 356.337 139.807,355.395 140.100,354.823 140.104 C 353.179 140.117,350.920 140.721,350.513 141.257 C 350.290 141.550,349.386 141.820,348.259 141.929 C 347.224 142.029,345.922 142.384,345.366 142.718 C 344.809 143.053,343.293 143.459,341.995 143.622 C 340.503 143.810,339.501 144.104,339.267 144.423 C 339.036 144.739,338.141 145.007,336.875 145.139 C 335.763 145.256,334.185 145.690,333.368 146.104 C 332.434 146.578,331.318 146.858,330.354 146.859 C 329.245 146.860,328.644 147.041,328.167 147.517 C 327.696 147.989,326.907 148.231,325.384 148.373 C 324.143 148.489,322.640 148.886,321.774 149.325 C 320.892 149.772,319.702 150.083,318.841 150.089 C 317.386 150.101,316.264 150.639,316.264 151.324 C 316.264 151.555,315.593 151.691,314.450 151.691 C 312.352 151.691,310.150 152.268,309.916 152.879 C 309.824 153.120,309.250 153.302,308.581 153.303 C 306.936 153.305,305.090 153.869,304.873 154.435 C 304.747 154.763,304.212 154.912,303.150 154.913 C 301.312 154.915,299.159 155.449,298.712 156.013 C 298.535 156.237,297.450 156.504,296.302 156.608 C 294.728 156.750,294.082 156.960,293.674 157.464 C 293.265 157.969,292.763 158.132,291.612 158.132 C 289.799 158.132,287.541 158.739,287.182 159.324 C 287.035 159.562,286.329 159.742,285.539 159.742 C 283.857 159.742,282.240 160.268,282.001 160.892 C 281.878 161.211,281.299 161.353,280.123 161.354 C 278.077 161.357,276.031 161.880,275.810 162.457 C 275.712 162.710,274.802 162.964,273.522 163.096 C 272.224 163.229,271.052 163.559,270.512 163.943 C 270.025 164.290,269.142 164.577,268.549 164.581 C 266.970 164.593,264.676 165.181,264.276 165.676 C 264.085 165.913,263.063 166.202,262.004 166.318 C 260.945 166.434,259.629 166.794,259.080 167.118 C 258.531 167.442,257.102 167.812,255.904 167.940 C 254.424 168.099,253.530 168.370,253.111 168.789 C 252.756 169.145,252.050 169.404,251.439 169.404 C 249.989 169.404,246.905 170.235,246.762 170.664 C 246.698 170.857,246.186 171.018,245.625 171.022 C 244.039 171.034,242.082 171.574,241.693 172.107 C 241.470 172.412,240.347 172.715,238.653 172.927 C 237.062 173.127,235.734 173.474,235.398 173.778 C 235.086 174.060,233.853 174.413,232.659 174.561 C 231.285 174.731,230.388 175.008,230.217 175.315 C 230.049 175.614,229.236 175.878,228.097 176.004 C 225.247 176.318,224.510 176.502,223.982 177.030 C 223.707 177.305,222.644 177.595,221.548 177.695 C 218.105 178.007,216.147 180.348,217.545 182.482 C 217.844 182.938,218.167 184.131,218.263 185.133 C 218.360 186.136,218.698 187.391,219.015 187.923 C 219.332 188.454,219.683 189.469,219.795 190.177 C 219.907 190.886,220.069 191.932,220.157 192.502 C 220.244 193.072,220.528 193.751,220.788 194.011 C 221.049 194.272,221.356 195.399,221.471 196.518 C 221.608 197.860,221.922 198.879,222.394 199.517 C 222.910 200.215,223.156 201.105,223.278 202.725 C 223.411 204.484,223.593 205.085,224.123 205.514 C 224.577 205.882,224.799 206.432,224.799 207.193 C 224.799 208.876,225.509 211.640,225.989 211.824 C 226.240 211.920,226.410 212.521,226.411 213.319 C 226.413 215.107,226.956 216.963,227.543 217.188 C 227.856 217.308,228.019 217.822,228.019 218.688 C 228.019 220.414,228.619 222.751,229.182 223.218 C 229.428 223.422,229.630 224.115,229.631 224.758 C 229.634 226.397,230.198 228.243,230.763 228.460 C 231.091 228.586,231.241 229.124,231.245 230.183 C 231.250 231.888,231.896 234.386,232.419 234.725 C 232.604 234.845,232.837 235.863,232.936 236.987 C 233.064 238.437,233.312 239.237,233.789 239.745 C 234.256 240.242,234.461 240.884,234.461 241.851 C 234.461 243.498,235.079 245.798,235.610 246.128 C 235.817 246.256,236.087 247.384,236.210 248.634 C 236.382 250.376,236.579 250.997,237.058 251.295 C 237.497 251.570,237.681 252.047,237.681 252.914 C 237.681 254.525,238.304 257.081,238.797 257.488 C 239.011 257.665,239.283 258.743,239.401 259.884 C 239.547 261.292,239.823 262.178,240.259 262.642 C 240.639 263.046,240.905 263.779,240.910 264.433 C 240.921 266.043,241.506 268.387,241.989 268.760 C 242.219 268.937,242.501 269.992,242.616 271.105 C 242.732 272.217,243.106 273.667,243.448 274.326 C 243.789 274.984,244.219 276.534,244.401 277.770 C 244.609 279.173,244.932 280.162,245.262 280.403 C 245.611 280.659,245.851 281.475,245.974 282.826 C 246.075 283.946,246.443 285.370,246.791 285.990 C 247.139 286.610,247.538 288.034,247.677 289.154 C 247.817 290.275,248.165 291.450,248.452 291.767 C 248.739 292.084,249.053 293.124,249.151 294.078 C 249.335 295.883,249.855 297.615,250.305 297.926 C 250.449 298.026,250.698 299.160,250.860 300.448 C 251.048 301.949,251.338 302.923,251.669 303.165 C 252.009 303.415,252.253 304.282,252.387 305.727 C 252.499 306.928,252.715 307.988,252.866 308.081 C 253.017 308.174,253.140 308.520,253.140 308.849 C 253.140 309.178,253.286 309.496,253.465 309.555 C 253.644 309.615,253.910 310.663,254.057 311.884 C 254.227 313.292,254.512 314.240,254.837 314.478 C 255.164 314.717,255.425 315.599,255.561 316.927 C 255.815 319.404,256.460 320.981,257.333 321.258 C 257.684 321.369,257.971 321.613,257.971 321.799 C 257.971 322.026,258.896 322.066,260.789 321.920 C 264.965 321.598,265.762 321.414,265.941 320.729 C 266.068 320.242,266.409 320.128,267.751 320.127 C 269.672 320.125,271.815 319.595,272.292 319.004 C 272.475 318.778,273.564 318.514,274.712 318.418 C 276.299 318.286,276.929 318.084,277.340 317.576 C 277.752 317.067,278.252 316.908,279.440 316.906 C 281.330 316.904,283.306 316.391,283.646 315.815 C 283.790 315.572,284.752 315.316,285.896 315.215 C 287.121 315.107,288.243 314.795,288.795 314.408 C 289.384 313.994,290.452 313.718,291.890 313.606 C 293.456 313.485,294.288 313.253,294.789 312.797 C 295.265 312.365,296.123 312.105,297.452 311.992 C 299.184 311.845,300.639 311.354,301.127 310.751 C 301.216 310.642,302.272 310.449,303.475 310.322 C 304.912 310.170,305.850 309.895,306.212 309.518 C 306.557 309.160,307.453 308.878,308.606 308.764 C 310.513 308.577,312.721 307.923,312.721 307.545 C 312.721 307.427,313.734 307.230,314.971 307.108 C 316.581 306.949,317.336 306.723,317.628 306.313 C 317.921 305.900,318.659 305.681,320.249 305.535 C 321.489 305.421,322.910 305.067,323.479 304.731 C 324.038 304.401,325.357 304.030,326.410 303.906 C 327.551 303.772,328.587 303.442,328.977 303.089 C 329.406 302.701,330.383 302.425,331.826 302.284 C 333.777 302.095,335.102 301.676,335.588 301.096 C 335.676 300.990,336.682 300.808,337.823 300.692 C 339.205 300.551,340.119 300.273,340.561 299.858 C 340.965 299.479,341.914 299.158,342.995 299.035 C 345.600 298.739,346.119 298.601,346.656 298.064 C 346.928 297.792,348.036 297.491,349.175 297.379 C 350.420 297.256,351.457 296.958,351.852 296.610 C 352.206 296.297,353.293 295.946,354.267 295.830 C 357.069 295.495,357.783 295.311,358.305 294.789 C 358.587 294.508,359.640 294.229,360.797 294.131 C 362.090 294.021,363.031 293.753,363.447 293.376 C 363.864 292.998,364.980 292.681,366.611 292.479 C 368.094 292.295,369.367 291.952,369.706 291.645 C 370.023 291.358,371.063 291.044,372.017 290.947 C 373.751 290.771,374.935 290.375,375.845 289.669 C 376.111 289.463,377.268 289.214,378.416 289.115 C 379.998 288.980,380.634 288.775,381.044 288.269 C 381.434 287.787,381.957 287.601,382.920 287.601 C 384.734 287.601,387.135 286.964,387.340 286.428 C 387.445 286.157,388.016 285.990,388.843 285.989 C 390.630 285.986,392.486 285.443,392.711 284.857 C 392.838 284.528,393.373 284.379,394.434 284.378 C 396.606 284.376,398.416 283.802,399.317 282.830 C 400.489 281.565,399.902 273.332,398.584 272.553 C 398.341 272.410,398.085 271.443,397.983 270.287 C 397.879 269.100,397.529 267.802,397.132 267.129 C 396.761 266.500,396.457 265.551,396.457 265.020 C 396.457 263.431,395.775 261.192,395.292 261.192 C 394.972 261.192,394.843 260.718,394.833 259.501 C 394.818 257.707,394.127 255.316,393.570 255.130 C 393.387 255.069,393.236 254.415,393.235 253.677 C 393.233 251.882,392.691 250.026,392.103 249.801 C 391.783 249.678,391.626 249.157,391.626 248.217 C 391.626 246.663,390.783 243.478,390.372 243.478 C 390.228 243.478,390.019 242.500,389.910 241.304 C 389.766 239.744,389.540 238.991,389.107 238.636 C 388.671 238.278,388.458 237.555,388.334 236.013 C 388.235 234.777,387.885 233.364,387.500 232.643 C 387.135 231.960,386.743 230.556,386.629 229.523 C 386.489 228.261,386.218 227.472,385.803 227.117 C 385.431 226.798,385.185 226.175,385.185 225.548 C 385.185 224.017,384.547 221.308,384.075 220.836 C 383.849 220.610,383.560 219.453,383.433 218.265 C 383.272 216.761,383.029 215.981,382.634 215.701 C 382.230 215.413,382.009 214.663,381.863 213.084 C 381.749 211.844,381.396 210.424,381.059 209.854 C 380.730 209.295,380.362 208.010,380.244 206.999 C 380.125 205.988,379.739 204.688,379.387 204.110 C 379.035 203.532,378.746 202.612,378.745 202.064 C 378.744 200.791,377.918 198.032,377.454 197.744 C 377.258 197.623,377.009 196.668,376.902 195.622 C 376.794 194.576,376.369 192.995,375.957 192.110 C 375.545 191.224,375.206 189.946,375.204 189.270 C 375.201 188.080,374.748 186.823,374.188 186.455 C 374.039 186.357,373.819 185.342,373.701 184.201 C 373.582 183.060,373.218 181.647,372.891 181.063 C 372.563 180.478,372.161 179.050,371.997 177.889 C 371.832 176.728,371.463 175.518,371.175 175.201 C 370.878 174.873,370.579 173.810,370.481 172.739 C 370.387 171.702,369.961 170.114,369.535 169.211 C 369.109 168.308,368.760 167.030,368.760 166.372 C 368.760 165.204,368.302 163.954,367.739 163.584 C 367.585 163.483,367.367 162.427,367.256 161.239 C 367.145 160.050,366.931 159.001,366.780 158.908 C 366.629 158.815,366.506 158.464,366.506 158.129 C 366.506 157.794,366.309 157.404,366.069 157.262 C 365.808 157.109,365.558 156.163,365.449 154.918 C 365.310 153.339,365.102 152.699,364.597 152.289 C 364.108 151.893,363.929 151.375,363.927 150.351 C 363.925 148.637,363.375 146.489,362.827 146.055 C 362.604 145.878,362.341 144.850,362.244 143.772 C 361.874 139.672,359.592 137.822,356.917 139.454 M38.525 140.909 C 37.735 141.699,37.900 142.150,38.704 141.401 C 39.090 141.042,39.325 140.667,39.226 140.568 C 39.127 140.469,38.811 140.623,38.525 140.909 M193.881 141.546 C 193.881 141.812,193.736 142.029,193.559 142.029 C 193.382 142.029,193.237 142.196,193.237 142.401 C 193.237 142.612,193.516 142.521,193.881 142.190 C 194.577 141.560,194.719 141.063,194.203 141.063 C 194.026 141.063,193.881 141.280,193.881 141.546 M37.175 146.140 C 36.985 146.270,36.731 146.643,36.611 146.967 C 36.315 147.768,37.005 147.515,37.612 146.601 C 38.074 145.906,37.854 145.675,37.175 146.140 M35.169 152.399 C 34.715 152.854,34.664 153.301,35.067 153.301 C 35.224 153.301,35.427 153.011,35.520 152.657 C 35.717 151.905,35.686 151.883,35.169 152.399 M190.386 153.174 C 190.147 153.444,190.035 153.749,190.137 153.851 C 190.361 154.075,191.304 153.339,191.304 152.940 C 191.304 152.512,190.874 152.622,190.386 153.174 M33.722 157.402 C 33.646 157.538,33.480 158.084,33.354 158.615 L 33.125 159.581 33.793 158.870 C 34.160 158.479,34.461 158.017,34.461 157.842 C 34.461 157.423,33.899 157.088,33.722 157.402 M188.554 159.442 C 188.437 159.631,188.419 159.863,188.513 159.957 C 188.744 160.188,189.372 159.781,189.372 159.401 C 189.372 158.990,188.816 159.017,188.554 159.442 M30.555 168.776 C 30.248 169.857,30.394 170.389,30.866 169.916 C 31.262 169.520,31.288 169.324,30.985 169.020 C 30.771 168.806,30.577 168.696,30.555 168.776 M184.056 176.169 C 183.735 176.525,183.569 176.913,183.688 177.032 C 183.901 177.245,184.833 176.232,184.853 175.765 C 184.869 175.382,184.683 175.477,184.056 176.169 M27.465 180.435 C 26.717 181.401,26.726 181.953,27.483 181.608 C 27.879 181.428,28.203 180.999,28.203 180.656 C 28.203 179.940,27.915 179.853,27.465 180.435 M182.485 181.792 C 181.846 182.767,181.815 183.134,182.413 182.638 C 182.804 182.313,183.354 180.998,183.099 180.998 C 183.047 180.998,182.771 181.356,182.485 181.792 M25.654 186.740 C 25.069 187.386,24.973 187.762,25.391 187.762 C 25.540 187.762,25.827 187.399,26.028 186.957 C 26.465 185.999,26.373 185.946,25.654 186.740 M180.728 187.545 C 180.342 187.956,180.119 188.386,180.233 188.499 C 180.347 188.613,180.727 188.341,181.078 187.895 C 181.906 186.842,181.640 186.575,180.728 187.545 M24.318 191.952 C 24.426 192.127,24.377 192.271,24.208 192.271 C 24.039 192.271,23.817 192.491,23.713 192.761 C 23.561 193.158,23.644 193.188,24.144 192.920 C 25.022 192.450,25.197 192.047,24.619 191.825 C 24.334 191.715,24.205 191.770,24.318 191.952 M20.793 203.626 C 20.450 204.377,20.112 205.101,20.042 205.233 C 19.971 205.366,20.080 205.475,20.282 205.475 C 20.484 205.475,20.566 205.340,20.465 205.175 C 20.363 205.010,20.535 204.684,20.848 204.450 C 21.313 204.103,21.883 202.246,21.521 202.258 C 21.464 202.260,21.136 202.875,20.793 203.626 M175.588 205.217 C 175.375 205.430,175.218 205.973,175.239 206.425 C 175.269 207.092,175.306 207.125,175.433 206.602 C 175.519 206.248,175.815 205.705,176.090 205.395 C 176.646 204.767,176.197 204.608,175.588 205.217 M19.349 209.058 C 19.097 209.656,18.826 210.290,18.747 210.467 C 18.669 210.644,18.924 210.483,19.314 210.108 C 19.742 209.698,19.981 209.137,19.915 208.699 C 19.818 208.050,19.758 208.088,19.349 209.058 M174.011 210.709 C 173.844 210.930,173.682 211.546,173.650 212.077 L 173.592 213.043 174.011 212.238 C 174.908 210.518,174.908 209.517,174.011 210.709 M172.498 216.522 C 172.102 216.811,171.969 217.233,172.066 217.890 C 172.206 218.840,172.206 218.840,172.254 217.775 C 172.281 217.189,172.432 216.789,172.591 216.887 C 172.750 216.985,172.962 216.849,173.064 216.584 C 173.290 215.996,173.226 215.989,172.498 216.522 M16.469 220.067 C 16.440 220.662,16.298 220.893,16.053 220.742 C 15.823 220.600,15.769 220.654,15.911 220.884 C 16.038 221.089,16.004 221.256,15.838 221.256 C 15.671 221.256,15.458 221.546,15.366 221.900 C 15.273 222.254,15.329 222.544,15.489 222.544 C 15.650 222.544,15.781 222.375,15.781 222.167 C 15.781 221.960,16.010 221.537,16.290 221.227 C 16.572 220.916,16.735 220.330,16.656 219.914 C 16.530 219.250,16.508 219.268,16.469 220.067 M171.027 221.961 C 170.635 222.382,170.385 223.063,170.408 223.652 C 170.432 224.289,170.500 224.421,170.602 224.025 C 170.688 223.688,171.031 222.927,171.364 222.334 C 172.066 221.085,171.956 220.964,171.027 221.961 M14.863 225.829 C 14.837 226.308,14.616 226.815,14.374 226.957 C 14.131 227.098,13.835 227.576,13.714 228.019 C 13.515 228.754,13.529 228.768,13.873 228.180 C 14.081 227.826,14.461 227.367,14.718 227.161 C 15.001 226.934,15.131 226.426,15.048 225.873 L 14.911 224.960 14.863 225.829 M169.073 228.358 C 168.879 228.721,168.781 229.337,168.857 229.727 C 168.986 230.392,168.997 230.388,169.038 229.655 C 169.062 229.226,169.322 228.610,169.615 228.286 C 169.916 227.954,169.991 227.697,169.787 227.697 C 169.589 227.697,169.268 227.995,169.073 228.358 M12.939 231.806 C 11.989 233.775,11.854 234.269,12.389 233.825 C 12.660 233.600,12.882 233.228,12.882 232.999 C 12.882 232.769,13.042 232.529,13.236 232.464 C 13.431 232.399,13.539 232.026,13.478 231.635 C 13.371 230.956,13.346 230.964,12.939 231.806 M167.651 233.566 C 167.081 234.380,167.014 234.783,167.448 234.783 C 167.612 234.783,167.964 234.348,168.229 233.816 C 168.789 232.693,168.385 232.518,167.651 233.566 M10.628 238.969 C 10.422 239.354,10.326 239.741,10.415 239.830 C 10.503 239.918,10.744 239.676,10.950 239.291 C 11.156 238.907,11.252 238.520,11.163 238.431 C 11.075 238.343,10.834 238.585,10.628 238.969 M9.470 243.751 C 9.596 243.955,9.522 244.122,9.305 244.122 C 9.088 244.122,9.006 244.218,9.122 244.334 C 9.239 244.451,9.154 244.764,8.934 245.030 C 8.582 245.457,8.620 245.461,9.259 245.063 C 10.050 244.570,10.196 243.969,9.612 243.609 C 9.382 243.466,9.328 243.520,9.470 243.751 M164.144 245.625 C 163.753 246.017,163.921 246.360,164.412 246.171 C 164.678 246.069,164.895 245.856,164.895 245.698 C 164.895 245.361,164.452 245.318,164.144 245.625 M7.853 249.844 C 7.656 249.974,7.395 250.443,7.274 250.886 C 7.071 251.630,7.085 251.642,7.449 251.047 C 7.666 250.692,8.072 250.226,8.350 250.010 C 8.891 249.592,8.457 249.446,7.853 249.844 M6.316 255.528 C 6.497 256.004,6.447 256.084,6.093 255.879 C 5.842 255.733,5.744 255.732,5.875 255.877 C 6.006 256.022,5.952 256.335,5.755 256.573 C 5.558 256.810,5.524 257.005,5.680 257.005 C 6.247 257.005,6.842 255.666,6.449 255.276 C 6.174 255.003,6.140 255.067,6.316 255.528 M3.182 266.586 C 3.161 266.719,3.161 266.936,3.182 267.069 C 3.203 267.202,3.091 267.311,2.933 267.311 C 2.775 267.311,2.563 267.526,2.462 267.789 C 2.310 268.184,2.384 268.201,2.886 267.888 C 3.220 267.679,3.474 267.247,3.449 266.927 C 3.405 266.338,3.252 266.143,3.182 266.586 M156.209 273.902 C 155.993 274.162,155.867 274.511,155.928 274.678 C 155.989 274.844,156.299 274.632,156.617 274.205 C 157.234 273.378,156.869 273.107,156.209 273.902 M154.588 279.711 C 153.975 280.364,153.932 280.515,154.361 280.515 C 154.651 280.515,155.051 280.213,155.248 279.844 C 155.777 278.856,155.452 278.792,154.588 279.711 M1.106 283.011 C 1.151 283.321,1.428 283.622,1.721 283.679 C 2.376 283.807,2.404 283.517,1.794 282.908 C 1.187 282.300,1.006 282.327,1.106 283.011 M7.286 284.851 C 7.474 285.340,8.624 285.848,8.905 285.566 C 8.994 285.477,8.765 285.310,8.398 285.193 C 8.030 285.076,7.729 284.846,7.729 284.680 C 7.729 284.515,7.589 284.380,7.418 284.380 C 7.246 284.380,7.187 284.592,7.286 284.851 M152.553 285.798 C 152.351 286.322,152.622 286.694,153.024 286.446 C 153.390 286.220,153.382 285.346,153.014 285.346 C 152.855 285.346,152.648 285.549,152.553 285.798 M12.734 285.969 C 12.445 286.437,12.743 286.845,13.522 287.049 C 14.338 287.262,14.353 286.900,13.559 286.180 C 13.158 285.818,12.873 285.745,12.734 285.969 M23.964 289.486 C 24.076 289.666,24.615 290.037,25.161 290.310 L 26.155 290.806 25.682 290.089 C 25.223 289.395,23.544 288.805,23.964 289.486 M41.546 294.487 C 41.546 294.732,41.849 295.012,42.220 295.109 C 42.866 295.278,42.871 295.260,42.331 294.664 C 41.661 293.924,41.546 293.898,41.546 294.487 M47.665 295.873 C 47.665 296.232,48.901 297.443,49.053 297.234 C 49.106 297.161,48.815 296.752,48.407 296.326 C 47.999 295.899,47.665 295.696,47.665 295.873 M59.581 300.000 C 59.802 300.266,60.127 300.483,60.304 300.483 C 60.484 300.483,60.449 300.269,60.225 300.000 C 60.005 299.734,59.680 299.517,59.502 299.517 C 59.323 299.517,59.358 299.731,59.581 300.000 M64.605 301.076 C 64.521 301.212,64.878 301.484,65.398 301.680 C 65.919 301.877,66.345 301.928,66.345 301.795 C 66.345 301.435,64.782 300.789,64.605 301.076 M75.684 304.179 C 75.684 304.263,76.119 304.556,76.651 304.831 C 77.725 305.387,77.871 305.292,77.111 304.532 C 76.643 304.064,75.684 303.827,75.684 304.179 M82.126 305.947 C 82.126 306.118,82.415 306.413,82.770 306.602 C 83.521 307.004,83.612 306.755,82.954 306.096 C 82.418 305.561,82.126 305.508,82.126 305.947 M87.417 307.632 C 87.284 307.863,87.294 307.944,87.439 307.813 C 87.584 307.681,87.920 307.754,88.187 307.974 C 88.581 308.299,88.643 308.287,88.519 307.911 C 88.308 307.275,87.711 307.124,87.417 307.632 M146.513 308.293 C 146.309 308.959,146.333 309.501,146.566 309.501 C 146.728 309.501,146.860 309.211,146.860 308.857 C 146.860 308.339,146.619 307.947,146.513 308.293 M93.408 308.753 C 93.396 309.201,94.279 310.145,94.709 310.145 C 94.873 310.145,95.008 310.000,95.008 309.823 C 95.008 309.646,94.798 309.501,94.541 309.501 C 94.284 309.501,93.926 309.247,93.746 308.937 C 93.565 308.627,93.413 308.544,93.408 308.753 M99.001 310.870 C 98.874 311.091,98.890 311.163,99.037 311.030 C 99.183 310.897,99.569 311.028,99.893 311.321 C 100.585 311.947,100.698 311.602,100.023 310.927 C 99.459 310.363,99.298 310.354,99.001 310.870 M105.017 312.254 C 104.988 312.644,105.641 313.366,106.023 313.366 C 106.164 313.366,106.280 313.221,106.280 313.043 C 106.280 312.866,106.075 312.721,105.824 312.721 C 105.573 312.721,105.295 312.540,105.205 312.319 C 105.116 312.097,105.031 312.068,105.017 312.254 M145.250 313.446 C 145.250 313.738,144.997 314.119,144.689 314.292 C 144.380 314.464,144.239 314.717,144.376 314.853 C 144.512 314.990,144.940 314.785,145.327 314.398 C 145.877 313.847,145.945 313.610,145.640 313.305 C 145.334 312.999,145.250 313.030,145.250 313.446 M111.106 314.317 C 111.546 314.655,111.981 314.857,112.072 314.766 C 112.277 314.561,111.112 313.685,110.647 313.695 C 110.459 313.699,110.666 313.979,111.106 314.317 M116.264 315.609 C 116.264 315.780,116.544 316.069,116.887 316.253 C 117.666 316.670,117.874 316.672,117.874 316.264 C 117.874 316.087,117.657 315.942,117.391 315.942 C 117.126 315.942,116.908 315.797,116.908 315.620 C 116.908 315.443,116.763 315.298,116.586 315.298 C 116.409 315.298,116.264 315.438,116.264 315.609 M127.858 318.964 C 127.858 319.209,128.148 319.485,128.502 319.578 C 129.264 319.777,129.316 319.608,128.686 318.979 C 128.107 318.400,127.858 318.395,127.858 318.964 M143.237 319.958 C 142.595 320.840,142.539 321.095,142.987 321.095 C 143.159 321.095,143.526 320.660,143.800 320.129 C 144.397 318.975,144.032 318.865,143.237 319.958 " stroke="none" fill="#04343c" fill-rule="evenodd"></path></g></svg>