<svg id="svg" version="1.1" xmlns="http://www.w3.org/2000/svg" xmlns:xlink="http://www.w3.org/1999/xlink" width="400" height="400" viewBox="0, 0, 400,400"><g id="svgg"><path id="path0" d="M294.800 48.296 C 294.470 48.423,293.622 49.174,292.915 49.964 C 289.928 53.301,288.745 54.689,287.601 56.200 C 286.934 57.080,285.987 58.274,285.495 58.854 C 284.128 60.465,283.318 61.552,281.212 64.600 C 280.148 66.140,278.994 67.710,278.649 68.090 C 278.303 68.469,277.910 69.221,277.774 69.761 C 277.639 70.301,277.275 70.839,276.966 70.958 C 276.657 71.076,276.114 71.899,275.759 72.787 C 275.404 73.674,274.989 74.400,274.837 74.400 C 274.685 74.400,274.333 75.030,274.054 75.800 C 273.776 76.570,273.394 77.200,273.206 77.200 C 273.018 77.200,272.749 77.721,272.609 78.359 C 272.469 78.996,272.023 79.817,271.617 80.185 C 271.211 80.552,270.767 81.452,270.629 82.186 C 270.491 82.919,270.115 83.739,269.792 84.006 C 269.470 84.274,269.008 85.237,268.766 86.147 C 268.524 87.056,268.074 88.082,267.768 88.426 C 267.461 88.771,267.095 89.671,266.955 90.426 C 266.816 91.182,266.454 92.000,266.151 92.244 C 265.848 92.488,265.419 93.646,265.197 94.816 C 264.975 95.987,264.549 97.227,264.250 97.572 C 263.951 97.917,263.589 98.972,263.446 99.915 C 263.303 100.858,262.829 102.295,262.393 103.109 C 261.957 103.922,261.600 105.185,261.600 105.914 C 261.600 106.643,261.309 107.802,260.954 108.489 C 260.598 109.177,260.151 111.013,259.960 112.569 C 259.769 114.126,259.348 116.030,259.026 116.800 C 258.703 117.570,258.251 120.591,258.023 123.514 C 257.794 126.436,257.322 129.699,256.974 130.764 C 256.170 133.223,256.263 153.473,257.083 154.460 C 257.355 154.787,257.753 157.482,257.993 160.620 C 258.231 163.727,258.674 166.732,258.992 167.400 C 259.305 168.060,259.733 170.096,259.942 171.926 C 260.173 173.947,260.573 175.528,260.961 175.957 C 261.343 176.379,261.601 177.375,261.601 178.431 C 261.602 179.475,261.921 180.721,262.378 181.471 C 262.804 182.170,263.262 183.430,263.395 184.271 C 263.529 185.112,263.981 186.520,264.400 187.400 C 264.819 188.280,265.269 189.675,265.399 190.500 C 265.530 191.325,265.801 192.000,266.003 192.000 C 266.204 192.000,266.573 192.759,266.823 193.686 C 267.073 194.613,267.620 195.807,268.039 196.340 C 268.457 196.872,268.800 197.709,268.800 198.200 C 268.800 198.691,269.135 199.521,269.545 200.046 C 269.955 200.571,270.427 201.450,270.594 202.000 C 270.761 202.550,271.101 203.249,271.349 203.553 C 271.866 204.188,273.213 206.708,274.207 208.900 C 274.581 209.725,275.033 210.400,275.212 210.400 C 275.390 210.400,275.657 210.949,275.804 211.619 C 275.951 212.290,276.416 213.053,276.836 213.315 C 277.256 213.578,277.600 214.005,277.600 214.266 C 277.600 214.526,278.050 215.273,278.600 215.927 C 279.150 216.581,279.600 217.306,279.600 217.540 C 279.600 217.773,280.005 218.405,280.500 218.944 C 281.809 220.370,282.231 220.935,282.801 222.025 C 283.081 222.561,283.551 223.270,283.844 223.600 C 284.137 223.930,284.877 224.762,285.489 225.449 C 286.100 226.136,287.050 227.292,287.600 228.017 C 288.150 228.742,289.005 229.763,289.500 230.286 C 289.995 230.809,290.400 231.344,290.400 231.475 C 290.400 232.351,296.128 237.117,296.655 236.680 C 296.973 236.416,301.090 232.330,305.804 227.600 C 310.519 222.870,314.562 218.820,314.788 218.600 C 315.015 218.380,318.617 214.780,322.793 210.600 C 331.352 202.033,330.618 202.762,332.550 200.910 C 333.348 200.145,334.000 199.358,334.000 199.160 C 334.000 198.962,334.201 198.800,334.446 198.800 C 334.924 198.800,337.600 196.041,337.600 195.549 C 337.600 195.387,337.960 195.140,338.400 195.000 C 338.840 194.860,339.200 194.488,339.200 194.173 C 339.200 193.858,339.340 193.600,339.511 193.600 C 339.766 193.600,341.621 191.822,346.650 186.753 C 346.898 186.504,347.753 185.675,348.550 184.910 C 349.348 184.145,350.000 183.358,350.000 183.160 C 350.000 182.962,350.201 182.800,350.446 182.800 C 350.924 182.800,353.600 180.041,353.600 179.549 C 353.600 179.387,353.960 179.140,354.400 179.000 C 354.840 178.860,355.200 178.592,355.200 178.404 C 355.200 178.082,357.501 175.600,357.800 175.600 C 357.961 175.600,360.400 173.191,360.400 173.031 C 360.400 172.717,364.841 168.400,365.164 168.400 C 365.374 168.400,365.657 168.049,365.794 167.620 C 365.930 167.192,366.392 166.730,366.820 166.594 C 367.249 166.457,367.600 166.100,367.600 165.800 C 367.600 165.500,367.951 165.143,368.380 165.006 C 368.808 164.870,369.267 164.417,369.400 164.000 C 369.533 163.583,369.992 163.130,370.420 162.994 C 370.849 162.857,371.200 162.592,371.200 162.404 C 371.200 162.082,373.501 159.600,373.800 159.600 C 373.961 159.600,376.400 157.191,376.400 157.031 C 376.400 156.717,380.841 152.400,381.164 152.400 C 381.374 152.400,381.657 152.049,381.794 151.620 C 381.930 151.192,382.392 150.730,382.820 150.594 C 383.249 150.457,383.600 150.100,383.600 149.800 C 383.600 149.500,383.951 149.143,384.380 149.006 C 384.808 148.870,385.267 148.417,385.400 148.000 C 385.533 147.583,385.992 147.130,386.420 146.994 C 386.849 146.857,387.208 146.533,387.219 146.273 C 387.229 146.013,387.940 145.260,388.800 144.600 C 389.660 143.940,390.371 143.139,390.381 142.820 C 390.402 142.161,296.437 47.983,295.808 48.032 C 295.584 48.049,295.130 48.168,294.800 48.296 " stroke="none" fill="#04343c" fill-rule="evenodd"></path><path id="path1" d="M142.098 85.466 C 141.021 85.900,9.200 218.076,9.204 218.718 C 9.206 219.093,39.354 249.535,76.198 286.367 L 143.189 353.334 144.094 352.577 C 145.763 351.183,148.969 347.827,151.523 344.800 C 152.915 343.150,154.866 340.875,155.858 339.745 C 156.850 338.614,157.953 337.264,158.308 336.745 C 158.663 336.225,159.061 335.710,159.192 335.600 C 159.492 335.348,162.953 330.502,164.905 327.600 C 165.719 326.390,166.929 324.629,167.593 323.686 C 168.257 322.743,168.800 321.869,168.800 321.744 C 168.800 321.618,169.250 320.981,169.800 320.327 C 170.350 319.673,170.800 318.904,170.800 318.618 C 170.800 318.332,171.080 317.865,171.423 317.581 C 171.766 317.296,172.302 316.509,172.616 315.832 C 172.929 315.154,173.718 313.700,174.368 312.600 C 175.019 311.500,175.829 310.060,176.168 309.400 C 176.507 308.740,176.963 307.930,177.182 307.600 C 177.401 307.270,177.851 306.370,178.182 305.600 C 178.513 304.830,178.941 303.930,179.133 303.600 C 179.561 302.864,180.806 300.197,182.214 297.000 C 182.796 295.680,183.593 293.963,183.986 293.184 C 184.378 292.405,184.832 291.145,184.994 290.384 C 185.156 289.623,185.529 288.727,185.822 288.394 C 186.115 288.060,186.555 286.893,186.800 285.800 C 187.045 284.707,187.486 283.540,187.779 283.206 C 188.073 282.873,188.444 281.790,188.604 280.800 C 188.765 279.810,189.234 278.332,189.648 277.516 C 190.062 276.700,190.401 275.620,190.402 275.116 C 190.404 274.612,190.660 273.712,190.971 273.115 C 191.282 272.518,191.740 270.988,191.988 269.715 C 192.235 268.442,192.691 266.770,193.001 266.000 C 193.311 265.230,193.750 263.324,193.976 261.764 C 194.202 260.204,194.660 258.275,194.994 257.477 C 195.327 256.679,195.600 255.208,195.600 254.209 C 195.600 253.209,195.966 250.750,196.412 248.744 C 196.859 246.738,197.400 242.375,197.613 239.048 C 197.827 235.722,198.180 231.920,198.398 230.600 C 198.898 227.581,198.891 211.602,198.388 207.600 C 198.181 205.950,197.822 201.990,197.590 198.800 C 197.357 195.610,196.892 192.029,196.556 190.842 C 196.219 189.654,195.850 187.404,195.735 185.842 C 195.621 184.279,195.205 182.010,194.811 180.800 C 194.417 179.590,193.965 177.520,193.806 176.200 C 193.647 174.881,193.289 173.351,193.011 172.800 C 192.732 172.250,192.374 170.900,192.214 169.800 C 192.055 168.700,191.582 167.045,191.162 166.122 C 190.743 165.199,190.396 164.029,190.391 163.522 C 190.386 163.015,190.034 161.833,189.608 160.894 C 189.183 159.956,188.715 158.516,188.568 157.694 C 188.422 156.873,187.965 155.639,187.551 154.953 C 187.138 154.267,186.794 153.367,186.787 152.953 C 186.781 152.539,186.332 151.300,185.791 150.200 C 185.250 149.100,184.806 147.966,184.804 147.679 C 184.802 147.393,184.449 146.493,184.019 145.679 C 183.589 144.866,182.861 143.300,182.400 142.200 C 181.450 139.930,179.662 136.097,179.136 135.200 C 178.942 134.870,178.513 133.970,178.182 133.200 C 177.851 132.430,177.401 131.530,177.182 131.200 C 176.963 130.870,176.497 129.970,176.147 129.200 C 175.797 128.430,175.371 127.710,175.200 127.600 C 175.029 127.490,174.590 126.770,174.224 126.000 C 173.166 123.779,172.126 122.002,171.437 121.241 C 171.087 120.854,170.800 120.354,170.800 120.131 C 170.800 119.907,170.350 119.201,169.800 118.562 C 169.251 117.923,168.801 117.188,168.800 116.929 C 168.800 116.669,168.575 116.219,168.299 115.929 C 168.024 115.638,167.279 114.590,166.645 113.600 C 164.214 109.808,157.148 100.465,153.800 96.615 C 153.360 96.109,152.190 94.763,151.200 93.624 C 147.906 89.834,143.368 85.200,142.981 85.232 C 142.772 85.249,142.374 85.354,142.098 85.466 " stroke="none" fill="#f49c3c" fill-rule="evenodd"></path><path id="path2" d="M294.775 47.529 C 293.596 48.301,292.154 49.761,289.600 52.770 C 288.610 53.936,287.616 55.095,287.391 55.345 C 287.166 55.595,285.958 57.150,284.706 58.800 C 283.454 60.450,282.178 62.070,281.871 62.400 C 281.563 62.730,281.079 63.450,280.795 64.000 C 280.512 64.550,280.163 65.090,280.020 65.200 C 279.600 65.522,276.628 69.982,275.355 72.200 C 275.102 72.640,274.426 73.810,273.853 74.800 C 273.280 75.790,272.494 77.230,272.106 78.000 C 271.717 78.770,271.275 79.457,271.122 79.526 C 270.970 79.595,270.629 80.315,270.364 81.126 C 270.100 81.937,269.550 83.029,269.142 83.554 C 268.734 84.079,268.396 84.889,268.391 85.354 C 268.386 85.819,268.030 86.650,267.600 87.200 C 267.170 87.750,266.814 88.488,266.809 88.840 C 266.804 89.193,266.350 90.327,265.800 91.362 C 265.250 92.396,264.800 93.643,264.800 94.132 C 264.800 94.622,264.532 95.404,264.205 95.871 C 263.878 96.338,263.346 97.683,263.023 98.860 C 262.700 100.037,262.164 101.810,261.832 102.800 C 260.533 106.670,259.661 109.884,259.407 111.733 C 259.260 112.797,258.886 114.389,258.575 115.271 C 258.264 116.153,257.827 118.703,257.605 120.937 C 257.383 123.172,256.999 125.720,256.753 126.600 C 256.126 128.838,255.813 151.024,256.358 154.600 C 256.592 156.140,256.981 159.020,257.222 161.000 C 257.463 162.980,258.097 166.523,258.630 168.873 C 259.164 171.223,259.600 173.658,259.600 174.284 C 259.600 174.910,259.842 175.777,260.138 176.211 C 260.434 176.645,260.899 178.154,261.171 179.564 C 261.443 180.974,261.901 182.504,262.188 182.964 C 262.475 183.424,262.833 184.499,262.983 185.354 C 263.134 186.209,263.604 187.556,264.028 188.348 C 264.453 189.140,264.801 190.151,264.803 190.594 C 264.804 191.037,265.163 191.940,265.600 192.600 C 266.037 193.260,266.396 194.052,266.397 194.360 C 266.399 194.668,266.832 195.838,267.360 196.960 C 267.888 198.082,268.517 199.450,268.757 200.000 C 268.998 200.550,269.376 201.270,269.597 201.600 C 269.819 201.930,270.185 202.650,270.410 203.200 C 270.635 203.750,271.340 205.100,271.975 206.200 C 272.610 207.300,273.410 208.740,273.751 209.400 C 274.093 210.060,274.827 211.320,275.383 212.200 C 275.939 213.080,276.699 214.385,277.071 215.100 C 277.443 215.815,277.872 216.400,278.023 216.400 C 278.174 216.400,278.906 217.404,279.649 218.632 C 284.004 225.825,295.535 238.589,296.684 237.487 C 311.704 223.097,391.157 142.895,390.972 142.312 C 390.785 141.723,296.165 46.718,295.876 46.829 C 295.834 46.845,295.339 47.160,294.775 47.529 M343.308 95.120 C 369.209 121.036,390.392 142.501,390.381 142.820 C 390.371 143.139,389.660 143.940,388.800 144.600 C 387.940 145.260,387.229 146.013,387.219 146.273 C 387.208 146.533,386.849 146.857,386.420 146.994 C 385.992 147.130,385.533 147.583,385.400 148.000 C 385.267 148.417,384.808 148.870,384.380 149.006 C 383.951 149.143,383.600 149.500,383.600 149.800 C 383.600 150.100,383.249 150.457,382.820 150.594 C 382.392 150.730,381.930 151.192,381.794 151.620 C 381.657 152.049,381.374 152.400,381.164 152.400 C 380.841 152.400,376.400 156.717,376.400 157.031 C 376.400 157.191,373.961 159.600,373.800 159.600 C 373.501 159.600,371.200 162.082,371.200 162.404 C 371.200 162.592,370.849 162.857,370.420 162.994 C 369.992 163.130,369.533 163.583,369.400 164.000 C 369.267 164.417,368.808 164.870,368.380 165.006 C 367.951 165.143,367.600 165.500,367.600 165.800 C 367.600 166.100,367.249 166.457,366.820 166.594 C 366.392 166.730,365.930 167.192,365.794 167.620 C 365.657 168.049,365.374 168.400,365.164 168.400 C 364.841 168.400,360.400 172.717,360.400 173.031 C 360.400 173.191,357.961 175.600,357.800 175.600 C 357.501 175.600,355.200 178.082,355.200 178.404 C 355.200 178.592,354.840 178.860,354.400 179.000 C 353.960 179.140,353.600 179.387,353.600 179.549 C 353.600 180.041,350.924 182.800,350.446 182.800 C 350.201 182.800,350.000 182.962,350.000 183.160 C 350.000 183.358,349.348 184.145,348.550 184.910 C 347.753 185.675,346.898 186.504,346.650 186.753 C 341.621 191.822,339.766 193.600,339.511 193.600 C 339.340 193.600,339.200 193.858,339.200 194.173 C 339.200 194.488,338.840 194.860,338.400 195.000 C 337.960 195.140,337.600 195.387,337.600 195.549 C 337.600 196.041,334.924 198.800,334.446 198.800 C 334.201 198.800,334.000 198.962,334.000 199.160 C 334.000 199.358,333.348 200.145,332.550 200.910 C 330.618 202.762,331.352 202.033,322.793 210.600 C 318.617 214.780,315.015 218.380,314.788 218.600 C 314.562 218.820,310.519 222.870,305.804 227.600 C 301.090 232.330,296.973 236.416,296.655 236.680 C 296.128 237.117,290.400 232.351,290.400 231.475 C 290.400 231.344,289.995 230.809,289.500 230.286 C 289.005 229.763,288.150 228.742,287.600 228.017 C 287.050 227.292,286.100 226.136,285.489 225.449 C 284.877 224.762,284.137 223.930,283.844 223.600 C 283.551 223.270,283.081 222.561,282.801 222.025 C 282.231 220.935,281.809 220.370,280.500 218.944 C 280.005 218.405,279.600 217.773,279.600 217.540 C 279.600 217.306,279.150 216.581,278.600 215.927 C 278.050 215.273,277.600 214.526,277.600 214.266 C 277.600 214.005,277.256 213.578,276.836 213.315 C 276.416 213.053,275.951 212.290,275.804 211.619 C 275.657 210.949,275.390 210.400,275.212 210.400 C 275.033 210.400,274.581 209.725,274.207 208.900 C 273.213 206.708,271.866 204.188,271.349 203.553 C 271.101 203.249,270.761 202.550,270.594 202.000 C 270.427 201.450,269.955 200.571,269.545 200.046 C 269.135 199.521,268.800 198.691,268.800 198.200 C 268.800 197.709,268.457 196.872,268.039 196.340 C 267.620 195.807,267.073 194.613,266.823 193.686 C 266.573 192.759,266.204 192.000,266.003 192.000 C 265.801 192.000,265.530 191.325,265.399 190.500 C 265.269 189.675,264.819 188.280,264.400 187.400 C 263.981 186.520,263.529 185.112,263.395 184.271 C 263.262 183.430,262.804 182.170,262.378 181.471 C 261.921 180.721,261.602 179.475,261.601 178.431 C 261.601 177.375,261.343 176.379,260.961 175.957 C 260.573 175.528,260.173 173.947,259.942 171.926 C 259.733 170.096,259.305 168.060,258.992 167.400 C 258.674 166.732,258.231 163.727,257.993 160.620 C 257.753 157.482,257.355 154.787,257.083 154.460 C 256.263 153.473,256.170 133.223,256.974 130.764 C 257.322 129.699,257.794 126.436,258.023 123.514 C 258.251 120.591,258.703 117.570,259.026 116.800 C 259.348 116.030,259.769 114.126,259.960 112.569 C 260.151 111.013,260.598 109.177,260.954 108.489 C 261.309 107.802,261.600 106.643,261.600 105.914 C 261.600 105.185,261.957 103.922,262.393 103.109 C 262.829 102.295,263.303 100.858,263.446 99.915 C 263.589 98.972,263.951 97.917,264.250 97.572 C 264.549 97.227,264.975 95.987,265.197 94.816 C 265.419 93.646,265.848 92.488,266.151 92.244 C 266.454 92.000,266.816 91.182,266.955 90.426 C 267.095 89.671,267.461 88.771,267.768 88.426 C 268.074 88.082,268.524 87.056,268.766 86.147 C 269.008 85.237,269.470 84.274,269.792 84.006 C 270.115 83.739,270.491 82.919,270.629 82.186 C 270.767 81.452,271.211 80.552,271.617 80.185 C 272.023 79.817,272.469 78.996,272.609 78.359 C 272.749 77.721,273.018 77.200,273.206 77.200 C 273.394 77.200,273.776 76.570,274.054 75.800 C 274.333 75.030,274.685 74.400,274.837 74.400 C 274.989 74.400,275.404 73.674,275.759 72.787 C 276.114 71.899,276.657 71.076,276.966 70.958 C 277.275 70.839,277.639 70.301,277.774 69.761 C 277.910 69.221,278.303 68.469,278.649 68.090 C 278.994 67.710,280.148 66.140,281.212 64.600 C 283.318 61.552,284.128 60.465,285.495 58.854 C 285.987 58.274,286.934 57.080,287.601 56.200 C 288.745 54.689,289.928 53.301,292.915 49.964 C 294.132 48.604,294.882 48.103,295.808 48.032 C 296.032 48.014,317.407 69.204,343.308 95.120 " stroke="none" fill="#7c8c8e" fill-rule="evenodd"></path><path id="path3" d="M294.551 46.900 C 293.889 47.395,292.418 48.790,291.281 50.000 C 290.145 51.210,288.959 52.470,288.645 52.800 C 287.837 53.651,284.388 58.091,283.200 59.811 C 282.650 60.607,281.861 61.596,281.448 62.008 C 281.034 62.420,280.494 63.101,280.248 63.521 C 280.001 63.942,279.260 65.060,278.600 66.007 C 276.405 69.155,276.003 69.791,275.422 71.032 C 275.105 71.709,274.577 72.487,274.249 72.759 C 273.920 73.032,273.540 73.764,273.403 74.386 C 273.266 75.008,272.805 75.834,272.377 76.221 C 271.950 76.607,271.600 77.142,271.600 77.408 C 271.600 77.674,271.251 78.336,270.825 78.878 C 270.398 79.420,269.919 80.389,269.759 81.032 C 269.598 81.674,269.247 82.380,268.978 82.600 C 268.709 82.820,268.261 83.715,267.984 84.589 C 267.706 85.463,267.253 86.404,266.976 86.681 C 266.699 86.958,266.351 87.908,266.201 88.792 C 266.052 89.676,265.663 90.549,265.336 90.732 C 265.009 90.915,264.636 91.860,264.507 92.832 C 264.377 93.804,263.957 95.050,263.573 95.600 C 263.189 96.150,262.766 97.240,262.634 98.022 C 262.501 98.805,262.034 100.148,261.596 101.007 C 261.158 101.866,260.800 103.121,260.800 103.796 C 260.800 104.470,260.540 105.393,260.223 105.846 C 259.906 106.299,259.441 107.914,259.190 109.435 C 258.939 110.956,258.483 112.920,258.177 113.800 C 257.871 114.680,257.432 117.020,257.203 119.000 C 256.973 120.980,256.522 123.770,256.201 125.200 C 255.327 129.087,255.345 155.456,256.224 159.400 C 256.567 160.940,257.025 163.820,257.241 165.800 C 257.458 167.780,257.894 170.030,258.211 170.800 C 258.528 171.570,258.958 173.310,259.166 174.666 C 259.374 176.023,259.827 177.679,260.172 178.347 C 260.518 179.014,260.800 180.097,260.800 180.754 C 260.800 182.127,261.462 184.067,262.055 184.434 C 262.278 184.572,262.561 185.476,262.683 186.442 C 262.805 187.409,263.174 188.509,263.502 188.886 C 263.830 189.263,264.256 190.419,264.450 191.455 C 264.643 192.491,265.050 193.623,265.354 193.970 C 265.657 194.316,266.028 195.050,266.177 195.600 C 266.521 196.864,268.386 200.806,269.016 201.600 C 269.278 201.930,269.607 202.682,269.747 203.272 C 269.887 203.862,270.247 204.590,270.548 204.891 C 270.848 205.191,271.229 205.879,271.393 206.419 C 271.558 206.958,272.011 207.760,272.400 208.200 C 272.789 208.640,273.241 209.450,273.404 210.000 C 273.566 210.550,274.037 211.322,274.450 211.716 C 274.862 212.109,275.200 212.667,275.200 212.954 C 275.200 213.242,275.560 213.893,276.000 214.400 C 276.440 214.907,276.800 215.532,276.800 215.789 C 276.800 216.046,277.250 216.647,277.800 217.125 C 278.350 217.603,278.800 218.195,278.800 218.440 C 278.800 218.684,279.248 219.450,279.796 220.142 C 280.345 220.834,281.110 221.831,281.496 222.357 C 281.883 222.884,282.605 223.747,283.100 224.275 C 283.595 224.804,284.000 225.316,284.000 225.414 C 284.000 225.913,288.073 230.906,290.212 233.027 C 291.558 234.362,292.775 235.757,292.917 236.127 C 293.059 236.497,293.399 236.800,293.672 236.800 C 293.946 236.800,294.580 237.295,295.082 237.900 L 295.994 239.000 296.978 237.900 C 297.519 237.295,298.074 236.800,298.212 236.800 C 298.603 236.800,300.800 234.504,300.800 234.095 C 300.800 233.893,301.250 233.523,301.800 233.273 C 302.350 233.022,302.800 232.543,302.800 232.209 C 302.800 231.874,302.980 231.600,303.200 231.600 C 303.420 231.600,305.400 229.800,307.600 227.600 C 309.800 225.400,311.600 223.420,311.600 223.200 C 311.600 222.980,311.874 222.800,312.209 222.800 C 312.543 222.800,313.022 222.350,313.273 221.800 C 313.523 221.250,313.887 220.800,314.080 220.800 C 314.563 220.800,327.600 207.676,327.600 207.190 C 327.600 206.976,327.874 206.800,328.209 206.800 C 328.543 206.800,329.022 206.350,329.273 205.800 C 329.523 205.250,329.887 204.800,330.080 204.800 C 330.563 204.800,343.600 191.676,343.600 191.190 C 343.600 190.976,343.874 190.800,344.209 190.800 C 344.543 190.800,345.022 190.350,345.273 189.800 C 345.523 189.250,345.887 188.800,346.080 188.800 C 346.563 188.800,359.600 175.676,359.600 175.190 C 359.600 174.976,359.874 174.800,360.209 174.800 C 360.543 174.800,361.022 174.350,361.273 173.800 C 361.523 173.250,361.879 172.800,362.063 172.800 C 362.539 172.800,375.600 159.673,375.600 159.195 C 375.600 158.978,375.874 158.800,376.209 158.800 C 376.543 158.800,377.022 158.350,377.273 157.800 C 377.523 157.250,377.879 156.800,378.063 156.800 C 379.218 156.800,391.640 143.482,391.523 142.369 C 391.414 141.328,296.907 46.000,295.984 46.000 C 295.858 46.000,295.214 46.405,294.551 46.900 M343.344 94.184 C 369.409 120.245,390.842 141.902,390.972 142.312 C 391.157 142.895,311.704 223.097,296.684 237.487 C 295.535 238.589,284.004 225.825,279.649 218.632 C 278.906 217.404,278.174 216.400,278.023 216.400 C 277.872 216.400,277.443 215.815,277.071 215.100 C 276.699 214.385,275.939 213.080,275.383 212.200 C 274.827 211.320,274.093 210.060,273.751 209.400 C 273.410 208.740,272.610 207.300,271.975 206.200 C 271.340 205.100,270.635 203.750,270.410 203.200 C 270.185 202.650,269.819 201.930,269.597 201.600 C 269.376 201.270,268.998 200.550,268.757 200.000 C 268.517 199.450,267.888 198.082,267.360 196.960 C 266.832 195.838,266.399 194.668,266.397 194.360 C 266.396 194.052,266.037 193.260,265.600 192.600 C 265.163 191.940,264.804 191.037,264.803 190.594 C 264.801 190.151,264.453 189.140,264.028 188.348 C 263.604 187.556,263.134 186.209,262.983 185.354 C 262.833 184.499,262.475 183.424,262.188 182.964 C 261.901 182.504,261.443 180.974,261.171 179.564 C 260.899 178.154,260.434 176.645,260.138 176.211 C 259.842 175.777,259.600 174.910,259.600 174.284 C 259.600 173.658,259.164 171.223,258.630 168.873 C 258.097 166.523,257.463 162.980,257.222 161.000 C 256.981 159.020,256.592 156.140,256.358 154.600 C 255.813 151.024,256.126 128.838,256.753 126.600 C 256.999 125.720,257.383 123.172,257.605 120.937 C 257.827 118.703,258.264 116.153,258.575 115.271 C 258.886 114.389,259.260 112.797,259.407 111.733 C 259.661 109.884,260.533 106.670,261.832 102.800 C 262.164 101.810,262.700 100.037,263.023 98.860 C 263.346 97.683,263.878 96.338,264.205 95.871 C 264.532 95.404,264.800 94.622,264.800 94.132 C 264.800 93.643,265.250 92.396,265.800 91.362 C 266.350 90.327,266.804 89.193,266.809 88.840 C 266.814 88.488,267.170 87.750,267.600 87.200 C 268.030 86.650,268.386 85.819,268.391 85.354 C 268.396 84.889,268.734 84.079,269.142 83.554 C 269.550 83.029,270.100 81.937,270.364 81.126 C 270.629 80.315,270.970 79.595,271.122 79.526 C 271.275 79.457,271.717 78.770,272.106 78.000 C 272.494 77.230,273.280 75.790,273.853 74.800 C 274.426 73.810,275.102 72.640,275.355 72.200 C 276.628 69.982,279.600 65.522,280.020 65.200 C 280.163 65.090,280.512 64.550,280.795 64.000 C 281.079 63.450,281.563 62.730,281.871 62.400 C 282.178 62.070,283.454 60.450,284.706 58.800 C 285.958 57.150,287.166 55.595,287.391 55.345 C 287.616 55.095,288.610 53.936,289.600 52.770 C 292.567 49.275,294.655 47.298,295.876 46.829 C 295.918 46.813,317.279 68.123,343.344 94.184 M198.920 219.600 C 198.920 220.810,198.995 221.305,199.087 220.700 C 199.178 220.095,199.178 219.105,199.087 218.500 C 198.995 217.895,198.920 218.390,198.920 219.600 M198.093 233.200 C 198.093 233.970,198.175 234.285,198.276 233.900 C 198.376 233.515,198.376 232.885,198.276 232.500 C 198.175 232.115,198.093 232.430,198.093 233.200 " stroke="none" fill="#a1aeae" fill-rule="evenodd"></path></g></svg>